<svg xmlns="http://www.w3.org/2000/svg" width="23.082" height="19.237" viewBox="0 0 23.082 19.237"><g transform="translate(52.515)" fill="none"><path d="M-39.81,0A10.376,10.376,0,0,1-29.434,10.376c0,5.73-9.035,14.607-19.326,3.682S-45.54,0-39.81,0Z" stroke="none"/><path d="M -39.80969619750977 1.000001907348633 C -43.72898864746094 1.000001907348633 -49.86261749267578 2.422222137451172 -51.22795867919922 5.584091186523438 C -51.61767578125 6.486612319946289 -51.61347579956055 7.487621307373047 -51.21513748168945 8.644311904907227 C -50.72908782958984 10.05568218231201 -49.65817642211914 11.64653205871582 -48.03215789794922 13.37266254425049 C -46.42866897583008 15.07487201690674 -44.78462600708008 16.35063171386719 -43.14572906494141 17.16449165344238 C -41.71219635009766 17.87637138366699 -40.27831649780273 18.2373218536377 -38.88390731811523 18.2373218536377 C -33.80402755737305 18.2373218536377 -30.43375778198242 13.5056324005127 -30.43375778198242 10.37594223022461 C -30.43375778198242 5.206031799316406 -34.63978576660156 1.000001907348633 -39.80969619750977 1.000001907348633 M -39.80969619750977 1.9073486328125e-06 C -34.07922744750977 1.9073486328125e-06 -29.43375778198242 4.645471572875977 -29.43375778198242 10.37594223022461 C -29.43375778198242 14.13097381591797 -33.31359481811523 19.23731994628906 -38.88390731811523 19.23731994628906 C -41.81433868408203 19.23731994628906 -45.21232223510742 17.82450103759766 -48.76005935668945 14.05834197998047 C -59.05151748657227 3.133272171020508 -45.54017639160156 1.9073486328125e-06 -39.80969619750977 1.9073486328125e-06 Z" stroke="none" fill="#3a6d6e"/></g><g transform="translate(5.405 2.813)"><line y2="13" transform="translate(6.5)" fill="none" stroke="#3a6d6e" stroke-linecap="round" stroke-width="1"/><line x1="13" transform="translate(0 6.5)" fill="none" stroke="#3a6d6e" stroke-linecap="round" stroke-width="1"/></g></svg>