<svg xmlns="http://www.w3.org/2000/svg" width="483.277" height="327.657" viewBox="0 0 483.277 327.657"><path d="M34.438,34.434C-51.328,62.6,50.2,121.652,50.227,219.152s56.119,73.125,270.111,47.893C476.98,248.576,486.24,38.934,382.055,3.3,343.971-9.725,80.5,20.178,34.438,34.434Z" transform="translate(458.059 327.75) rotate(-175)" fill="#ffffd6"/><g transform="translate(450.747 317.472) rotate(-177)" fill="none"><path d="M31.822,33.641C-27.872,52.8,14.769,143.275,14.769,143.275s26.353,64.3,32.51,81.721c-.054,111.571,68.1,47.654,278.176,42.748C482.1,249.683,483.617,38,379.438,3.189,341.356-9.534,77.887,19.707,31.822,33.641Z" stroke="none"/><path d="M 342.11669921875 0.85723876953125 C 321.9791870117188 0.85723876953125 295.4492797851562 2.07598876953125 263.2639465332031 4.47955322265625 C 234.3581390380859 6.63824462890625 201.9520111083984 9.6939697265625 169.5490112304688 13.31634521484375 C 138.3152465820312 16.80804443359375 108.9371948242188 20.61154174804688 84.59088134765625 24.31561279296875 C 59.35653686523438 28.15478515625 41.19281005859375 31.64324951171875 32.06118774414062 34.40435791015625 C 25.36672973632812 36.55389404296875 19.66610717773438 39.73574829101562 15.11843872070312 43.86123657226562 C 10.96939086914062 47.6251220703125 7.677825927734375 52.26666259765625 5.33526611328125 57.6571044921875 C 2.06463623046875 65.18316650390625 0.555572509765625 74.3338623046875 0.850067138671875 84.85491943359375 C 1.086700439453125 93.30935668945312 2.48175048828125 102.6577301025391 4.99652099609375 112.6402893066406 C 7.237762451171875 121.5369873046875 9.97149658203125 129.2982940673828 11.8701171875 134.24267578125 C 13.92877197265625 139.6035461425781 15.47686767578125 142.9009246826172 15.4923095703125 142.9336090087891 L 15.50106811523438 142.9522399902344 L 15.50888061523438 142.9712371826172 C 15.77252197265625 143.6144866943359 41.939453125 207.4926147460938 48.032958984375 224.7286682128906 L 48.07876586914062 224.8582305908203 L 48.07870483398438 224.9956665039062 C 48.072509765625 237.8814849853516 48.97451782226562 248.2195434570312 50.83633422851562 256.6004943847656 C 52.69857788085938 264.9836730957031 55.5281982421875 271.445556640625 59.48687744140625 276.3554077148438 C 63.32394409179688 281.1144104003906 68.27505493164062 284.4654846191406 74.62313842773438 286.6002807617188 C 80.6043701171875 288.6116638183594 87.99932861328125 289.5894165039062 97.23049926757812 289.5894165039062 C 114.0157470703125 289.5894165039062 135.4961853027344 286.4266662597656 162.6913757324219 282.4224853515625 C 183.3150634765625 279.3859252929688 206.6903839111328 275.9441833496094 233.7071990966797 273.0264892578125 C 265.0249938964844 269.6442260742188 295.0198364257812 267.6545715332031 325.3991088867188 266.9439086914062 C 335.0177001953125 265.8328247070312 344.3305358886719 263.9425048828125 353.0784912109375 261.325439453125 C 361.5111999511719 258.8026123046875 369.6104431152344 255.547607421875 377.1511840820312 251.6507873535156 C 391.4726257324219 244.2499847412109 404.1094360351562 234.4014282226562 414.710693359375 222.378662109375 C 424.6341857910156 211.1245422363281 432.7022094726562 198.0660400390625 438.6906433105469 183.5658569335938 C 444.382568359375 169.7834167480469 448.0797424316406 155.0109252929688 449.6795043945312 139.6586761474609 C 452.7455139160156 110.2340393066406 447.835693359375 80.58830261230469 435.8543701171875 56.182373046875 C 429.6953735351562 43.63641357421875 421.8648681640625 32.83697509765625 412.5803833007812 24.0841064453125 C 402.7922058105469 14.85629272460938 391.5560607910156 8.08154296875 379.1841430664062 3.9481201171875 C 373.0460205078125 1.897430419921875 360.5772705078125 0.85748291015625 342.1201782226562 0.85723876953125 L 342.11669921875 0.85723876953125 M 342.124267578125 0.05718994140625 C 359.7095336914062 0.057464599609375 372.8992614746094 1.004913330078125 379.4376220703125 3.189361572265625 C 483.6171264648438 37.99554443359375 482.0961303710938 249.6826782226562 325.4543151855469 267.7428588867188 C 211.6051483154297 270.40185546875 139.4466857910156 290.3894348144531 97.23049926757812 290.3894348144531 C 61.547119140625 290.3894348144531 47.254150390625 276.1025390625 47.2786865234375 224.9953002929688 C 41.12124633789062 207.5784301757812 14.76864624023438 143.2746124267578 14.76864624023438 143.2746124267578 C 14.76864624023438 143.2746124267578 -27.87167358398438 52.80130004882812 31.8223876953125 33.64080810546875 C 69.9783935546875 22.099609375 257.2861328125 0.055908203125 342.124267578125 0.05718994140625 Z" stroke="none" fill="#ffffd6"/></g><g transform="translate(454.955 323.865) rotate(-176)" fill="none"><path d="M31.248,28.175C-28.445,47.331,15.785,143.811,15.785,143.811s26.356,64.3,32.514,81.715c-.048,111.561,68.1,47.653,278.18,42.758C483.121,250.233,484.632,38.565,380.45,3.757,342.367-8.967,77.313,14.245,31.248,28.175Z" stroke="none"/><path d="M 332.9443969726562 0.8721923828125 C 311.8953857421875 0.8721923828125 284.3913879394531 1.85028076171875 253.4057159423828 3.700592041015625 C 224.6045837402344 5.4205322265625 193.1729736328125 7.86053466796875 162.5089111328125 10.75680541992188 C 132.2669982910156 13.61318969726562 104.237060546875 16.77239990234375 81.44924926757812 19.8929443359375 C 57.4859619140625 23.17440795898438 40.21026611328125 26.30218505859375 31.48809814453125 28.9384765625 C 25.08453369140625 30.99407958984375 19.60623168945312 34.06777954101562 15.20504760742188 38.074462890625 C 11.16964721679688 41.74813842773438 7.93878173828125 46.2978515625 5.602325439453125 51.59719848632812 C 2.12884521484375 59.47512817382812 0.53277587890625 69.19113159179688 0.85845947265625 80.47532653808594 C 1.12017822265625 89.54273986816406 2.616241455078125 99.63133239746094 5.30511474609375 110.4609375 C 7.701263427734375 120.1114044189453 10.62033081054688 128.5732727050781 12.64712524414062 133.9724731445312 C 14.84457397460938 139.8262023925781 16.49624633789062 143.4422607421875 16.51272583007812 143.4781341552734 L 16.51953125 143.4929962158203 L 16.52566528320312 143.5080718994141 C 16.789306640625 144.1511993408203 42.9595947265625 208.0251312255859 49.05398559570312 225.2598571777344 L 49.09979248046875 225.3894653320312 L 49.0997314453125 225.5269317626953 C 49.09417724609375 238.4112701416016 49.99703979492188 248.74853515625 51.85992431640625 257.1293334960938 C 53.72323608398438 265.5118713378906 56.55392456054688 271.9734497070312 60.51385498046875 276.8833923339844 C 64.35198974609375 281.6422729492188 69.30404663085938 284.993408203125 75.65304565429688 287.1282653808594 C 81.63519287109375 289.1397399902344 89.030517578125 290.1175231933594 98.26177978515625 290.1175231933594 C 115.0454406738281 290.1175231933594 136.5219116210938 286.9566650390625 163.7121276855469 282.9548034667969 C 184.3355102539062 279.9195251464844 207.7105102539062 276.4791870117188 234.7279205322266 273.56298828125 C 266.0464477539062 270.1825866699219 296.0427551269531 268.1945190429688 326.4242553710938 267.4853820800781 C 336.0421752929688 266.3749389648438 345.3543395996094 264.4854431152344 354.1017150878906 261.8692626953125 C 362.5338439941406 259.347412109375 370.632568359375 256.0933837890625 378.1727905273438 252.1977233886719 C 392.4933166503906 244.799072265625 405.12939453125 234.9530639648438 415.7299194335938 222.9331970214844 C 425.6527709960938 211.6817321777344 433.720458984375 198.6260681152344 439.7086486816406 184.1288604736328 C 445.4004516601562 170.3492736816406 449.09765625 155.5794677734375 450.6976623535156 140.229736328125 C 453.7646484375 110.8059997558594 448.8546447753906 81.16006469726562 436.8721313476562 56.75299072265625 C 430.7125244140625 44.20660400390625 422.8812561035156 33.40667724609375 413.5958557128906 24.6531982421875 C 403.8065795898438 15.42474365234375 392.5693969726562 8.6494140625 380.1963195800781 4.515472412109375 C 376.5173950195312 3.2862548828125 370.47998046875 2.353790283203125 362.2519226074219 1.743927001953125 C 354.4479064941406 1.16552734375 344.5879821777344 0.87225341796875 332.9459838867188 0.8721923828125 L 332.9443969726562 0.8721923828125 M 332.9459838867188 0.072235107421875 C 355.6429443359375 0.072296142578125 372.7212524414062 1.1744384765625 380.4498596191406 3.75665283203125 C 484.6317138671875 38.56500244140625 483.1212463378906 250.2334594726562 326.4793090820312 268.2843322753906 C 212.6295471191406 270.9374084472656 140.4783020019531 290.9175415039062 98.26181030273438 290.9175415039062 C 62.57821655273438 290.9175415039062 48.27774047851562 276.6293640136719 48.29971313476562 225.526611328125 C 42.14138793945312 208.1109924316406 15.78546142578125 143.8114624023438 15.78546142578125 143.8114624023438 C 15.78546142578125 143.8114624023438 -28.44500732421875 47.33099365234375 31.24844360351562 28.17520141601562 C 67.96466064453125 17.07217407226562 243.8032684326172 0.071990966796875 332.9459838867188 0.072235107421875 Z" stroke="none" fill="#ffffd6"/></g></svg>