<svg id="blueUserBtn" xmlns="http://www.w3.org/2000/svg" width="39.223" height="38.756" viewBox="0 0 39.223 38.756">
  <g id="Gruppe_43" data-name="Gruppe 43" transform="translate(-16.44 -12.476)">
    <g id="Gruppe_41" data-name="Gruppe 41" transform="translate(10.426 5)">
      <g id="Gruppe_38" data-name="Gruppe 38" transform="translate(6.014 7.476)">
        <g id="Pfad_38" data-name="Pfad 38" transform="translate(16.806 3.227)" fill="none">
          <path d="M6.534,0C15.61,0,28.071,4.913,16.542,16.547S-1.45,43.287-9.9,22.624-2.543,0,6.534,0Z" stroke="none"/>
          <path d="M 6.533590316772461 0.4999961853027344 C 2.895230770111084 0.4999961853027344 -0.1022491455078125 0.8277435302734375 -2.630128860473633 1.501953125 C -6.115689277648926 2.431606292724609 -8.638509750366211 4.028175354003906 -10.12851905822754 6.247314453125 C -12.57355880737305 9.888843536376953 -12.34118843078613 15.33491516113281 -9.437858581542969 22.43425559997559 C -7.971059799194336 26.02093505859375 -6.557119369506836 28.5619945526123 -5.115249633789062 30.20263481140137 C -3.837149620056152 31.65690612792969 -2.56321907043457 32.36384582519531 -1.220639228820801 32.36384582519531 C 2.056320667266846 32.36384582519531 5.670380592346191 28.13360595703125 9.855111122131348 23.23539543151855 C 11.83934020996094 20.91287422180176 13.89111137390137 18.51128387451172 16.18653106689453 16.19514465332031 C 18.23166084289551 14.13155555725098 19.59754943847656 12.19026565551758 20.24625015258789 10.42520523071289 C 20.8094310760498 8.892814636230469 20.83180999755859 7.484474182128906 20.31277084350586 6.239315032958984 C 19.37582015991211 3.991596221923828 16.86738014221191 2.653472900390625 14.92806053161621 1.926734924316406 C 12.50846099853516 1.020023345947266 9.448790550231934 0.4999961853027344 6.533590316772461 0.4999961853027344 M 6.533590316772461 -3.814697265625e-06 C 15.60997009277344 -3.814697265625e-06 28.07135009765625 4.913364410400391 16.54167175292969 16.54710388183594 C 9.161808967590332 23.99358558654785 3.857241630554199 32.86383819580078 -1.220635414123535 32.86383819580078 C -4.076003074645996 32.86383819580078 -6.85908317565918 30.0609016418457 -9.900659561157227 22.62351417541504 C -18.35126876831055 1.959754943847656 -2.54279899597168 -3.814697265625e-06 6.533590316772461 -3.814697265625e-06 Z" stroke="none" fill="#5966ef"/>
        </g>
        <g id="Pfad_80" data-name="Pfad 80" transform="translate(0 3.159) rotate(-5)" fill="none">
          <path d="M20.384,0c9.822,0,23.31,5.353,10.839,18S11.765,47.068,2.61,24.593,10.562,0,20.384,0Z" stroke="none"/>
          <path d="M 20.35334777832031 0.5 C 16.42566871643066 0.5 13.18819808959961 0.8554916381835938 10.45592880249023 1.586780548095703 C 6.688638687133789 2.595100402832031 3.957656860351562 4.327030181884766 2.338848114013672 6.734462738037109 C -0.3321609497070312 10.70668029785156 -0.08510208129882812 16.65179061889648 3.073169708251953 24.4046516418457 C 4.664459228515625 28.3109302520752 6.198728561401367 31.07926177978516 7.76365852355957 32.86783981323242 C 9.15618896484375 34.45940017700195 10.54540824890137 35.23307037353516 12.01070785522461 35.23307037353516 C 15.57459831237793 35.23307037353516 19.48843955993652 30.62906074523926 24.02027893066406 25.29807090759277 C 26.16597747802734 22.77401161193848 28.38471984863281 20.16401100158691 30.8666877746582 17.64748001098633 C 33.08646011352539 15.39681053161621 34.56797790527344 13.27841949462891 35.27008056640625 11.35116195678711 C 35.88168716430664 9.672321319580078 35.90226745605469 8.128421783447266 35.33124923706055 6.762359619140625 C 34.30517959594727 4.307659149169922 31.57999801635742 2.847640991210938 29.47454833984375 2.055091857910156 C 26.85290908813477 1.068241119384766 23.5394172668457 0.5014305114746094 20.38390922546387 0.5000114440917969 L 20.36838912963867 0.5 L 20.35334777832031 0.5 M 20.35334587097168 3.814697265625e-06 C 20.36355400085449 3.814697265625e-06 20.37371635437012 7.62939453125e-06 20.38390922546387 1.1444091796875e-05 C 30.20625877380371 0.0044403076171875 43.69422912597656 5.353420257568359 31.22267913818359 17.99858093261719 C 23.2407169342041 26.0916690826416 17.50543975830078 35.73307418823242 12.01070404052734 35.73307418823242 C 8.920112609863281 35.73307418823242 5.905902862548828 32.6837158203125 2.610118865966797 24.59328079223633 C -6.535713195800781 2.142261505126953 10.52611351013184 3.814697265625e-06 20.35334587097168 3.814697265625e-06 Z" stroke="none" fill="#5966ef"/>
        </g>
      </g>
    </g>
    <g id="profile_icon" data-name="profile icon" transform="translate(24 20)" opacity="0.792">
      <ellipse id="Ellipse_27" data-name="Ellipse 27" cx="4.5" cy="5.5" rx="4.5" ry="5.5" transform="translate(5)" fill="#5966ef"/>
      <path id="Pfad_87" data-name="Pfad 87" d="M9,0c4.971,0,9,2.015,9,4.5S0,6.985,0,4.5,4.029,0,9,0Z" transform="translate(0 11)" fill="#5966ef"/>
    </g>
  </g>
</svg>
