<svg xmlns="http://www.w3.org/2000/svg" width="31.88" height="26.57" viewBox="0 0 31.88 26.57"><g transform="translate(52.515)" fill="#5966ef"><path d="M -33.68807601928711 26.06980514526367 C -35.75116729736328 26.06980514526367 -37.86345672607422 25.54034423828125 -39.96625518798828 24.49611473083496 C -42.32361602783203 23.32547378540039 -44.6782341003418 21.50119400024414 -46.96470642089844 19.07396507263184 C -51.35002517700195 14.41867446899414 -52.89145660400391 10.47860431671143 -51.54619598388672 7.363214492797852 C -50.33447647094727 4.557084560394287 -46.97924423217773 2.923804521560669 -44.37792587280273 2.04777455329895 C -40.98927688598633 0.9066045880317688 -37.2945442199707 0.5000045895576477 -34.96674728393555 0.5000045895576477 C -31.27238464355469 0.5000045895576477 -27.79915618896484 1.938664555549622 -25.18684577941895 4.55096435546875 C -22.57453536987305 7.163264751434326 -21.1358757019043 10.63648414611816 -21.1358757019043 14.33083438873291 C -21.1358757019043 16.82824516296387 -22.47804641723633 19.78604507446289 -24.63862609863281 22.04998397827148 C -27.11249542236328 24.64220428466797 -30.32632637023926 26.06980514526367 -33.68807601928711 26.06980514526367 Z" stroke="none"/><path d="M -34.96674728393555 0.9999961853027344 C -37.25493621826172 0.9999961853027344 -40.88694381713867 1.399723052978516 -44.21834564208984 2.521614074707031 C -46.72334671020508 3.365203857421875 -49.94843673706055 4.924345016479492 -51.087158203125 7.561424255371094 C -51.65679550170898 8.880594253540039 -51.65435791015625 10.39524459838867 -51.07990264892578 12.06328392028809 C -50.39087677001953 14.06406402587891 -48.88386535644531 16.30745506286621 -46.60075378417969 18.73111343383789 C -44.35501480102539 21.11511421203613 -42.04802703857422 22.9040641784668 -39.74386596679688 24.04828453063965 C -37.71078491210938 25.05789566040039 -35.67332458496094 25.56980514526367 -33.68807601928711 25.56980514526367 C -30.46431732177734 25.56980514526367 -27.37894439697266 24.19717407226562 -25.00033569335938 21.70477485656738 C -22.92506408691406 19.53022384643555 -21.6358757019043 16.7046947479248 -21.6358757019043 14.33083534240723 C -21.6358757019043 10.77004432678223 -23.02252578735352 7.422374725341797 -25.5403938293457 4.904514312744141 C -28.05827713012695 2.386646270751953 -31.40594482421875 0.9999961853027344 -34.96674728393555 0.9999961853027344 M -34.96674728393555 -3.814697265625e-06 C -27.05203628540039 -3.814697265625e-06 -20.6358757019043 6.416133880615234 -20.6358757019043 14.33083534240723 C -20.6358757019043 19.51712799072266 -25.99456024169922 26.56980323791504 -33.68807220458984 26.56980323791504 C -37.73547744750977 26.56980323791504 -42.42864990234375 24.61847305297852 -47.32865524291992 19.41680526733398 C -61.5428352355957 4.327545166015625 -42.88146591186523 -3.814697265625e-06 -34.96674728393555 -3.814697265625e-06 Z" stroke="none" fill="#5861f3"/></g><g transform="translate(7.465 3.885)"><line y2="17.955" transform="translate(8.978)" fill="none" stroke="#ffffd6" stroke-linecap="round" stroke-width="1"/><line x1="17.955" transform="translate(0 8.978)" fill="none" stroke="#ffffd6" stroke-linecap="round" stroke-width="1"/></g></svg>