<svg xmlns="http://www.w3.org/2000/svg" width="80" height="29.222" viewBox="0 0 80 29.222"><text transform="translate(0 9.989)" fill="#5861f3" font-size="11" font-family="BambiBold, Bambi Bold" letter-spacing="0.116em"><tspan x="0" y="9">calendar</tspan></text><g transform="translate(64.75)" fill="none" opacity="0.698"><path d="M-24.571,0A22.821,22.821,0,0,1-1.75,22.821c0,12.6-6.822,3.269-45.641,0S-37.174,0-24.571,0Z" stroke="none"/><path d="M -24.5707893371582 0.3000030517578125 C -29.01221084594727 0.3000030517578125 -38.23837661743164 2.797283172607422 -46.50857925415039 6.237981796264648 C -55.94234466552734 10.16277122497559 -61.64673233032227 14.22611618041992 -61.76784515380859 17.10744857788086 C -61.82077789306641 18.36691474914551 -60.7880859375 19.45306015014648 -58.69847869873047 20.3357048034668 C -56.28184509277344 21.35648345947266 -52.46911239624023 22.09193801879883 -47.3661994934082 22.52164840698242 C -32.39967727661133 23.78195953369141 -22.09828948974609 25.96074867248535 -15.28164672851562 27.40249252319336 C -11.11177825927734 28.28442764282227 -8.098976135253906 28.92164993286133 -6.056976318359375 28.92164993286133 C -4.458808898925781 28.92164993286133 -3.487152099609375 28.52842712402344 -2.906463623046875 27.64665985107422 C -2.314277648925781 26.7474365234375 -2.050201416015625 25.25902557373047 -2.050201416015625 22.82059288024902 C -2.050201416015625 19.78020477294922 -2.645599365234375 16.8309154510498 -3.819854736328125 14.05464935302734 C -4.954124450683594 11.37294960021973 -6.577980041503906 8.964481353759766 -8.646324157714844 6.896125793457031 C -10.71467590332031 4.827781677246094 -13.12314605712891 3.203926086425781 -15.80484771728516 2.069660186767578 C -18.58110809326172 0.8954048156738281 -21.53040313720703 0.3000030517578125 -24.5707893371582 0.3000030517578125 M -24.5707893371582 3.814697265625e-06 C -11.96732330322266 3.814697265625e-06 -1.750198364257812 10.21712684631348 -1.750198364257812 22.82059288024902 C -1.750198364257812 27.59535217285156 -2.729843139648438 29.22164535522461 -6.056976318359375 29.22164535522461 C -11.51213073730469 29.22164535522461 -23.27882385253906 24.85107803344727 -47.39137649536133 22.82059288024902 C -86.21031188964844 19.55170440673828 -37.17424392700195 3.814697265625e-06 -24.5707893371582 3.814697265625e-06 Z" stroke="none" fill="#5966ef"/></g></svg>