<svg xmlns="http://www.w3.org/2000/svg" width="867.785" height="883.384" viewBox="0 0 867.785 883.384"><g transform="translate(3.108 487.622) rotate(-48)"><g transform="translate(633.99 559.767) rotate(177)" fill="none"><path d="M285.637-.4C178.93,6.833,5.386,162.788-.619,431.461s150.753,49.157,480.973-42.809S392.345-7.636,285.637-.4Z" stroke="none"/><path d="M 289.498779296875 0.47174072265625 C 288.18212890625 0.47174072265625 286.941162109375 0.512451171875 285.705078125 0.59625244140625 C 272.4151611328125 1.49725341796875 258.1449584960938 4.7120361328125 243.2906494140625 10.15130615234375 C 228.1846313476562 15.682861328125 212.7015380859375 23.434814453125 197.2713623046875 33.1920166015625 C 181.3038330078125 43.2889404296875 165.5442504882812 55.44305419921875 150.4305419921875 69.31671142578125 C 134.5847778320312 83.8624267578125 119.4790649414062 100.2776489257812 105.5331420898438 118.1063232421875 C 90.79364013671875 136.9496459960938 77.26837158203125 157.483642578125 65.33294677734375 179.1380615234375 C 52.6700439453125 202.1123352050781 41.6495361328125 226.6233215332031 32.57745361328125 251.990234375 C 12.62835693359375 307.7710266113281 1.7957763671875 368.1613464355469 0.38055419921875 431.4835205078125 C -1.00146484375 493.3129272460938 6.2138671875 530.146728515625 23.08746337890625 547.4017333984375 C 31.09716796875 555.5923461914062 41.46697998046875 559.5739135742188 54.7894287109375 559.5739135742188 C 62.74627685546875 559.5739135742188 71.7137451171875 558.183837890625 82.204345703125 555.3240966796875 C 91.81378173828125 552.7046508789062 102.6699829101562 548.8519287109375 115.3933715820312 543.545654296875 C 139.4512329101562 533.512451171875 167.0275268554688 519.621826171875 198.958251953125 503.5379333496094 C 235.6485595703125 485.0565185546875 277.2342529296875 464.1092529296875 324.0656433105469 443.738525390625 C 378.241455078125 420.1732482910156 429.2758483886719 401.8392333984375 480.0851440429688 387.6889343261719 C 492.2327575683594 384.3058471679688 503.658447265625 380.5425415039062 514.0450439453125 376.5035400390625 C 524.1669921875 372.5674438476562 533.5738525390625 368.2638244628906 542.0044555664062 363.7122192382812 C 550.2117919921875 359.2812194824219 557.7130737304688 354.496826171875 564.300048828125 349.491943359375 C 570.7060546875 344.6245422363281 576.417724609375 339.4191284179688 581.2763671875 334.0203247070312 C 585.9981689453125 328.7736206054688 590.039794921875 323.2047424316406 593.2889404296875 317.4685363769531 C 596.4464721679688 311.8941345214844 598.939453125 306.0135192871094 600.6988525390625 299.9900207519531 C 602.409423828125 294.1332397460938 603.4717407226562 287.9866333007812 603.8561401367188 281.7208251953125 C 604.2300415039062 275.6258239746094 603.9724731445312 269.2592468261719 603.0904541015625 262.7976379394531 C 602.108642578125 255.604736328125 600.3268432617188 248.0995483398438 597.7947387695312 240.4904479980469 C 595.3433837890625 233.1239318847656 592.1292724609375 225.4815368652344 588.2418212890625 217.7752380371094 C 580.8245849609375 203.0713195800781 570.7662353515625 187.7252197265625 558.3462524414062 172.1632080078125 C 546.7003173828125 157.5712280273438 532.93115234375 142.7237548828125 517.4210205078125 128.0332641601562 C 502.7849426269531 114.17041015625 486.66845703125 100.5075073242188 469.5191650390625 87.4239501953125 C 453.1174621582031 74.91064453125 436.0191650390625 63.11175537109375 418.6992492675781 52.3548583984375 C 401.7881469726562 41.851806640625 385.0754699707031 32.59375 369.0253601074219 24.83770751953125 C 352.9566650390625 17.07275390625 338.0028686523438 11.03131103515625 324.579345703125 6.8812255859375 C 310.8316650390625 2.63104248046875 299.03515625 0.47454833984375 289.5174560546875 0.47174072265625 L 289.498779296875 0.47174072265625 M 289.517822265625 -0.52825927734375 C 402.0762634277344 -0.49542236328125 806.6832275390625 297.7701721191406 480.3534545898438 388.6522216796875 C 267.1334838867188 448.0335693359375 126.2511596679688 560.5738525390625 54.7894287109375 560.5738525390625 C 15.57635498046875 560.5738525390625 -2.74688720703125 526.6547241210938 -0.6192626953125 431.4612426757812 C 5.38568115234375 162.7880249023438 178.9296264648438 6.8326416015625 285.637451171875 -0.4014892578125 C 286.8944702148438 -0.4866943359375 288.1760864257812 -0.5286865234375 289.517822265625 -0.52825927734375 Z" stroke="none" fill="#fffed8"/></g></g><g transform="matrix(0.656, -0.755, 0.755, 0.656, -0.292, 482.057)"><g transform="translate(637.834 559.673) rotate(177)" fill="none"><path d="M287.289-.406C179.914,6.793,5.332,162.693-.622,431.367s151.715,49.207,483.978-42.651S394.665-7.6,287.289-.406Z" stroke="none"/><path d="M 291.1534423828125 0.4688720703125 C 289.8347778320312 0.4688720703125 288.5926513671875 0.5091552734375 287.3560791015625 0.5921630859375 C 273.98193359375 1.48876953125 259.6220703125 4.69915771484375 244.6754760742188 10.13397216796875 C 229.475830078125 15.6607666015625 213.8976440429688 23.407958984375 198.3733520507812 33.16046142578125 C 182.3085327148438 43.25238037109375 166.4539794921875 55.40155029296875 151.2496337890625 69.27069091796875 C 135.3091430664062 83.811279296875 120.1139526367188 100.2216796875 106.0863647460938 118.0460815429688 C 91.26055908203125 136.8845825195312 77.65716552734375 157.4143676757812 65.654052734375 179.06494140625 C 52.91925048828125 202.03515625 41.8377685546875 226.5425720214844 32.7171630859375 251.9064636230469 C 12.66143798828125 307.6806640625 1.78076171875 368.0673522949219 0.3775634765625 431.38916015625 C -0.99053955078125 493.120849609375 6.25054931640625 529.927490234375 23.16552734375 547.221435546875 C 31.24603271484375 555.4830322265625 41.72442626953125 559.4990844726562 55.199462890625 559.4990844726562 C 63.2081298828125 559.4990844726562 72.233154296875 558.1097412109375 82.79022216796875 555.2516479492188 C 92.45977783203125 552.6338500976562 103.3832397460938 548.78369140625 116.1849365234375 543.48095703125 C 140.39013671875 533.4547729492188 168.1322631835938 519.5746459960938 200.2548217773438 503.5028686523438 C 237.1690673828125 485.0335693359375 279.0086669921875 464.1000671386719 326.1243591308594 443.745849609375 C 380.628662109375 420.1996765136719 431.9722595214844 401.8839721679688 483.0890502929688 387.7521667480469 C 495.2946472167969 384.3777465820312 506.7761535644531 380.6238708496094 517.2145385742188 376.5948486328125 C 527.3873291015625 372.6683654785156 536.8427734375 368.3749694824219 545.318115234375 363.8339538574219 C 553.5694580078125 359.4131469726562 561.1123657226562 354.6395568847656 567.7373657226562 349.645751953125 C 574.1805419921875 344.7889709472656 579.9269409179688 339.5947570800781 584.8169555664062 334.2074584960938 C 589.5693359375 328.9716491699219 593.6390380859375 323.4144592285156 596.9131469726562 317.6899719238281 C 600.094970703125 312.1268615722656 602.6097412109375 306.2581481933594 604.387939453125 300.2465515136719 C 606.116943359375 294.4013671875 607.1951293945312 288.2666625976562 607.5927734375 282.0127563476562 C 607.9795532226562 275.9291687011719 607.7323608398438 269.5740661621094 606.858154296875 263.1239624023438 C 605.8828735351562 255.9281616210938 604.10107421875 248.4188537597656 601.562255859375 240.8048706054688 C 599.1044311523438 233.4337768554688 595.8777465820312 225.7856750488281 591.9716796875 218.0729675292969 C 584.5188598632812 203.3570556640625 574.4026489257812 187.9959716796875 561.9039306640625 172.416259765625 C 550.184814453125 157.808349609375 536.32421875 142.9427490234375 520.70703125 128.2322387695312 C 505.9708557128906 114.3516845703125 489.7411499023438 100.66943359375 472.46875 87.56585693359375 C 455.950439453125 75.03436279296875 438.7290649414062 63.2171630859375 421.2828369140625 52.4423828125 C 404.2493591308594 41.9224853515625 387.4151611328125 32.64898681640625 371.2481384277344 24.8792724609375 C 355.0623474121094 17.10064697265625 340.0005493164062 11.0484619140625 326.4810485839844 6.8907470703125 C 312.6342468261719 2.63226318359375 300.754638671875 0.4716796875 291.17236328125 0.4688720703125 L 291.1534423828125 0.4688720703125 M 291.1726684570312 -0.53118896484375 C 404.4083251953125 -0.49798583984375 811.7241821289062 297.9349060058594 483.3555603027344 388.7159729003906 C 268.8572998046875 448.0164184570312 127.12255859375 560.4990844726562 55.19940185546875 560.4990844726562 C 15.71209716796875 560.4990844726562 -2.7325439453125 526.593505859375 -0.62225341796875 431.3669738769531 C 5.33184814453125 162.6931762695312 179.9139404296875 6.7933349609375 287.2891235351562 -0.4056396484375 C 288.5474853515625 -0.489990234375 289.8299560546875 -0.53155517578125 291.1726684570312 -0.53118896484375 Z" stroke="none" fill="#fffed8"/></g></g></svg>