<svg xmlns="http://www.w3.org/2000/svg" width="439.568" height="67.848" viewBox="0 0 439.568 67.848">
  <g id="footer" transform="translate(0.25 0.265)">
    <path id="Pfad_203" data-name="Pfad 203" d="M-163.651,1078.505s38.427-22.083,63.193-18.87,21.568,10.443,57.628,13.133,85.052-7.793,85.052-7.793,39.117-3.794,56.612-5.341S161.38,1073.4,173.6,1070.4s38.9-2.271,44.615,0,53.984,0,53.984,0v48.651H-163.651Z" transform="matrix(1, 0.017, -0.017, 1, 185.395, -1056.298)" fill="#f39b85" stroke="#ffffd6" stroke-width="0.5"/>
    <path id="Pfad_204" data-name="Pfad 204" d="M-163.651,1078.505s38.427-22.083,63.193-18.87,21.568,10.443,57.628,13.133,85.052-7.793,85.052-7.793,39.117-3.794,56.612-5.341S161.38,1073.4,173.6,1070.4s38.9-2.271,44.615,0,53.984,0,53.984,0v48.651H-163.651Z" transform="matrix(1, 0.017, -0.017, 1, 185.395, -1056.298)" fill="rgba(255,255,214,0.11)" stroke="#ffffd6" stroke-width="0.5"/>
    <path id="Pfad_205" data-name="Pfad 205" d="M-163.651,1076.563s38.427-19.848,63.193-16.96,57.917,9.671,57.917,9.671l86.113-4.252s37.767-4.029,55.262-5.419,62.547,12.372,74.766,9.671,38.9-2.041,44.615,0,53.984,0,53.984,0V1113H-163.651Z" transform="translate(163.651 -1056.05)" fill="rgba(255,255,214,0.11)" stroke="#ffffd6" stroke-width="0.5"/>
  </g>
</svg>
