<svg xmlns="http://www.w3.org/2000/svg" width="110.029" height="12.454" viewBox="0 0 110.029 12.454"><path d="M.609,8.509a4.037,4.037,0,0,1,.743-2.555A2.375,2.375,0,0,1,3.32,5a2.363,2.363,0,0,1,1.961.889l.057-.762H6.411v6.7a2.794,2.794,0,0,1-.79,2.1A2.916,2.916,0,0,1,3.5,14.7a3.532,3.532,0,0,1-1.454-.317,2.5,2.5,0,0,1-1.085-.87l.609-.7a2.3,2.3,0,0,0,1.847.933,1.8,1.8,0,0,0,1.336-.482A1.844,1.844,0,0,0,5.23,11.9v-.59a2.414,2.414,0,0,1-1.923.813,2.346,2.346,0,0,1-1.952-.971A4.244,4.244,0,0,1,.609,8.509Zm1.181.133a3.08,3.08,0,0,0,.476,1.825A1.547,1.547,0,0,0,3.6,11.13,1.72,1.72,0,0,0,5.23,10.121V6.985A1.74,1.74,0,0,0,3.612,6a1.561,1.561,0,0,0-1.339.667A3.354,3.354,0,0,0,1.79,8.642ZM12.2,12.127A3,3,0,0,1,9.93,11.21a3.4,3.4,0,0,1-.876-2.453V8.541a4.121,4.121,0,0,1,.39-1.825,3.045,3.045,0,0,1,1.092-1.257A2.745,2.745,0,0,1,12.056,5a2.572,2.572,0,0,1,2.082.882,3.82,3.82,0,0,1,.743,2.526V8.9H10.228a2.441,2.441,0,0,0,.594,1.641,1.866,1.866,0,0,0,1.444.625,2.045,2.045,0,0,0,1.054-.254,2.648,2.648,0,0,0,.755-.673l.717.559A2.884,2.884,0,0,1,12.2,12.127ZM12.056,5.97a1.566,1.566,0,0,0-1.193.517,2.515,2.515,0,0,0-.6,1.45h3.44V7.849a2.237,2.237,0,0,0-.482-1.387A1.475,1.475,0,0,0,12.056,5.97ZM19,3.469V5.132h1.282V6.04H19V10.3a.951.951,0,0,0,.171.619.722.722,0,0,0,.584.206,2.843,2.843,0,0,0,.559-.076V12a3.4,3.4,0,0,1-.9.127,1.462,1.462,0,0,1-1.187-.476,2.045,2.045,0,0,1-.4-1.352V6.04h-1.25V5.132h1.25V3.469Zm12.211,6.709a.864.864,0,0,0-.359-.74,3.452,3.452,0,0,0-1.25-.454,5.912,5.912,0,0,1-1.416-.457,2.014,2.014,0,0,1-.774-.635,1.518,1.518,0,0,1-.251-.876,1.782,1.782,0,0,1,.714-1.428A2.789,2.789,0,0,1,29.7,5a2.87,2.87,0,0,1,1.895.6,1.915,1.915,0,0,1,.727,1.542H31.143a1.06,1.06,0,0,0-.409-.832A1.534,1.534,0,0,0,29.7,5.97a1.606,1.606,0,0,0-1,.279.879.879,0,0,0-.362.73.712.712,0,0,0,.336.641,4.139,4.139,0,0,0,1.216.413,6.334,6.334,0,0,1,1.425.47,2.079,2.079,0,0,1,.809.657,1.615,1.615,0,0,1,.263.936,1.758,1.758,0,0,1-.736,1.476,3.089,3.089,0,0,1-1.911.555,3.459,3.459,0,0,1-1.46-.292,2.375,2.375,0,0,1-.993-.816,1.966,1.966,0,0,1-.359-1.133H28.1a1.216,1.216,0,0,0,.473.936,1.835,1.835,0,0,0,1.165.346,1.894,1.894,0,0,0,1.07-.27A.829.829,0,0,0,31.213,10.178Zm5.467-6.709V5.132h1.282V6.04H36.681V10.3a.951.951,0,0,0,.171.619.722.722,0,0,0,.584.206,2.843,2.843,0,0,0,.559-.076V12a3.4,3.4,0,0,1-.9.127,1.462,1.462,0,0,1-1.187-.476,2.045,2.045,0,0,1-.4-1.352V6.04h-1.25V5.132h1.25V3.469ZM44.744,12a2.467,2.467,0,0,1-.165-.724,2.62,2.62,0,0,1-1.955.851,2.424,2.424,0,0,1-1.666-.574,1.859,1.859,0,0,1-.651-1.457,1.942,1.942,0,0,1,.816-1.666,3.846,3.846,0,0,1,2.295-.594H44.56V7.3a1.319,1.319,0,0,0-.368-.981,1.48,1.48,0,0,0-1.085-.365,1.712,1.712,0,0,0-1.054.317.935.935,0,0,0-.425.768H40.447a1.621,1.621,0,0,1,.365-.993,2.491,2.491,0,0,1,.99-.759A3.331,3.331,0,0,1,43.176,5a2.715,2.715,0,0,1,1.86.594,2.141,2.141,0,0,1,.7,1.635v3.161a3.865,3.865,0,0,0,.241,1.5V12ZM42.8,11.1a2.064,2.064,0,0,0,1.047-.286,1.728,1.728,0,0,0,.717-.743V8.667h-.92q-2.158,0-2.158,1.263a1.069,1.069,0,0,0,.368.863A1.415,1.415,0,0,0,42.8,11.1Zm9.27-4.919a3.519,3.519,0,0,0-.578-.044,1.547,1.547,0,0,0-1.568.984V12H48.745V5.132h1.143l.019.793A1.829,1.829,0,0,1,51.544,5a1.2,1.2,0,0,1,.521.089Zm4.16-2.717V5.132h1.282V6.04H56.225V10.3a.951.951,0,0,0,.171.619.722.722,0,0,0,.584.206,2.843,2.843,0,0,0,.559-.076V12a3.4,3.4,0,0,1-.9.127,1.462,1.462,0,0,1-1.187-.476,2.045,2.045,0,0,1-.4-1.352V6.04H53.8V5.132h1.25V3.469ZM62.9,12.127a3,3,0,0,1-2.272-.917,3.4,3.4,0,0,1-.876-2.453V8.541a4.121,4.121,0,0,1,.39-1.825,3.045,3.045,0,0,1,1.092-1.257A2.745,2.745,0,0,1,62.752,5a2.572,2.572,0,0,1,2.082.882,3.82,3.82,0,0,1,.743,2.526V8.9H60.924a2.441,2.441,0,0,0,.594,1.641,1.866,1.866,0,0,0,1.444.625,2.045,2.045,0,0,0,1.054-.254,2.648,2.648,0,0,0,.755-.673l.717.559A2.884,2.884,0,0,1,62.9,12.127ZM62.752,5.97a1.566,1.566,0,0,0-1.193.517,2.515,2.515,0,0,0-.6,1.45H64.4V7.849a2.237,2.237,0,0,0-.482-1.387A1.475,1.475,0,0,0,62.752,5.97ZM67.82,8.509a4.023,4.023,0,0,1,.749-2.542,2.548,2.548,0,0,1,3.872-.136V2.25h1.174V12H72.536l-.057-.736a2.391,2.391,0,0,1-1.961.863,2.346,2.346,0,0,1-1.946-.978A4.069,4.069,0,0,1,67.82,8.6Zm1.174.133a3.046,3.046,0,0,0,.482,1.828,1.56,1.56,0,0,0,1.333.66,1.713,1.713,0,0,0,1.631-1V6.973A1.726,1.726,0,0,0,70.822,6a1.567,1.567,0,0,0-1.346.667A3.354,3.354,0,0,0,68.994,8.642ZM82.5,5.132l.057.793A2.4,2.4,0,0,1,84.531,5a1.993,1.993,0,0,1,1.625.641A2.991,2.991,0,0,1,86.7,7.563V12H84.867V7.607a1.19,1.19,0,0,0-.254-.847,1.137,1.137,0,0,0-.844-.263,1.262,1.262,0,0,0-1.162.66V12H80.773V5.132ZM88.976,8.5a4.073,4.073,0,0,1,.394-1.822A2.881,2.881,0,0,1,90.5,5.443,3.306,3.306,0,0,1,92.22,5a3.127,3.127,0,0,1,2.269.851,3.414,3.414,0,0,1,.981,2.311l.013.47a3.59,3.59,0,0,1-.882,2.536,3.42,3.42,0,0,1-4.739,0,3.653,3.653,0,0,1-.885-2.59Zm1.834.133a2.56,2.56,0,0,0,.368,1.495,1.324,1.324,0,0,0,2.095.006A2.8,2.8,0,0,0,93.648,8.5a2.535,2.535,0,0,0-.375-1.485A1.218,1.218,0,0,0,92.22,6.49a1.2,1.2,0,0,0-1.041.524A2.849,2.849,0,0,0,90.811,8.636Zm12.945.87.9-4.374h1.771L104.676,12H103.14l-1.3-4.323L100.537,12h-1.53L97.255,5.132h1.771l.9,4.367,1.257-4.367H102.5Zm6.616-.343h-1.523l-.216-6.4h1.955Zm-.762,1a1.028,1.028,0,0,1,.746.273,1,1,0,0,1,0,1.39,1.147,1.147,0,0,1-1.485,0,.921.921,0,0,1-.282-.692.931.931,0,0,1,.282-.7A1.013,1.013,0,0,1,109.61,10.166Z" transform="translate(-0.609 -2.25)" fill="#4a4038"/></svg>