<svg xmlns="http://www.w3.org/2000/svg" width="25.881" height="21.57" viewBox="0 0 25.881 21.57"><g transform="translate(7.624 2.802)"><path d="M3913.5,579.337" transform="translate(-3913.5 -568.337)" fill="none" stroke="#ffffd6" stroke-linecap="round" stroke-linejoin="round" stroke-width="0.5"/><path d="M3922.35,579.337s-10.307,5.584-8.675,7.485,8.675,7.815,8.675,7.815" transform="translate(-3913.202 -579.337)" fill="none" stroke="#ffffd6" stroke-linecap="round" stroke-linejoin="round" stroke-width="0.5"/></g><g transform="translate(52.515)" fill="none"><path d="M-38.269,0A11.634,11.634,0,0,1-26.635,11.634c0,6.425-10.13,16.379-21.67,4.129S-44.694,0-38.269,0Z" stroke="none"/><path d="M -38.26890182495117 0.4999980926513672 C -40.15121078491211 0.4999980926513672 -43.13890075683594 0.8287982940673828 -45.87913131713867 1.751607894897461 C -47.97283172607422 2.456687927246094 -50.67222213745117 3.768688201904297 -51.64218902587891 6.014978408813477 C -52.71805191040039 8.506467819213867 -51.47269058227539 11.6708869934082 -47.94070053100586 15.42032814025879 C -46.09214019775391 17.38269805908203 -44.18955993652344 18.85704803466797 -42.28578948974609 19.80243682861328 C -40.59178924560547 20.64365768432617 -38.89105987548828 21.07019805908203 -37.23083114624023 21.07019805908203 C -34.52762985229492 21.07019805908203 -31.94272994995117 19.92156791687012 -29.95228958129883 17.83590698242188 C -28.21432876586914 16.0147876739502 -27.13468170166016 13.63844776153564 -27.13468170166016 11.63421821594238 C -27.13468170166016 8.660158157348633 -28.29283905029297 5.864118576049805 -30.39582061767578 3.761137008666992 C -32.49880218505859 1.658157348632812 -35.29484939575195 0.4999980926513672 -38.26890182495117 0.4999980926513672 M -38.26890182495117 -1.9073486328125e-06 C -31.84350967407227 -1.9073486328125e-06 -26.63468170166016 5.208818435668945 -26.63468170166016 11.63421821594238 C -26.63468170166016 15.84461212158203 -30.98501968383789 21.57019424438477 -37.23083114624023 21.57019424438477 C -40.51663208007812 21.57019424438477 -44.32668685913086 19.98604393005371 -48.30464935302734 15.76316833496094 C -59.84413909912109 3.513236999511719 -44.69429016113281 -1.9073486328125e-06 -38.26890182495117 -1.9073486328125e-06 Z" stroke="none" fill="#ffffd6"/></g></svg>