<svg xmlns="http://www.w3.org/2000/svg" width="67.361" height="32.633" viewBox="0 0 67.361 32.633"><path d="M-20.194,0A25.484,25.484,0,0,1,5.291,25.484c0,14.075-7.619,3.65-50.969,0S-34.268,0-20.194,0Z" transform="translate(62.07)" fill="#5966ef"/><path d="M.527,6.976a.434.434,0,0,1,.124-.284,1.636,1.636,0,0,1,.268-.247.791.791,0,0,1,.161-.1A1.064,1.064,0,0,1,.87,6.1.661.661,0,0,1,.8,5.77a.875.875,0,0,1,.075-.364.542.542,0,0,1,.261-.227A2.79,2.79,0,0,1,1.691,5l.568-.145a1.908,1.908,0,0,0-.4-.108,2.593,2.593,0,0,1-.474-.133,1.272,1.272,0,0,1-.458-.479A1.3,1.3,0,0,1,.762,3.5a1.2,1.2,0,0,1,.264-.765,1.711,1.711,0,0,1,.765-.523,3.379,3.379,0,0,1,1.189-.188,3.188,3.188,0,0,1,1.473.362l1.462-.312V3.176L4.831,2.832a1.011,1.011,0,0,1,.224.649,1.173,1.173,0,0,1-.238.7,1.667,1.667,0,0,1-.676.529,2.4,2.4,0,0,1-1.009.2H3.1l-.021,0a.062.062,0,0,1-.025,0H2.9q-.362,0-.362.234a.175.175,0,0,0,.075.133.216.216,0,0,0,.114.062l1.4.124a1.882,1.882,0,0,1,1.169.369.926.926,0,0,1,.271.646.911.911,0,0,1-.2.552,1.727,1.727,0,0,1-.591.474,2.867,2.867,0,0,1-.954.309,6.76,6.76,0,0,1-1.075.092,4.147,4.147,0,0,1-1.228-.153,2.232,2.232,0,0,1-.736-.36A.566.566,0,0,1,.527,6.976ZM2.805,2.41q-.2.014-.328.323a1.759,1.759,0,0,0-.133.7.847.847,0,0,0,.011.16,1.53,1.53,0,0,0,.193.688.519.519,0,0,0,.467.287q.536,0,.536-.713a2.517,2.517,0,0,0-.028-.376,2.23,2.23,0,0,0-.229-.758A.53.53,0,0,0,2.805,2.41ZM1.759,6.547a1.065,1.065,0,0,0,.03.259.641.641,0,0,0,.117.234.725.725,0,0,0,.257.2,1.845,1.845,0,0,0,.458.142,4.562,4.562,0,0,0,.83.082,1.919,1.919,0,0,0,.3-.021,1.979,1.979,0,0,0,.523-.128A.227.227,0,0,0,4.4,7.1a.23.23,0,0,0-.1-.2.652.652,0,0,0-.255-.1,3.448,3.448,0,0,0-.35-.041q-.2-.014-.468-.028Q2.915,6.7,2.44,6.651A5.361,5.361,0,0,1,1.759,6.547Zm6.635-.3a3.385,3.385,0,0,1-1.336-.238,1.883,1.883,0,0,1-.855-.69,1.943,1.943,0,0,1-.31-1.063,2.349,2.349,0,0,1,.122-.777,1.8,1.8,0,0,1,.362-.617,2.054,2.054,0,0,1,.594-.449,3.029,3.029,0,0,1,.805-.271,3.926,3.926,0,0,1,.784-.082,3.069,3.069,0,0,1,1.183.224,1.906,1.906,0,0,1,.868.7A2.1,2.1,0,0,1,10.938,4.2a1.847,1.847,0,0,1-.305,1.036,2.094,2.094,0,0,1-.884.738A3.178,3.178,0,0,1,8.394,6.249ZM8.117,2.4a.468.468,0,0,0-.442.257,1.411,1.411,0,0,0-.14.676,3.88,3.88,0,0,0,.153,1.008,4.338,4.338,0,0,0,.275.715,2.232,2.232,0,0,0,.381.571.6.6,0,0,0,.426.218A.5.5,0,0,0,9,5.777a.641.641,0,0,0,.218-.369,2.355,2.355,0,0,0,.08-.649,2.832,2.832,0,0,0-.167-.99Q8.653,2.4,8.117,2.4ZM13.83,6.249a3.385,3.385,0,0,1-1.336-.238,1.883,1.883,0,0,1-.855-.69,1.943,1.943,0,0,1-.31-1.063,2.349,2.349,0,0,1,.122-.777,1.8,1.8,0,0,1,.362-.617,2.054,2.054,0,0,1,.594-.449,3.029,3.029,0,0,1,.805-.271A3.926,3.926,0,0,1,14,2.062a3.069,3.069,0,0,1,1.183.224,1.906,1.906,0,0,1,.868.7A2.1,2.1,0,0,1,16.374,4.2a1.847,1.847,0,0,1-.305,1.036,2.094,2.094,0,0,1-.884.738A3.178,3.178,0,0,1,13.83,6.249ZM13.553,2.4a.468.468,0,0,0-.442.257,1.411,1.411,0,0,0-.14.676,3.88,3.88,0,0,0,.153,1.008,4.338,4.338,0,0,0,.275.715,2.232,2.232,0,0,0,.381.571.6.6,0,0,0,.426.218.5.5,0,0,0,.227-.064.641.641,0,0,0,.218-.369,2.355,2.355,0,0,0,.08-.649,2.832,2.832,0,0,0-.167-.99Q14.089,2.4,13.553,2.4ZM19,2.083a2.568,2.568,0,0,1,.472.044q.238.044.358.073a1.872,1.872,0,0,0-.133-.859q-.133-.224-.573-.224V.884L19.3.864l.142-.016A8.383,8.383,0,0,0,21.263.391l.22.1V4.947a1.1,1.1,0,0,0,.075.447.291.291,0,0,0,.295.163.909.909,0,0,0,.248-.043v.3l-2.051.415-.216-.1V5.646a1.63,1.63,0,0,1-.577.433,1.729,1.729,0,0,1-.726.156,1.679,1.679,0,0,1-1.577-.97,2.094,2.094,0,0,1-.2-.907,2.478,2.478,0,0,1,.165-.907,2.079,2.079,0,0,1,1.19-1.2A2.408,2.408,0,0,1,19,2.083Zm.83.727a.9.9,0,0,0-.27-.279.654.654,0,0,0-.373-.112.6.6,0,0,0-.463.188,1.088,1.088,0,0,0-.243.513,3.738,3.738,0,0,0-.071.786,6.543,6.543,0,0,0,.039.656,1.241,1.241,0,0,0,.277.722.7.7,0,0,0,.529.25.8.8,0,0,0,.389-.1q.186-.1.186-.137Zm6.007-.2h-.472V2.427a3.116,3.116,0,0,0,.511-.172,2.94,2.94,0,0,0,.571-.318,2.033,2.033,0,0,0,.766-.908h.273V2.193h1.3l-.131.422H27.49V4.993a.71.71,0,0,0,.114.438.355.355,0,0,0,.295.147.733.733,0,0,0,.412-.149,1.281,1.281,0,0,0,.358-.373l.248.209a1.742,1.742,0,0,1-.452.552,1.807,1.807,0,0,1-.61.316,2.578,2.578,0,0,1-.74.1,1.432,1.432,0,0,1-.942-.277.872.872,0,0,1-.332-.7Zm5.5,3.509q-.28-.035-.655-.059t-.761-.023a12.557,12.557,0,0,0-1.366.082V5.756a.852.852,0,0,0,.121.014.441.441,0,0,0,.362-.181.9.9,0,0,0,.142-.561V1.618a.328.328,0,0,0-.108-.259,1.863,1.863,0,0,0-.516-.241V.884A8.143,8.143,0,0,0,29.889.625q.394-.106.734-.234l.206.1V2.686a3.672,3.672,0,0,1,.743-.436,1.968,1.968,0,0,1,.8-.188,1.088,1.088,0,0,1,.777.287,1.223,1.223,0,0,1,.362.781,3.8,3.8,0,0,1,.046.6q0,.422-.053,1.49a.618.618,0,0,0,.114.4.371.371,0,0,0,.3.138.459.459,0,0,0,.153-.025v.387a10.073,10.073,0,0,0-1.3-.082,10.217,10.217,0,0,0-1.316.082V5.748a.356.356,0,0,0,.355-.234,3.19,3.19,0,0,0,.124-.951q.014-.44.014-.511A5.467,5.467,0,0,0,31.9,3.4a.641.641,0,0,0-.193-.424.554.554,0,0,0-.374-.137.94.94,0,0,0-.507.16v2.03a1.329,1.329,0,0,0,.087.564.294.294,0,0,0,.282.17,1.157,1.157,0,0,0,.138-.014Zm3.75-2.033a1.63,1.63,0,0,1,.224-.083l.722-.25.676-.234V2.956a.755.755,0,0,0-.08-.4.317.317,0,0,0-.286-.121.406.406,0,0,0-.319.131.453.453,0,0,0-.117.312.578.578,0,0,0,.089.3l-1.409.571a1.159,1.159,0,0,1-.053-.348.963.963,0,0,1,.295-.706,1.859,1.859,0,0,1,.805-.445,4.081,4.081,0,0,1,1.111-.158,2.284,2.284,0,0,1,.892.151,1.079,1.079,0,0,1,.522.431,1.263,1.263,0,0,1,.169.664V5.2q0,.415.17.415a.756.756,0,0,0,.319-.131l.2.2a1.464,1.464,0,0,1-.55.378,1.751,1.751,0,0,1-.706.169,1.546,1.546,0,0,1-.415-.06,1.174,1.174,0,0,1-.387-.186.585.585,0,0,1-.224-.3,1.7,1.7,0,0,1-.408.348,1.523,1.523,0,0,1-.82.177q-1.274,0-1.274-1a2.057,2.057,0,0,1,.069-.47.794.794,0,0,1,.243-.357A1.546,1.546,0,0,1,35.087,4.091Zm1.622-.284q0-.014-.007-.014a.861.861,0,0,0-.176.043.949.949,0,0,0-.561.538,1.619,1.619,0,0,0-.122.683.613.613,0,0,0,.124.429.475.475,0,0,0,.362.131.417.417,0,0,0,.38-.16Zm2.164,2.317-.014-.362a.714.714,0,0,0,.174.021.447.447,0,0,0,.362-.181A.973.973,0,0,0,39.54,5V3.47a1.309,1.309,0,0,0-.03-.351.246.246,0,0,0-.144-.14,5.092,5.092,0,0,0-.507-.169V2.573q.394-.035.717-.1t.671-.153a6.872,6.872,0,0,0,.734-.241l.2.089v.507a2.783,2.783,0,0,1,1.5-.624,1.163,1.163,0,0,1,.616.174,1.186,1.186,0,0,1,.449.507,1.774,1.774,0,0,1,.163.788l-.021,1.5q0,.756.376.756a.731.731,0,0,0,.185-.028v.376a12.012,12.012,0,0,0-1.331-.082,11.4,11.4,0,0,0-1.3.082V5.748A.438.438,0,0,0,42.04,5.7a.371.371,0,0,0,.142-.2,1.749,1.749,0,0,0,.08-.429q.025-.28.025-.774a5.583,5.583,0,0,0-.057-.93.719.719,0,0,0-.176-.4.466.466,0,0,0-.349-.137,1,1,0,0,0-.522.174v2.03a2.431,2.431,0,0,0,.027.389.506.506,0,0,0,.106.254.278.278,0,0,0,.222.092,1.186,1.186,0,0,0,.131-.014v.369a12.015,12.015,0,0,0-2.8,0Zm8.136,0a11.813,11.813,0,0,0-1.331-.082,12.039,12.039,0,0,0-1.334.082V5.763a.615.615,0,0,0,.467-.135.687.687,0,0,0,.144-.4l0-.341q0-.337,0-.855V1.75a.608.608,0,0,0-.112-.4.929.929,0,0,0-.506-.209V.884A8.722,8.722,0,0,0,46.413.412l.2.075V3.879l1.409-.915a.26.26,0,0,0,.094-.092.223.223,0,0,0,.037-.117q0-.174-.358-.174V2.193a10.366,10.366,0,0,0,1.04.057,10.015,10.015,0,0,0,1.033-.057v.38a1.778,1.778,0,0,0-.522.06,2.938,2.938,0,0,0-.61.344L48,3.442,49.33,5.326q.11.145.185.227a.716.716,0,0,0,.532.216v.355a12.724,12.724,0,0,0-2.878,0V5.777q.312,0,.312-.167a.624.624,0,0,0-.138-.323L46.612,4.2v.937q0,.621.4.621Zm3.161.1L50.1,4.982h.358a1.007,1.007,0,0,0,.309.6.881.881,0,0,0,.649.277.589.589,0,0,0,.351-.106.339.339,0,0,0,.149-.291.466.466,0,0,0-.165-.334,5.48,5.48,0,0,0-.655-.49,2.7,2.7,0,0,1-.733-.671,1.23,1.23,0,0,1-.218-.7,1.156,1.156,0,0,1,.165-.6,1.174,1.174,0,0,1,.5-.449,1.758,1.758,0,0,1,.8-.169,4.841,4.841,0,0,1,1.512.305l-.007,1h-.334a1.132,1.132,0,0,0-.245-.607.69.69,0,0,0-.525-.3.414.414,0,0,0-.289.1.328.328,0,0,0-.112.254.425.425,0,0,0,.059.22,1.145,1.145,0,0,0,.25.257,6.492,6.492,0,0,0,.543.389,2.47,2.47,0,0,1,.664.554,1.1,1.1,0,0,1,.231.7,1.231,1.231,0,0,1-.177.63,1.311,1.311,0,0,1-.527.491,1.708,1.708,0,0,1-.821.188,3.728,3.728,0,0,1-.672-.073q-.389-.073-.4-.073a.207.207,0,0,0-.227.138Zm4.549.014A1.072,1.072,0,0,1,54,6.011a.726.726,0,0,1-.279-.554.733.733,0,0,1,.122-.408.844.844,0,0,1,.349-.3,1.157,1.157,0,0,1,.511-.11,1.22,1.22,0,0,1,.5.1.861.861,0,0,1,.362.287.706.706,0,0,1,.133.42A.743.743,0,0,1,55.445,6,1.008,1.008,0,0,1,54.719,6.242Z" transform="translate(10.662 12.8)" fill="#ffffd6"/></svg>