<svg xmlns="http://www.w3.org/2000/svg" width="225.627" height="109.304" viewBox="0 0 225.627 109.304"><g transform="translate(62.07)" fill="rgba(84,141,138,0.66)"><path d="M 147.4475708007812 108.8042449951172 C 139.7443237304688 108.8042449951172 128.4481964111328 106.4150772094727 112.8137359619141 103.1083297729492 C 99.93836212158203 100.3851165771484 83.91452789306641 96.99603271484375 64.14868927001953 93.70565795898438 C 40.90660858154297 89.83657836914062 17.59348297119141 86.94403839111328 -7.12280797958374 84.86270141601562 C -26.27580833435059 83.24987030029297 -40.6013069152832 80.48311614990234 -49.70130920410156 76.6392822265625 C -53.87497329711914 74.87636566162109 -56.98989105224609 72.86649322509766 -58.95955657958984 70.66553497314453 C -60.78734970092773 68.62311553955078 -61.66284942626953 66.36862182617188 -61.56185150146484 63.96466064453125 C -61.43614196777344 60.97386932373047 -59.81451797485352 57.66044998168945 -56.74205780029297 54.11649322509766 C -53.83497619628906 50.76332473754883 -49.61334991455078 47.18511962890625 -44.19443130493164 43.48132705688477 C -34.306640625 36.72311782836914 -20.4427661895752 29.5573673248291 -4.10159969329834 22.75886726379395 C 10.81702518463135 16.55220222473145 27.2608585357666 10.90078449249268 42.20073318481445 6.845743179321289 C 49.61652374267578 4.832951545715332 56.4550666809082 3.263701438903809 62.52644348144531 2.181659698486328 C 68.78756713867188 1.065784692764282 74.05960845947266 0.4999930560588837 78.19618988037109 0.4999930560588837 C 83.95423126220703 0.4999930560588837 89.70848083496094 1.080076336860657 95.29914855957031 2.224076271057129 C 100.7474822998047 3.338951349258423 106.1066513061523 5.002534866333008 111.2277297973633 7.168576240539551 C 116.2559814453125 9.295368194580078 121.1057739257812 11.92774295806885 125.6424026489258 14.9926176071167 C 130.1360626220703 18.02845191955566 134.3616943359375 21.51495170593262 138.2019348144531 25.35520172119141 C 142.0421905517578 29.1954517364502 145.5286865234375 33.42107772827148 148.5645294189453 37.91474151611328 C 151.62939453125 42.45136642456055 154.2617797851562 47.3011589050293 156.3885650634766 52.32941055297852 C 158.5546112060547 57.45049285888672 160.2181854248047 62.80965805053711 161.3330688476562 68.25799560546875 C 162.4770660400391 73.84866333007812 163.0571441650391 79.60291290283203 163.0571441650391 85.36095428466797 C 163.0571441650391 94.61090850830078 162.0377349853516 100.2838668823242 159.7517395019531 103.7551193237305 C 158.5789489746094 105.5359954833984 157.0334777832031 106.7973709106445 155.0270690917969 107.6113662719727 C 153.0484466552734 108.4140319824219 150.5691986083984 108.8042449951172 147.4475708007812 108.8042449951172 Z" stroke="none"/><path d="M 78.1961669921875 1 C 61.56879043579102 1 27.03833198547363 10.34507751464844 -3.909584045410156 23.22053527832031 C -20.21958541870117 30.00607299804688 -34.05233383178711 37.1549072265625 -43.91229248046875 43.89411926269531 C -49.29583358764648 47.57374572753906 -53.48525238037109 51.12319946289062 -56.36429595947266 54.44403839111328 C -59.36079406738281 57.90041351318359 -60.94145965576172 61.11065673828125 -61.06229400634766 63.98565673828125 C -61.15900421142578 66.286865234375 -60.34933471679688 68.36282348632812 -58.58695983886719 70.33207702636719 C -56.66691589355469 72.47761535644531 -53.61187744140625 74.4447021484375 -49.50675201416016 76.17869567871094 C -40.45537567138672 80.001953125 -26.18125152587891 82.75607299804688 -7.080835342407227 84.36449432373047 C 17.64904022216797 86.44695281982422 40.97528839111328 89.34115600585938 64.23078918457031 93.21244812011719 C 84.00733184814453 96.50462341308594 100.0370788574219 99.89495086669922 112.9172058105469 102.6191558837891 C 128.5219116210938 105.9196166992188 139.7965850830078 108.3042449951172 147.4475402832031 108.3042449951172 C 150.5034942626953 108.3042449951172 152.9212951660156 107.9260330200195 154.8390350341797 107.1480331420898 C 156.74853515625 106.3733673095703 158.2188720703125 105.1736145019531 159.3341217041016 103.4801635742188 C 161.5631256103516 100.0954513549805 162.55712890625 94.50728607177734 162.55712890625 85.36094665527344 C 162.55712890625 79.63653564453125 161.9804534912109 73.91595458984375 160.8432006835938 68.35820007324219 C 159.7349090576172 62.94224548339844 158.0812072753906 57.6148681640625 155.9280395507812 52.52416229248047 C 153.8138275146484 47.52565765380859 151.1970062255859 42.70449066162109 148.1501617431641 38.19465637207031 C 145.1321716308594 33.72737121582031 141.6661224365234 29.5264892578125 137.8483734130859 25.708740234375 C 134.0306243896484 21.8909912109375 129.8297424316406 18.42494964599609 125.3624572753906 15.40695190429688 C 120.8526229858398 12.36011505126953 116.0314559936523 9.7432861328125 111.032958984375 7.629074096679688 C 105.9422454833984 5.475906372070312 100.614875793457 3.82220458984375 95.19891357421875 2.713912963867188 C 89.64116668701172 1.57666015625 83.92058563232422 1 78.1961669921875 1 M 78.1961669921875 0 C 125.3397064208984 0 163.55712890625 38.2174072265625 163.55712890625 85.36094665527344 C 163.55712890625 103.2210540771484 159.8927459716797 109.3042373657227 147.4475555419922 109.3042373657227 C 127.0424118041992 109.3042373657227 83.02881622314453 92.95601654052734 -7.164751052856445 85.36094665527344 C -152.3678283691406 73.13357543945312 31.0526237487793 0 78.1961669921875 0 Z" stroke="none" fill="#ffffd6"/></g><path d="M.527,22.449A1.452,1.452,0,0,1,.943,21.5a5.481,5.481,0,0,1,.9-.826,2.65,2.65,0,0,1,.541-.351,3.565,3.565,0,0,1-.707-.82,2.213,2.213,0,0,1-.22-1.093A2.931,2.931,0,0,1,1.7,17.19a1.816,1.816,0,0,1,.874-.761,9.347,9.347,0,0,1,1.848-.6l1.9-.487a6.39,6.39,0,0,0-1.337-.362A8.684,8.684,0,0,1,3.4,14.534a4.26,4.26,0,0,1-1.533-1.6,4.356,4.356,0,0,1-.559-2.139A4.025,4.025,0,0,1,2.2,8.229,5.731,5.731,0,0,1,4.758,6.476a11.318,11.318,0,0,1,3.981-.63,10.678,10.678,0,0,1,4.932,1.212l4.9-1.046V9.72L14.944,8.567a3.388,3.388,0,0,1,.749,2.175,3.929,3.929,0,0,1-.8,2.347,5.585,5.585,0,0,1-2.264,1.771,8.049,8.049,0,0,1-3.381.671H9.132a.433.433,0,0,0-.071.006.206.206,0,0,1-.083-.006H8.466q-1.212,0-1.212.784a.586.586,0,0,0,.25.446.725.725,0,0,0,.38.208l4.695.416q3.007.261,3.916,1.236a3.1,3.1,0,0,1,.909,2.163,3.052,3.052,0,0,1-.671,1.848,5.785,5.785,0,0,1-1.979,1.587,9.6,9.6,0,0,1-3.2,1.034,22.644,22.644,0,0,1-3.6.309,13.892,13.892,0,0,1-4.112-.511,7.475,7.475,0,0,1-2.466-1.206A1.894,1.894,0,0,1,.527,22.449Zm7.63-15.3Q7.5,7.2,7.058,8.235a5.893,5.893,0,0,0-.446,2.353,2.836,2.836,0,0,0,.036.535A5.123,5.123,0,0,0,7.3,13.428a1.738,1.738,0,0,0,1.563.963q1.795,0,1.795-2.389a8.429,8.429,0,0,0-.1-1.26A7.47,7.47,0,0,0,9.792,8.2,1.774,1.774,0,0,0,8.157,7.153ZM4.651,21.011a3.569,3.569,0,0,0,.1.868,2.148,2.148,0,0,0,.392.784,2.427,2.427,0,0,0,.862.666,6.178,6.178,0,0,0,1.533.475,15.28,15.28,0,0,0,2.781.273,6.426,6.426,0,0,0,1-.071,6.627,6.627,0,0,0,1.753-.428.76.76,0,0,0,.434-.725.77.77,0,0,0-.351-.677,2.183,2.183,0,0,0-.856-.327,11.55,11.55,0,0,0-1.171-.137q-.666-.048-1.569-.1-1.034-.083-2.627-.256A17.955,17.955,0,0,1,4.651,21.011Zm22.225-1a11.339,11.339,0,0,1-4.475-.8A6.307,6.307,0,0,1,19.537,16.9a6.506,6.506,0,0,1-1.04-3.56,7.867,7.867,0,0,1,.41-2.6A6.013,6.013,0,0,1,20.12,8.674a6.881,6.881,0,0,1,1.991-1.5,10.145,10.145,0,0,1,2.7-.909,13.151,13.151,0,0,1,2.627-.273,10.281,10.281,0,0,1,3.964.749A6.383,6.383,0,0,1,34.3,9.1,7.047,7.047,0,0,1,35.4,13.143a6.188,6.188,0,0,1-1.022,3.47,7.014,7.014,0,0,1-2.959,2.472A10.645,10.645,0,0,1,26.876,20.013ZM25.949,7.106a1.569,1.569,0,0,0-1.48.862A4.725,4.725,0,0,0,24,10.231a13,13,0,0,0,.511,3.375A14.53,14.53,0,0,0,25.432,16a7.477,7.477,0,0,0,1.278,1.913,2.008,2.008,0,0,0,1.426.731,1.686,1.686,0,0,0,.761-.214,2.148,2.148,0,0,0,.731-1.236,7.888,7.888,0,0,0,.267-2.175,9.486,9.486,0,0,0-.559-3.316Q27.744,7.106,25.949,7.106ZM45.084,20.013a11.339,11.339,0,0,1-4.475-.8A6.307,6.307,0,0,1,37.745,16.9a6.507,6.507,0,0,1-1.04-3.56,7.867,7.867,0,0,1,.41-2.6,6.013,6.013,0,0,1,1.212-2.068,6.881,6.881,0,0,1,1.991-1.5,10.145,10.145,0,0,1,2.7-.909,13.151,13.151,0,0,1,2.627-.273,10.281,10.281,0,0,1,3.964.749A6.383,6.383,0,0,1,52.512,9.1a7.047,7.047,0,0,1,1.093,4.047,6.188,6.188,0,0,1-1.022,3.47,7.014,7.014,0,0,1-2.959,2.472A10.645,10.645,0,0,1,45.084,20.013ZM44.157,7.106a1.569,1.569,0,0,0-1.48.862,4.725,4.725,0,0,0-.469,2.264,13,13,0,0,0,.511,3.375A14.53,14.53,0,0,0,43.64,16a7.477,7.477,0,0,0,1.278,1.913,2.008,2.008,0,0,0,1.426.731,1.686,1.686,0,0,0,.761-.214,2.148,2.148,0,0,0,.731-1.236,7.888,7.888,0,0,0,.267-2.175,9.486,9.486,0,0,0-.559-3.316Q45.951,7.106,44.157,7.106ZM62.412,6.06a8.6,8.6,0,0,1,1.581.149q.8.149,1.2.244a6.269,6.269,0,0,0-.446-2.876q-.446-.749-1.919-.749V2.043q.392-.048.594-.065t.475-.053A28.081,28.081,0,0,0,69.983.391l.737.345V15.651a3.675,3.675,0,0,0,.25,1.5.976.976,0,0,0,.986.547,3.044,3.044,0,0,0,.832-.143v1l-6.869,1.391-.725-.345v-1.6a5.46,5.46,0,0,1-1.931,1.45,5.79,5.79,0,0,1-2.43.523,5.623,5.623,0,0,1-5.283-3.251,7.014,7.014,0,0,1-.683-3.037,8.3,8.3,0,0,1,.553-3.037,6.963,6.963,0,0,1,3.987-4.029A8.067,8.067,0,0,1,62.412,6.06ZM65.193,8.5a3.027,3.027,0,0,0-.9-.933,2.192,2.192,0,0,0-1.248-.374,2,2,0,0,0-1.551.63,3.643,3.643,0,0,0-.814,1.717,12.522,12.522,0,0,0-.238,2.633,21.916,21.916,0,0,0,.131,2.2,4.156,4.156,0,0,0,.927,2.419,2.326,2.326,0,0,0,1.771.838,2.692,2.692,0,0,0,1.3-.339q.624-.339.624-.458Zm20.121-.654H83.734v-.63a10.438,10.438,0,0,0,1.711-.576,9.846,9.846,0,0,0,1.913-1.064A6.809,6.809,0,0,0,89.926,2.53h.915v3.9H95.2l-.44,1.414H90.841v7.963a2.379,2.379,0,0,0,.38,1.468,1.189,1.189,0,0,0,.986.493,2.456,2.456,0,0,0,1.379-.5,4.292,4.292,0,0,0,1.2-1.248l.832.7A5.835,5.835,0,0,1,94.1,18.569a6.054,6.054,0,0,1-2.044,1.058,8.635,8.635,0,0,1-2.478.339,4.8,4.8,0,0,1-3.155-.927A2.92,2.92,0,0,1,85.314,16.7ZM103.724,19.6q-.939-.119-2.193-.2t-2.549-.077a42.059,42.059,0,0,0-4.576.273V18.361a2.853,2.853,0,0,0,.4.048,1.476,1.476,0,0,0,1.212-.606,3.031,3.031,0,0,0,.475-1.878V4.5a1.1,1.1,0,0,0-.363-.868,6.239,6.239,0,0,0-1.729-.808V2.043a27.276,27.276,0,0,0,4.469-.868q1.319-.357,2.46-.784l.689.345V8.08a12.3,12.3,0,0,1,2.49-1.462,6.592,6.592,0,0,1,2.692-.63,3.644,3.644,0,0,1,2.6.963,4.1,4.1,0,0,1,1.212,2.615,12.742,12.742,0,0,1,.155,2.02q0,1.414-.178,4.992a2.071,2.071,0,0,0,.38,1.343,1.241,1.241,0,0,0,1.01.464,1.536,1.536,0,0,0,.511-.083v1.3a33.738,33.738,0,0,0-4.35-.273,34.221,34.221,0,0,0-4.409.273v-1.26a1.193,1.193,0,0,0,1.188-.784,10.684,10.684,0,0,0,.416-3.185q.048-1.474.048-1.711a18.311,18.311,0,0,0-.166-2.187,2.147,2.147,0,0,0-.648-1.42,1.854,1.854,0,0,0-1.254-.458,3.149,3.149,0,0,0-1.7.535v6.8a4.452,4.452,0,0,0,.291,1.89.986.986,0,0,0,.945.57,3.874,3.874,0,0,0,.464-.048Zm12.562-6.81a5.459,5.459,0,0,1,.749-.279q.749-.256,2.419-.838t2.264-.784v-1.9a2.529,2.529,0,0,0-.267-1.343,1.062,1.062,0,0,0-.957-.4,1.36,1.36,0,0,0-1.07.44,1.519,1.519,0,0,0-.392,1.046,1.937,1.937,0,0,0,.3,1l-4.718,1.913a3.883,3.883,0,0,1-.178-1.165,3.226,3.226,0,0,1,.986-2.365,6.226,6.226,0,0,1,2.7-1.492,13.67,13.67,0,0,1,3.72-.529,7.65,7.65,0,0,1,2.989.505,3.613,3.613,0,0,1,1.747,1.444,4.232,4.232,0,0,1,.565,2.222v6.251q0,1.391.57,1.391a2.533,2.533,0,0,0,1.07-.44l.654.677a4.9,4.9,0,0,1-1.842,1.266,5.864,5.864,0,0,1-2.365.565,5.177,5.177,0,0,1-1.391-.2,3.931,3.931,0,0,1-1.3-.624,1.96,1.96,0,0,1-.749-1,5.683,5.683,0,0,1-1.367,1.165,5.1,5.1,0,0,1-2.745.594q-4.267,0-4.267-3.363a6.89,6.89,0,0,1,.232-1.575,2.659,2.659,0,0,1,.814-1.194A5.179,5.179,0,0,1,116.286,12.787Zm5.431-.951q0-.048-.024-.048a2.885,2.885,0,0,0-.588.143,3.177,3.177,0,0,0-1.878,1.8,5.424,5.424,0,0,0-.41,2.288,2.052,2.052,0,0,0,.416,1.438,1.59,1.59,0,0,0,1.212.44,1.4,1.4,0,0,0,1.272-.535Zm7.25,7.761-.048-1.212a2.392,2.392,0,0,0,.582.071,1.5,1.5,0,0,0,1.212-.606,3.259,3.259,0,0,0,.487-2.02V10.707a4.384,4.384,0,0,0-.1-1.177.825.825,0,0,0-.481-.469,17.057,17.057,0,0,0-1.7-.565V7.7q1.319-.119,2.4-.321t2.246-.511a23.018,23.018,0,0,0,2.46-.808l.677.3v1.7a9.323,9.323,0,0,1,5.015-2.092,3.9,3.9,0,0,1,2.062.582,3.972,3.972,0,0,1,1.5,1.7,5.942,5.942,0,0,1,.547,2.638l-.071,5.015q0,2.531,1.26,2.531a2.45,2.45,0,0,0,.618-.1V19.6a40.236,40.236,0,0,0-4.457-.273,38.191,38.191,0,0,0-4.362.273v-1.26a1.468,1.468,0,0,0,.755-.172,1.242,1.242,0,0,0,.475-.671,5.857,5.857,0,0,0,.267-1.438q.083-.939.083-2.591a18.7,18.7,0,0,0-.19-3.114,2.409,2.409,0,0,0-.588-1.325,1.561,1.561,0,0,0-1.171-.458,3.359,3.359,0,0,0-1.747.582v6.8a8.142,8.142,0,0,0,.089,1.3,1.693,1.693,0,0,0,.357.85.93.93,0,0,0,.743.309,3.971,3.971,0,0,0,.44-.048V19.6a40.244,40.244,0,0,0-9.365,0Zm27.252,0a39.567,39.567,0,0,0-4.457-.273,40.326,40.326,0,0,0-4.469.273V18.384a2.061,2.061,0,0,0,1.563-.452,2.3,2.3,0,0,0,.481-1.331l.012-1.141q0-1.129.012-2.864V4.943a2.035,2.035,0,0,0-.374-1.343,3.111,3.111,0,0,0-1.694-.7V2.043A29.216,29.216,0,0,0,154.223.462l.666.25V12.073l4.718-3.066a.87.87,0,0,0,.315-.309.746.746,0,0,0,.125-.392q0-.582-1.2-.582v-1.3a34.72,34.72,0,0,0,3.482.19,33.544,33.544,0,0,0,3.459-.19V7.7a5.955,5.955,0,0,0-1.747.2A9.839,9.839,0,0,0,162,9.055l-2.46,1.557,4.457,6.311q.368.487.618.761a2.4,2.4,0,0,0,1.783.725V19.6a42.62,42.62,0,0,0-9.639,0V18.432q1.046,0,1.046-.559a2.091,2.091,0,0,0-.464-1.082l-2.448-3.649v3.138q0,2.08,1.331,2.08Zm10.589.345-.25-4.172h1.2a3.374,3.374,0,0,0,1.034,2.02,2.952,2.952,0,0,0,2.175.927,1.971,1.971,0,0,0,1.177-.357,1.134,1.134,0,0,0,.5-.975,1.56,1.56,0,0,0-.553-1.117,18.356,18.356,0,0,0-2.193-1.64,9.043,9.043,0,0,1-2.454-2.246,4.118,4.118,0,0,1-.731-2.353,3.873,3.873,0,0,1,.553-2,3.932,3.932,0,0,1,1.664-1.5,5.888,5.888,0,0,1,2.692-.565,16.214,16.214,0,0,1,5.063,1.022l-.024,3.34h-1.117a3.793,3.793,0,0,0-.82-2.032,2.31,2.31,0,0,0-1.759-1.01,1.388,1.388,0,0,0-.969.339,1.1,1.1,0,0,0-.374.85,1.424,1.424,0,0,0,.2.737,3.836,3.836,0,0,0,.838.862,21.747,21.747,0,0,0,1.818,1.3,8.274,8.274,0,0,1,2.222,1.854,3.671,3.671,0,0,1,.773,2.353,4.123,4.123,0,0,1-.594,2.11,4.39,4.39,0,0,1-1.765,1.646,5.723,5.723,0,0,1-2.751.63,12.486,12.486,0,0,1-2.252-.244q-1.3-.244-1.349-.244a.693.693,0,0,0-.761.464Zm15.236.048a3.591,3.591,0,0,1-2.407-.773,2.431,2.431,0,0,1-.933-1.854,2.457,2.457,0,0,1,.41-1.367,2.826,2.826,0,0,1,1.171-1A3.875,3.875,0,0,1,182,14.629a4.085,4.085,0,0,1,1.67.339,2.884,2.884,0,0,1,1.212.963,2.364,2.364,0,0,1,.446,1.408,2.488,2.488,0,0,1-.85,1.836A3.375,3.375,0,0,1,182.045,19.989Z" transform="translate(40.301 40.442)" fill="#ffffd6"/></svg>