<svg xmlns="http://www.w3.org/2000/svg" width="225.627" height="109.304" viewBox="0 0 225.627 109.304"><g transform="translate(62.07)" fill="#6fb1aa"><path d="M 147.4475708007812 108.8042449951172 C 139.7443237304688 108.8042449951172 128.4481964111328 106.4150772094727 112.8137359619141 103.1083297729492 C 99.93836212158203 100.3851165771484 83.91452789306641 96.99603271484375 64.14868927001953 93.70565795898438 C 40.90660858154297 89.83657836914062 17.59348297119141 86.94403839111328 -7.12280797958374 84.86270141601562 C -26.27580833435059 83.24987030029297 -40.6013069152832 80.48311614990234 -49.70130920410156 76.6392822265625 C -53.87497329711914 74.87636566162109 -56.98989105224609 72.86649322509766 -58.95955657958984 70.66553497314453 C -60.78734970092773 68.62311553955078 -61.66284942626953 66.36862182617188 -61.56185150146484 63.96466064453125 C -61.43614196777344 60.97386932373047 -59.81451797485352 57.66044998168945 -56.74205780029297 54.11649322509766 C -53.83497619628906 50.76332473754883 -49.61334991455078 47.18511962890625 -44.19443130493164 43.48132705688477 C -34.306640625 36.72311782836914 -20.4427661895752 29.5573673248291 -4.10159969329834 22.75886726379395 C 10.81702518463135 16.55220222473145 27.2608585357666 10.90078449249268 42.20073318481445 6.845743179321289 C 49.61652374267578 4.832951545715332 56.4550666809082 3.263701438903809 62.52644348144531 2.181659698486328 C 68.78756713867188 1.065784692764282 74.05960845947266 0.4999930560588837 78.19618988037109 0.4999930560588837 C 83.95423126220703 0.4999930560588837 89.70848083496094 1.080076336860657 95.29914855957031 2.224076271057129 C 100.7474822998047 3.338951349258423 106.1066513061523 5.002534866333008 111.2277297973633 7.168576240539551 C 116.2559814453125 9.295368194580078 121.1057739257812 11.92774295806885 125.6424026489258 14.9926176071167 C 130.1360626220703 18.02845191955566 134.3616943359375 21.51495170593262 138.2019348144531 25.35520172119141 C 142.0421905517578 29.1954517364502 145.5286865234375 33.42107772827148 148.5645294189453 37.91474151611328 C 151.62939453125 42.45136642456055 154.2617797851562 47.3011589050293 156.3885650634766 52.32941055297852 C 158.5546112060547 57.45049285888672 160.2181854248047 62.80965805053711 161.3330688476562 68.25799560546875 C 162.4770660400391 73.84866333007812 163.0571441650391 79.60291290283203 163.0571441650391 85.36095428466797 C 163.0571441650391 94.61090850830078 162.0377349853516 100.2838668823242 159.7517395019531 103.7551193237305 C 158.5789489746094 105.5359954833984 157.0334777832031 106.7973709106445 155.0270690917969 107.6113662719727 C 153.0484466552734 108.4140319824219 150.5691986083984 108.8042449951172 147.4475708007812 108.8042449951172 Z" stroke="none"/><path d="M 78.1961669921875 1 C 61.56879043579102 1 27.03833198547363 10.34507751464844 -3.909584045410156 23.22053527832031 C -20.21958541870117 30.00607299804688 -34.05233383178711 37.1549072265625 -43.91229248046875 43.89411926269531 C -49.29583358764648 47.57374572753906 -53.48525238037109 51.12319946289062 -56.36429595947266 54.44403839111328 C -59.36079406738281 57.90041351318359 -60.94145965576172 61.11065673828125 -61.06229400634766 63.98565673828125 C -61.15900421142578 66.286865234375 -60.34933471679688 68.36282348632812 -58.58695983886719 70.33207702636719 C -56.66691589355469 72.47761535644531 -53.61187744140625 74.4447021484375 -49.50675201416016 76.17869567871094 C -40.45537567138672 80.001953125 -26.18125152587891 82.75607299804688 -7.080835342407227 84.36449432373047 C 17.64904022216797 86.44695281982422 40.97528839111328 89.34115600585938 64.23078918457031 93.21244812011719 C 84.00733184814453 96.50462341308594 100.0370788574219 99.89495086669922 112.9172058105469 102.6191558837891 C 128.5219116210938 105.9196166992188 139.7965850830078 108.3042449951172 147.4475402832031 108.3042449951172 C 150.5034942626953 108.3042449951172 152.9212951660156 107.9260330200195 154.8390350341797 107.1480331420898 C 156.74853515625 106.3733673095703 158.2188720703125 105.1736145019531 159.3341217041016 103.4801635742188 C 161.5631256103516 100.0954513549805 162.55712890625 94.50728607177734 162.55712890625 85.36094665527344 C 162.55712890625 79.63653564453125 161.9804534912109 73.91595458984375 160.8432006835938 68.35820007324219 C 159.7349090576172 62.94224548339844 158.0812072753906 57.6148681640625 155.9280395507812 52.52416229248047 C 153.8138275146484 47.52565765380859 151.1970062255859 42.70449066162109 148.1501617431641 38.19465637207031 C 145.1321716308594 33.72737121582031 141.6661224365234 29.5264892578125 137.8483734130859 25.708740234375 C 134.0306243896484 21.8909912109375 129.8297424316406 18.42494964599609 125.3624572753906 15.40695190429688 C 120.8526229858398 12.36011505126953 116.0314559936523 9.7432861328125 111.032958984375 7.629074096679688 C 105.9422454833984 5.475906372070312 100.614875793457 3.82220458984375 95.19891357421875 2.713912963867188 C 89.64116668701172 1.57666015625 83.92058563232422 1 78.1961669921875 1 M 78.1961669921875 0 C 125.3397064208984 0 163.55712890625 38.2174072265625 163.55712890625 85.36094665527344 C 163.55712890625 103.2210540771484 159.8927459716797 109.3042373657227 147.4475555419922 109.3042373657227 C 127.0424118041992 109.3042373657227 83.02881622314453 92.95601654052734 -7.164751052856445 85.36094665527344 C -152.3678283691406 73.13357543945312 31.0526237487793 0 78.1961669921875 0 Z" stroke="none" fill="#ffffd6"/></g></svg>