<svg id="logoutBtn" xmlns="http://www.w3.org/2000/svg" width="375" height="84" viewBox="0 0 375 84">
  <rect id="Rechteck_140" data-name="Rechteck 140" width="375" height="84" rx="15" fill="#a9f6e7"/>
  <path id="Pfad_201" data-name="Pfad 201" d="M10.194,21a50.767,50.767,0,0,0-5.205-.292A50.451,50.451,0,0,0-.178,21V19.68a1.886,1.886,0,0,0,.5.051,1.476,1.476,0,0,0,1.295-.7,3.591,3.591,0,0,0,.47-2V4.877a1.323,1.323,0,0,0-.146-.654,1.409,1.409,0,0,0-.584-.5,13.957,13.957,0,0,0-1.53-.641V2.249A31.354,31.354,0,0,0,7.249.484l.736.368V17.128a3.285,3.285,0,0,0,.482,2.025,1.462,1.462,0,0,0,1.181.6,1.734,1.734,0,0,0,.546-.076Zm12.525.444a12.112,12.112,0,0,1-4.78-.851,6.737,6.737,0,0,1-3.06-2.469,6.95,6.95,0,0,1-1.111-3.8,8.4,8.4,0,0,1,.438-2.78A6.423,6.423,0,0,1,15.5,9.333a7.35,7.35,0,0,1,2.126-1.606,10.837,10.837,0,0,1,2.882-.971,14.048,14.048,0,0,1,2.806-.292,10.982,10.982,0,0,1,4.234.8,6.818,6.818,0,0,1,3.1,2.52,7.527,7.527,0,0,1,1.168,4.323,6.609,6.609,0,0,1-1.092,3.707,7.492,7.492,0,0,1-3.161,2.641A11.371,11.371,0,0,1,22.719,21.444Zm-.99-13.787a1.676,1.676,0,0,0-1.581.92,5.047,5.047,0,0,0-.5,2.418,13.882,13.882,0,0,0,.546,3.605,15.52,15.52,0,0,0,.984,2.558A7.986,7.986,0,0,0,22.541,19.2a2.144,2.144,0,0,0,1.523.781,1.8,1.8,0,0,0,.813-.229,2.294,2.294,0,0,0,.781-1.32,8.426,8.426,0,0,0,.286-2.323,10.133,10.133,0,0,0-.6-3.542Q23.646,7.657,21.729,7.657Zm14.01,16.39a1.551,1.551,0,0,1,.444-1.016,5.855,5.855,0,0,1,.958-.882,2.831,2.831,0,0,1,.578-.375,3.808,3.808,0,0,1-.755-.876,2.364,2.364,0,0,1-.235-1.168,3.13,3.13,0,0,1,.267-1.3,1.939,1.939,0,0,1,.933-.812,9.984,9.984,0,0,1,1.974-.641l2.031-.521a6.826,6.826,0,0,0-1.428-.387,9.276,9.276,0,0,1-1.695-.476,4.551,4.551,0,0,1-1.638-1.714,4.653,4.653,0,0,1-.6-2.285,4.3,4.3,0,0,1,.946-2.736,6.121,6.121,0,0,1,2.736-1.873,12.089,12.089,0,0,1,4.253-.673A11.406,11.406,0,0,1,49.78,7.606l5.23-1.117V10.45L51.138,9.219a3.619,3.619,0,0,1,.8,2.323,4.2,4.2,0,0,1-.851,2.507,5.966,5.966,0,0,1-2.418,1.892,8.6,8.6,0,0,1-3.612.717H44.93a.463.463,0,0,0-.076.006.22.22,0,0,1-.089-.006H44.22q-1.295,0-1.295.838a.626.626,0,0,0,.267.476.774.774,0,0,0,.406.222l5.015.444q3.212.279,4.183,1.32a3.312,3.312,0,0,1,.971,2.311,3.26,3.26,0,0,1-.717,1.974,6.179,6.179,0,0,1-2.114,1.695,10.256,10.256,0,0,1-3.415,1.1,24.188,24.188,0,0,1-3.847.33,14.839,14.839,0,0,1-4.393-.546,7.984,7.984,0,0,1-2.634-1.289A2.024,2.024,0,0,1,35.739,24.047Zm8.15-16.339q-.7.051-1.174,1.155a6.3,6.3,0,0,0-.476,2.514,3.029,3.029,0,0,0,.038.571,5.473,5.473,0,0,0,.692,2.463,1.856,1.856,0,0,0,1.669,1.028q1.917,0,1.917-2.552a9,9,0,0,0-.1-1.346,7.979,7.979,0,0,0-.819-2.71A1.9,1.9,0,0,0,43.889,7.708Zm-3.745,14.8a3.812,3.812,0,0,0,.108.927,2.294,2.294,0,0,0,.419.838,2.593,2.593,0,0,0,.92.711,6.6,6.6,0,0,0,1.638.508,16.322,16.322,0,0,0,2.971.292,6.865,6.865,0,0,0,1.066-.076,7.079,7.079,0,0,0,1.873-.457.812.812,0,0,0,.463-.774.823.823,0,0,0-.375-.724,2.331,2.331,0,0,0-.914-.349,12.336,12.336,0,0,0-1.25-.146q-.711-.051-1.676-.1-1.1-.089-2.806-.273A19.179,19.179,0,0,1,40.144,22.511Zm41.477-1.066a12.112,12.112,0,0,1-4.78-.851,6.737,6.737,0,0,1-3.06-2.469,6.95,6.95,0,0,1-1.111-3.8,8.4,8.4,0,0,1,.438-2.78A6.423,6.423,0,0,1,74.4,9.333a7.35,7.35,0,0,1,2.126-1.606,10.837,10.837,0,0,1,2.882-.971,14.048,14.048,0,0,1,2.806-.292,10.982,10.982,0,0,1,4.234.8,6.818,6.818,0,0,1,3.1,2.52,7.527,7.527,0,0,1,1.168,4.323,6.609,6.609,0,0,1-1.092,3.707,7.492,7.492,0,0,1-3.161,2.641A11.371,11.371,0,0,1,81.622,21.444Zm-.99-13.787a1.676,1.676,0,0,0-1.581.92,5.047,5.047,0,0,0-.5,2.418A13.882,13.882,0,0,0,79.1,14.6a15.52,15.52,0,0,0,.984,2.558A7.986,7.986,0,0,0,81.444,19.2a2.144,2.144,0,0,0,1.523.781,1.8,1.8,0,0,0,.813-.229,2.294,2.294,0,0,0,.781-1.32,8.426,8.426,0,0,0,.286-2.323,10.133,10.133,0,0,0-.6-3.542Q82.548,7.657,80.631,7.657ZM96.444,11.5a7.768,7.768,0,0,0-.051-1.1.8.8,0,0,0-.26-.482,1.643,1.643,0,0,0-.578-.3q-.368-.121-1.346-.476V8.292q.317-.038.8-.089t1.27-.178q.787-.127,1.536-.317.939-.216,1.892-.514t1.9-.654l.736.317v9.9q0,1.765,1.5,1.765a3.688,3.688,0,0,0,2.45-1.244V11.5a8.563,8.563,0,0,0-.044-1.073A.67.67,0,0,0,106,9.974a1.789,1.789,0,0,0-.508-.26q-.3-.1-1.644-.571V8.292q.025,0,.717-.076t1.65-.241q.958-.165,1.593-.317A26.714,26.714,0,0,0,111.5,6.54l.7.317V16.4q0,2.539,1.27,2.539a2.064,2.064,0,0,0,.939-.254v1.244l-7.2,1.46L106.3,21V18.689a13.807,13.807,0,0,1-2.1,1.454,10.609,10.609,0,0,1-2.107.92,6.581,6.581,0,0,1-1.9.3,3.95,3.95,0,0,1-2.545-.806A2.989,2.989,0,0,1,96.5,18.474q-.013-.178-.019-.222t-.006-.692q-.013-.647-.013-2.247T96.444,11.5Zm22.668-3.06h-1.688V7.771a11.15,11.15,0,0,0,1.828-.616A10.517,10.517,0,0,0,121.3,6.02a7.273,7.273,0,0,0,2.742-3.25h.978V6.934h4.659l-.47,1.511h-4.189V16.95a2.541,2.541,0,0,0,.406,1.568,1.271,1.271,0,0,0,1.054.527,2.623,2.623,0,0,0,1.473-.533,4.585,4.585,0,0,0,1.282-1.333l.889.749A6.233,6.233,0,0,1,128.5,19.9a6.467,6.467,0,0,1-2.184,1.13,9.223,9.223,0,0,1-2.647.362,5.123,5.123,0,0,1-3.371-.99,3.12,3.12,0,0,1-1.187-2.5Z" transform="translate(118.94 26)" fill="#ffffd6"/>
</svg>
