<svg xmlns="http://www.w3.org/2000/svg" width="290.281" height="140.626" viewBox="0 0 290.281 140.626"><path d="M118.39,0A109.821,109.821,0,0,1,228.211,109.821c0,60.653-32.831,15.731-219.643,0S57.737,0,118.39,0Z" transform="translate(62.07)" fill="#a6f7e7"/><path d="M.527,28.77a1.868,1.868,0,0,1,.535-1.223,7.052,7.052,0,0,1,1.154-1.063,3.409,3.409,0,0,1,.7-.451A4.587,4.587,0,0,1,2,24.978a2.847,2.847,0,0,1-.283-1.407A3.77,3.77,0,0,1,2.041,22a2.336,2.336,0,0,1,1.124-.979,12.025,12.025,0,0,1,2.378-.772l2.446-.627a8.221,8.221,0,0,0-1.72-.466,11.172,11.172,0,0,1-2.041-.573,5.481,5.481,0,0,1-1.972-2.064,5.6,5.6,0,0,1-.719-2.752,5.178,5.178,0,0,1,1.139-3.3,7.373,7.373,0,0,1,3.3-2.255,14.561,14.561,0,0,1,5.122-.81,13.737,13.737,0,0,1,6.346,1.56l6.3-1.346v4.771l-4.664-1.483a4.359,4.359,0,0,1,.963,2.8,5.055,5.055,0,0,1-1.024,3.02A7.186,7.186,0,0,1,16.1,19.007a10.355,10.355,0,0,1-4.35.864H11.6a.557.557,0,0,0-.092.008.265.265,0,0,1-.107-.008h-.657q-1.56,0-1.56,1.009a.754.754,0,0,0,.321.573.933.933,0,0,0,.489.268l6.04.535q3.869.336,5.038,1.59a3.989,3.989,0,0,1,1.17,2.783,3.927,3.927,0,0,1-.864,2.378,7.442,7.442,0,0,1-2.546,2.041,12.353,12.353,0,0,1-4.113,1.33,29.133,29.133,0,0,1-4.633.4,17.872,17.872,0,0,1-5.291-.657,9.616,9.616,0,0,1-3.173-1.552A2.437,2.437,0,0,1,.527,28.77ZM10.344,9.091Q9.5,9.152,8.93,10.482a7.582,7.582,0,0,0-.573,3.028A3.649,3.649,0,0,0,8.4,14.2a6.591,6.591,0,0,0,.833,2.966A2.236,2.236,0,0,0,11.246,18.4q2.309,0,2.309-3.073a10.845,10.845,0,0,0-.122-1.621,9.61,9.61,0,0,0-.986-3.265A2.282,2.282,0,0,0,10.344,9.091ZM5.833,26.92a4.591,4.591,0,0,0,.13,1.116,2.763,2.763,0,0,0,.5,1.009,3.123,3.123,0,0,0,1.109.856,7.949,7.949,0,0,0,1.972.612,19.659,19.659,0,0,0,3.578.352,8.268,8.268,0,0,0,1.284-.092,8.526,8.526,0,0,0,2.255-.55.978.978,0,0,0,.558-.933.991.991,0,0,0-.451-.872,2.808,2.808,0,0,0-1.1-.42,14.86,14.86,0,0,0-1.506-.176q-.856-.061-2.018-.122-1.33-.107-3.379-.329A23.1,23.1,0,0,1,5.833,26.92Zm28.593-1.284a14.588,14.588,0,0,1-5.757-1.024,8.114,8.114,0,0,1-3.685-2.974,8.371,8.371,0,0,1-1.338-4.58,10.121,10.121,0,0,1,.528-3.349,7.736,7.736,0,0,1,1.56-2.661A8.852,8.852,0,0,1,28.3,9.114a13.052,13.052,0,0,1,3.471-1.17,16.92,16.92,0,0,1,3.379-.352,13.227,13.227,0,0,1,5.1.963,8.211,8.211,0,0,1,3.739,3.035A9.066,9.066,0,0,1,45.39,16.8a7.961,7.961,0,0,1-1.315,4.465,9.024,9.024,0,0,1-3.807,3.18A13.7,13.7,0,0,1,34.427,25.635ZM33.234,9.03a2.018,2.018,0,0,0-1.9,1.109,6.079,6.079,0,0,0-.6,2.913,16.72,16.72,0,0,0,.657,4.343,18.693,18.693,0,0,0,1.185,3.081,9.619,9.619,0,0,0,1.644,2.462,2.583,2.583,0,0,0,1.835.94,2.169,2.169,0,0,0,.979-.275,2.763,2.763,0,0,0,.94-1.59,10.148,10.148,0,0,0,.344-2.8,12.2,12.2,0,0,0-.719-4.266Q35.543,9.03,33.234,9.03ZM57.852,25.635a14.588,14.588,0,0,1-5.757-1.024,8.115,8.115,0,0,1-3.685-2.974,8.371,8.371,0,0,1-1.338-4.58,10.121,10.121,0,0,1,.528-3.349,7.736,7.736,0,0,1,1.56-2.661A8.852,8.852,0,0,1,51.72,9.114a13.052,13.052,0,0,1,3.471-1.17,16.92,16.92,0,0,1,3.379-.352,13.227,13.227,0,0,1,5.1.963,8.212,8.212,0,0,1,3.739,3.035A9.066,9.066,0,0,1,68.815,16.8,7.961,7.961,0,0,1,67.5,21.262a9.024,9.024,0,0,1-3.807,3.18A13.7,13.7,0,0,1,57.852,25.635ZM56.659,9.03a2.018,2.018,0,0,0-1.9,1.109,6.079,6.079,0,0,0-.6,2.913,16.72,16.72,0,0,0,.658,4.343,18.693,18.693,0,0,0,1.185,3.081,9.619,9.619,0,0,0,1.644,2.462,2.583,2.583,0,0,0,1.835.94,2.169,2.169,0,0,0,.979-.275,2.763,2.763,0,0,0,.94-1.59,10.148,10.148,0,0,0,.344-2.8,12.2,12.2,0,0,0-.719-4.266Q58.968,9.03,56.659,9.03ZM80.145,7.684a11.069,11.069,0,0,1,2.034.191q1.024.191,1.544.313a8.066,8.066,0,0,0-.573-3.7q-.573-.963-2.469-.963V2.516q.5-.061.765-.084t.612-.069A36.127,36.127,0,0,0,89.885.391l.948.443v19.19a4.728,4.728,0,0,0,.321,1.927,1.255,1.255,0,0,0,1.269.7,3.917,3.917,0,0,0,1.07-.183v1.284l-8.838,1.789-.933-.443V23.036A7.024,7.024,0,0,1,81.239,24.9a7.45,7.45,0,0,1-3.127.673,7.234,7.234,0,0,1-6.8-4.182,9.024,9.024,0,0,1-.879-3.907,10.678,10.678,0,0,1,.711-3.907A8.958,8.958,0,0,1,76.277,8.4,10.379,10.379,0,0,1,80.145,7.684Zm3.578,3.135a3.894,3.894,0,0,0-1.162-1.2,2.82,2.82,0,0,0-1.606-.482,2.572,2.572,0,0,0-2,.81,4.686,4.686,0,0,0-1.047,2.209,16.11,16.11,0,0,0-.306,3.387,28.2,28.2,0,0,0,.168,2.829,5.347,5.347,0,0,0,1.193,3.112,2.993,2.993,0,0,0,2.278,1.078,3.463,3.463,0,0,0,1.674-.436q.8-.436.8-.589Zm25.887-.841h-2.034v-.81a13.429,13.429,0,0,0,2.2-.742,12.667,12.667,0,0,0,2.462-1.369,8.76,8.76,0,0,0,3.3-3.914h1.177V8.158h5.612l-.566,1.82H116.72V20.222a3.061,3.061,0,0,0,.489,1.888,1.53,1.53,0,0,0,1.269.635,3.159,3.159,0,0,0,1.774-.642A5.522,5.522,0,0,0,121.8,20.5l1.07.9a7.507,7.507,0,0,1-1.95,2.378,7.789,7.789,0,0,1-2.63,1.361,11.109,11.109,0,0,1-3.188.436,6.17,6.17,0,0,1-4.06-1.193,3.757,3.757,0,0,1-1.43-3.012ZM133.3,25.1q-1.208-.153-2.821-.252t-3.28-.1a54.111,54.111,0,0,0-5.887.352V23.51a3.671,3.671,0,0,0,.52.061,1.9,1.9,0,0,0,1.56-.78A3.9,3.9,0,0,0,124,20.375V5.681a1.415,1.415,0,0,0-.466-1.116,8.026,8.026,0,0,0-2.225-1.04V2.516A35.091,35.091,0,0,0,127.057,1.4q1.7-.459,3.165-1.009l.887.443v9.45a15.825,15.825,0,0,1,3.2-1.881,8.481,8.481,0,0,1,3.463-.81,4.689,4.689,0,0,1,3.349,1.239,5.271,5.271,0,0,1,1.56,3.364,16.393,16.393,0,0,1,.2,2.6q0,1.82-.229,6.422a2.664,2.664,0,0,0,.489,1.728,1.6,1.6,0,0,0,1.3.6,1.977,1.977,0,0,0,.658-.107V25.1a43.406,43.406,0,0,0-5.6-.352,44.027,44.027,0,0,0-5.673.352V23.479a1.535,1.535,0,0,0,1.529-1.009,13.745,13.745,0,0,0,.535-4.1q.061-1.9.061-2.2a23.56,23.56,0,0,0-.214-2.813,2.762,2.762,0,0,0-.833-1.827,2.385,2.385,0,0,0-1.613-.589,4.051,4.051,0,0,0-2.187.688v8.746a5.728,5.728,0,0,0,.375,2.431,1.268,1.268,0,0,0,1.216.734,4.984,4.984,0,0,0,.6-.061Zm16.162-8.761a7.023,7.023,0,0,1,.963-.359q.963-.329,3.112-1.078t2.913-1.009V11.446a3.254,3.254,0,0,0-.344-1.728,1.366,1.366,0,0,0-1.231-.52,1.75,1.75,0,0,0-1.376.566,1.954,1.954,0,0,0-.5,1.346,2.493,2.493,0,0,0,.382,1.284l-6.07,2.462a5,5,0,0,1-.229-1.5,4.15,4.15,0,0,1,1.269-3.043A8.01,8.01,0,0,1,151.812,8.4a17.587,17.587,0,0,1,4.786-.68,9.843,9.843,0,0,1,3.846.65,4.648,4.648,0,0,1,2.248,1.858,5.444,5.444,0,0,1,.726,2.859v8.043q0,1.789.734,1.789a3.259,3.259,0,0,0,1.376-.566l.841.872A6.309,6.309,0,0,1,164,24.848a7.544,7.544,0,0,1-3.043.726,6.66,6.66,0,0,1-1.789-.26,5.058,5.058,0,0,1-1.667-.8,2.522,2.522,0,0,1-.963-1.292,7.311,7.311,0,0,1-1.758,1.5,6.561,6.561,0,0,1-3.532.765q-5.489,0-5.489-4.327a8.865,8.865,0,0,1,.3-2.026,3.421,3.421,0,0,1,1.047-1.537A6.663,6.663,0,0,1,149.457,16.339Zm6.988-1.223q0-.061-.031-.061a3.712,3.712,0,0,0-.757.183,4.087,4.087,0,0,0-2.416,2.317,6.978,6.978,0,0,0-.528,2.943,2.64,2.64,0,0,0,.535,1.85,2.045,2.045,0,0,0,1.56.566,1.8,1.8,0,0,0,1.636-.688Zm9.327,9.985-.061-1.56a3.078,3.078,0,0,0,.749.092,1.926,1.926,0,0,0,1.56-.78,4.193,4.193,0,0,0,.627-2.6v-6.59a5.64,5.64,0,0,0-.13-1.514,1.062,1.062,0,0,0-.619-.6,21.945,21.945,0,0,0-2.187-.726V9.794q1.7-.153,3.089-.413t2.89-.657a29.613,29.613,0,0,0,3.165-1.04l.872.382v2.187q3.807-2.691,6.453-2.691a5.012,5.012,0,0,1,2.653.749,5.11,5.11,0,0,1,1.934,2.187,7.644,7.644,0,0,1,.7,3.395l-.092,6.453q0,3.257,1.621,3.257a3.152,3.152,0,0,0,.8-.122V25.1a51.766,51.766,0,0,0-5.734-.352,49.135,49.135,0,0,0-5.612.352V23.479a1.889,1.889,0,0,0,.971-.222,1.6,1.6,0,0,0,.612-.864,7.535,7.535,0,0,0,.344-1.85q.107-1.208.107-3.333a24.057,24.057,0,0,0-.245-4.006,3.1,3.1,0,0,0-.757-1.7,2.008,2.008,0,0,0-1.506-.589,4.322,4.322,0,0,0-2.248.749v8.746a10.475,10.475,0,0,0,.115,1.674,2.178,2.178,0,0,0,.459,1.093,1.2,1.2,0,0,0,.956.4,5.109,5.109,0,0,0,.566-.061V25.1a51.776,51.776,0,0,0-12.049,0Zm35.061,0a50.905,50.905,0,0,0-5.734-.352,51.881,51.881,0,0,0-5.749.352v-1.56a2.651,2.651,0,0,0,2.011-.581,2.959,2.959,0,0,0,.619-1.713L192,19.779q0-1.453.015-3.685V6.247a2.618,2.618,0,0,0-.482-1.728,4,4,0,0,0-2.179-.9v-1.1A37.587,37.587,0,0,0,198.265.482l.856.321V15.421l6.07-3.945a1.12,1.12,0,0,0,.405-.4.96.96,0,0,0,.161-.5q0-.749-1.544-.749V8.158a44.669,44.669,0,0,0,4.48.245,43.156,43.156,0,0,0,4.45-.245V9.794a7.661,7.661,0,0,0-2.248.26,12.659,12.659,0,0,0-2.63,1.483l-3.165,2,5.734,8.119q.474.627.8.979a3.086,3.086,0,0,0,2.294.933V25.1a54.833,54.833,0,0,0-12.4,0V23.6q1.346,0,1.346-.719a2.69,2.69,0,0,0-.6-1.391l-3.15-4.694v4.037q0,2.676,1.713,2.676Zm13.624.443-.321-5.367h1.544a4.34,4.34,0,0,0,1.33,2.6,3.8,3.8,0,0,0,2.8,1.193,2.536,2.536,0,0,0,1.514-.459,1.459,1.459,0,0,0,.642-1.254,2.006,2.006,0,0,0-.711-1.437,23.616,23.616,0,0,0-2.821-2.11,11.635,11.635,0,0,1-3.158-2.89,5.3,5.3,0,0,1-.94-3.028,4.983,4.983,0,0,1,.711-2.569,5.058,5.058,0,0,1,2.141-1.934,7.576,7.576,0,0,1,3.463-.726,20.86,20.86,0,0,1,6.514,1.315l-.031,4.3H225.7a4.879,4.879,0,0,0-1.055-2.615,2.973,2.973,0,0,0-2.263-1.3,1.786,1.786,0,0,0-1.246.436,1.412,1.412,0,0,0-.482,1.093,1.833,1.833,0,0,0,.252.948,4.936,4.936,0,0,0,1.078,1.109,27.978,27.978,0,0,0,2.339,1.674,10.645,10.645,0,0,1,2.859,2.385,4.723,4.723,0,0,1,.994,3.028,5.3,5.3,0,0,1-.765,2.714,5.649,5.649,0,0,1-2.271,2.118,7.362,7.362,0,0,1-3.54.81,16.064,16.064,0,0,1-2.9-.313q-1.674-.313-1.735-.313a.892.892,0,0,0-.979.6Zm19.6.061a4.62,4.62,0,0,1-3.1-.994,3.128,3.128,0,0,1-1.2-2.385,3.161,3.161,0,0,1,.528-1.758,3.636,3.636,0,0,1,1.506-1.284,4.986,4.986,0,0,1,2.2-.474,5.256,5.256,0,0,1,2.148.436,3.711,3.711,0,0,1,1.56,1.239,3.042,3.042,0,0,1,.573,1.812,3.2,3.2,0,0,1-1.093,2.362A4.343,4.343,0,0,1,234.06,25.6Z" transform="translate(52.001 53.729)" fill="#4a4038"/></svg>