<svg xmlns="http://www.w3.org/2000/svg" width="115" height="95.846" viewBox="0 0 115 95.846"><g transform="translate(52.515)" fill="none"><path d="M10.788,0a51.7,51.7,0,0,1,51.7,51.7c0,28.551-45.014,72.779-96.29,18.347S-17.763,0,10.788,0Z" stroke="none"/><path d="M 10.78839492797852 0.4999923706054688 C 5.857933044433594 0.4999923706054688 0.2761325836181641 0.9549484252929688 -5.353546142578125 1.815666198730469 C -11.85330677032471 2.809410095214844 -17.98452758789062 4.2681884765625 -23.57686614990234 6.1514892578125 C -30.01974678039551 8.321212768554688 -35.49772644042969 10.98371124267578 -39.85866546630859 14.06503295898438 C -44.80914688110352 17.56288909912109 -48.29382705688477 21.59345245361328 -50.21594619750977 26.04473114013672 C -51.3624267578125 28.69976806640625 -51.9669075012207 31.54824829101562 -52.01258850097656 34.51104736328125 C -52.06126403808594 37.66870880126953 -51.4766845703125 41.03894805908203 -50.27506637573242 44.52815246582031 C -48.99820709228516 48.23583221435547 -46.99194717407227 52.1728515625 -44.31200408935547 56.22986602783203 C -41.48036956787109 60.51657104492188 -37.82286834716797 65.04861450195312 -33.44110870361328 69.70014953613281 C -25.08686637878418 78.5687255859375 -16.46878623962402 85.24159240722656 -7.826287269592285 89.53337097167969 C -0.05898666381835938 93.39053344726562 7.755792617797852 95.34626770019531 15.4010124206543 95.34626770019531 C 21.93351364135742 95.34626770019531 28.27657318115234 93.92634582519531 34.25401306152344 91.12594604492188 C 39.70037460327148 88.57437133789062 44.65775299072266 84.97969055175781 48.98847198486328 80.44178771972656 C 52.98921203613281 76.24964904785156 56.30389404296875 71.35365295410156 58.57421112060547 66.28305053710938 C 60.80529022216797 61.30002975463867 61.98459625244141 56.25596618652344 61.98459625244141 51.6961669921875 C 61.98459625244141 44.78450775146484 60.63103485107422 38.07987213134766 57.96153259277344 31.76847076416016 C 55.38299560546875 25.67212677001953 51.69149017333984 20.19695281982422 46.98955535888672 15.49501037597656 C 42.28761291503906 10.79306793212891 36.81243133544922 7.101570129394531 30.71609497070312 4.523033142089844 C 24.40469360351562 1.853530883789062 17.70003128051758 0.4999923706054688 10.78839492797852 0.4999923706054688 M 10.78839492797852 -7.62939453125e-06 C 39.33935165405273 -7.62939453125e-06 62.48459625244141 23.14517211914062 62.48459625244141 51.6961669921875 C 62.48459625244141 70.40487670898438 43.15403747558594 95.84627532958984 15.40100860595703 95.84627532958984 C 0.8006839752197266 95.84627532958984 -16.12912368774414 88.80716705322266 -33.80504608154297 70.04299163818359 C -85.080322265625 15.61093139648438 -17.76260757446289 -7.62939453125e-06 10.78839492797852 -7.62939453125e-06 Z" stroke="none" fill="#fffed8"/></g><line x1="108.226" transform="translate(3.632 46.4)" fill="none" stroke="#fffed8" stroke-linecap="round" stroke-width="0.5"/></svg>