<svg xmlns="http://www.w3.org/2000/svg" width="68.583" height="46.082" viewBox="0 0 68.583 46.082"><path d="M59.488,4.1a1.679,1.679,0,0,0-.566-1.509,2.1,2.1,0,0,0-1.152-.366l.02-.645A23.782,23.782,0,0,0,61.471.863q1.084-.3,2.012-.645L64.029.5V7.064A10.981,10.981,0,0,1,65.66,5.678a4.775,4.775,0,0,1,1.294-.64,4.46,4.46,0,0,1,1.216-.161,3.838,3.838,0,0,1,2.163.649A4.472,4.472,0,0,1,71.9,7.445a6.947,6.947,0,0,1,.586,2.939,5.888,5.888,0,0,1-.952,3.1,5.566,5.566,0,0,1-2.607,2.007A11.181,11.181,0,0,1,64.7,16.2q-.85,0-2.1-.127t-2.183-.283a2.68,2.68,0,0,1-.933-.225Zm4.541,8.828q0,2.158,1.7,2.217A1.857,1.857,0,0,0,67.34,14.3a4.68,4.68,0,0,0,.586-2.632,14.593,14.593,0,0,0-.176-2.1,4.078,4.078,0,0,0-.659-1.929,1.4,1.4,0,0,0-1.128-.552,2.367,2.367,0,0,0-1.934,1.055ZM77.783,10.4a4.486,4.486,0,0,1,.615-.229q.615-.21,1.987-.688t1.86-.645V7.279a2.078,2.078,0,0,0-.22-1.1.872.872,0,0,0-.786-.332,1.118,1.118,0,0,0-.879.361,1.248,1.248,0,0,0-.322.859,1.592,1.592,0,0,0,.244.82L76.406,9.457a3.191,3.191,0,0,1-.146-.957,2.651,2.651,0,0,1,.811-1.943,5.116,5.116,0,0,1,2.217-1.226A11.233,11.233,0,0,1,82.343,4.9a6.286,6.286,0,0,1,2.456.415A2.968,2.968,0,0,1,86.235,6.5,3.477,3.477,0,0,1,86.7,8.324v5.137q0,1.143.469,1.143a2.082,2.082,0,0,0,.879-.361l.537.557a4.03,4.03,0,0,1-1.514,1.04,4.818,4.818,0,0,1-1.943.464,4.254,4.254,0,0,1-1.143-.166,3.23,3.23,0,0,1-1.064-.513A1.611,1.611,0,0,1,82.3,14.8a4.669,4.669,0,0,1-1.123.957,4.19,4.19,0,0,1-2.256.488q-3.506,0-3.506-2.764a5.661,5.661,0,0,1,.19-1.294,2.185,2.185,0,0,1,.669-.981A4.255,4.255,0,0,1,77.783,10.4Zm4.463-.781q0-.039-.02-.039a2.371,2.371,0,0,0-.483.117A2.611,2.611,0,0,0,80.2,11.181a4.457,4.457,0,0,0-.337,1.88,1.686,1.686,0,0,0,.342,1.182,1.306,1.306,0,0,0,1,.361,1.148,1.148,0,0,0,1.045-.439ZM91.682,4.1a1.679,1.679,0,0,0-.566-1.509,2.1,2.1,0,0,0-1.152-.366l.02-.645A23.782,23.782,0,0,0,93.665.863q1.084-.3,2.012-.645L96.223.5V7.064a10.981,10.981,0,0,1,1.631-1.387,4.775,4.775,0,0,1,1.294-.64,4.46,4.46,0,0,1,1.216-.161,3.838,3.838,0,0,1,2.163.649,4.472,4.472,0,0,1,1.567,1.919,6.947,6.947,0,0,1,.586,2.939,5.888,5.888,0,0,1-.952,3.1,5.566,5.566,0,0,1-2.607,2.007A11.181,11.181,0,0,1,96.9,16.2q-.85,0-2.1-.127t-2.183-.283a2.68,2.68,0,0,1-.933-.225Zm4.541,8.828q0,2.158,1.7,2.217a1.857,1.857,0,0,0,1.611-.845,4.68,4.68,0,0,0,.586-2.632,14.593,14.593,0,0,0-.176-2.1,4.078,4.078,0,0,0-.659-1.929,1.4,1.4,0,0,0-1.128-.552,2.367,2.367,0,0,0-1.934,1.055Zm17.933-8.047a4.96,4.96,0,0,1,3.242.938,4.449,4.449,0,0,1,1.494,2.114,7.552,7.552,0,0,1,.361,2.212h-7.061l.044.454q.044.454.146.991a8.033,8.033,0,0,0,.269,1.035,3.741,3.741,0,0,0,.654,1.172,2.739,2.739,0,0,0,2.09.967,3.253,3.253,0,0,0,1.846-.576,6.1,6.1,0,0,0,1.533-1.5l.684.664a11.283,11.283,0,0,1-1.538,1.626A5.679,5.679,0,0,1,116.095,16a7.732,7.732,0,0,1-2.534.366,6.93,6.93,0,0,1-2.412-.43,5.725,5.725,0,0,1-1.909-1.162,5,5,0,0,1-1.211-1.724,5.4,5.4,0,0,1-.415-2.124,6.38,6.38,0,0,1,.762-3.149,5.22,5.22,0,0,1,2.246-2.134A7.655,7.655,0,0,1,114.156,4.877Zm-1.963,4.4h2.881q-.029-.381-.059-.757t-.059-.747q-.283-1.914-1.4-1.914-.918.127-1.221,1.953-.029.186-.073.669T112.193,9.281Z" transform="translate(-51.548 29.221)" fill="none" stroke="#b46e55" stroke-width="1"/><path d="M117.848,6.417a3.141,3.141,0,0,1-.557,1.946A1.779,1.779,0,0,1,115.8,9.1a1.842,1.842,0,0,1-1.548-.708l-.044.61h-.83V1.5h.9V4.3a1.831,1.831,0,0,1,1.509-.679,1.789,1.789,0,0,1,1.511.728,3.236,3.236,0,0,1,.549,1.992Zm-.9-.1a2.441,2.441,0,0,0-.356-1.426,1.18,1.18,0,0,0-1.025-.5,1.326,1.326,0,0,0-1.284.83V7.5a1.363,1.363,0,0,0,1.294.83,1.173,1.173,0,0,0,1.011-.5A2.6,2.6,0,0,0,116.945,6.314ZM122.078,9.1a2.308,2.308,0,0,1-1.748-.706,2.619,2.619,0,0,1-.674-1.887V6.339a3.17,3.17,0,0,1,.3-1.4,2.342,2.342,0,0,1,.84-.967,2.112,2.112,0,0,1,1.169-.349,1.979,1.979,0,0,1,1.6.679,2.939,2.939,0,0,1,.571,1.943v.376H120.56a1.878,1.878,0,0,0,.457,1.262,1.435,1.435,0,0,0,1.111.481,1.573,1.573,0,0,0,.811-.2,2.037,2.037,0,0,0,.581-.518l.552.43A2.219,2.219,0,0,1,122.078,9.1Zm-.112-4.736a1.2,1.2,0,0,0-.918.4,1.934,1.934,0,0,0-.459,1.116h2.646V5.807a1.721,1.721,0,0,0-.371-1.067A1.134,1.134,0,0,0,121.966,4.361ZM88.328,23H86.571V19.344H83.143V23H81.385V14.469h1.758v3.457h3.428V14.469h1.758Zm7.537-1.758H92.783L92.2,23H90.328L93.5,14.469h1.629L98.326,23H96.457Zm-2.607-1.424h2.133l-1.072-3.193Zm8.7.176V23H100.2V14.469h3.328a3.85,3.85,0,0,1,1.69.352,2.591,2.591,0,0,1,1.122,1,2.786,2.786,0,0,1,.393,1.474,2.45,2.45,0,0,1-.858,1.978,3.575,3.575,0,0,1-2.376.724Zm0-1.424h1.57a1.544,1.544,0,0,0,1.063-.328,1.193,1.193,0,0,0,.366-.937,1.407,1.407,0,0,0-.369-1.014,1.379,1.379,0,0,0-1.02-.4h-1.611Zm8.82,1.424V23h-1.758V14.469h3.328a3.85,3.85,0,0,1,1.69.352,2.591,2.591,0,0,1,1.122,1,2.786,2.786,0,0,1,.393,1.474,2.45,2.45,0,0,1-.858,1.978,3.575,3.575,0,0,1-2.376.724Zm0-1.424h1.57a1.544,1.544,0,0,0,1.063-.328,1.193,1.193,0,0,0,.366-.937,1.407,1.407,0,0,0-.369-1.014,1.379,1.379,0,0,0-1.02-.4h-1.611Zm10-.258,1.775-3.844h1.922l-2.8,5.438V23h-1.787V19.906l-2.8-5.437h1.928Z" transform="translate(-81.385 -1.5)" fill="#b56e52"/></svg>