<svg xmlns="http://www.w3.org/2000/svg" width="96.554" height="83.774" viewBox="0 0 96.554 83.774"><path d="M54.8,9.66a11.389,11.389,0,0,0-1.248-1.887,1.584,1.584,0,0,0-1.225-.5V6.016q2.7.27,4.875.27a48.469,48.469,0,0,0,4.852-.27V7.27a3.689,3.689,0,0,0-1.248.141.505.505,0,0,0-.334.5,3.653,3.653,0,0,0,.6,1.605L63.3,13.5l1.8-3.691a3.463,3.463,0,0,0,.41-1.418,1.136,1.136,0,0,0-.205-.7,1.122,1.122,0,0,0-.527-.393,1.923,1.923,0,0,0-.662-.117,2.112,2.112,0,0,0-.621.105V6.016q.375.059,1.1.123t1.729.064a26.165,26.165,0,0,0,3-.187V7.27a2.857,2.857,0,0,0-.844.152,2.158,2.158,0,0,0-.814.7A10.465,10.465,0,0,0,66.571,10L60.711,22.141a5.749,5.749,0,0,1-1.371,1.934,2.928,2.928,0,0,1-2.062.879,1.958,1.958,0,0,1-1.506-.6,1.9,1.9,0,0,1-.557-1.324,1.86,1.86,0,0,1,.475-1.236,1.9,1.9,0,0,1,1.225-.662,9.3,9.3,0,0,1,1.043-.07h.4l.246.023q1.922,0,1.922-.809a1.563,1.563,0,0,0-.223-.656Zm24.777,9.75a11.18,11.18,0,0,1-4.412-.785,6.219,6.219,0,0,1-2.824-2.279,6.416,6.416,0,0,1-1.025-3.51,7.757,7.757,0,0,1,.4-2.566,5.929,5.929,0,0,1,1.2-2.039,6.784,6.784,0,0,1,1.963-1.482,10,10,0,0,1,2.66-.9,12.967,12.967,0,0,1,2.59-.27,10.137,10.137,0,0,1,3.908.738,6.293,6.293,0,0,1,2.865,2.326,6.948,6.948,0,0,1,1.078,3.99,6.1,6.1,0,0,1-1.008,3.422A6.916,6.916,0,0,1,84.059,18.5,10.5,10.5,0,0,1,79.582,19.41ZM78.668,6.684a1.547,1.547,0,0,0-1.459.85,4.659,4.659,0,0,0-.463,2.232,12.814,12.814,0,0,0,.5,3.328,14.326,14.326,0,0,0,.908,2.361,7.372,7.372,0,0,0,1.26,1.887,1.979,1.979,0,0,0,1.406.721,1.662,1.662,0,0,0,.75-.211,2.118,2.118,0,0,0,.721-1.219,7.778,7.778,0,0,0,.264-2.145,9.354,9.354,0,0,0-.551-3.27Q80.438,6.684,78.668,6.684Zm13.973,3.551a7.17,7.17,0,0,0-.047-1.014.737.737,0,0,0-.24-.445,1.516,1.516,0,0,0-.533-.281q-.34-.111-1.242-.439V7.27q.293-.035.738-.082t1.172-.164q.727-.117,1.418-.293.867-.2,1.746-.475t1.758-.6l.68.293v9.141q0,1.629,1.383,1.629a3.4,3.4,0,0,0,2.262-1.148V10.234a7.9,7.9,0,0,0-.041-.99.618.618,0,0,0-.234-.422,1.652,1.652,0,0,0-.469-.24q-.275-.094-1.518-.527V7.27q.023,0,.662-.07t1.523-.223q.885-.152,1.471-.293a24.659,24.659,0,0,0,3.41-1.031l.645.293v8.813q0,2.344,1.172,2.344a1.905,1.905,0,0,0,.867-.234v1.148l-6.645,1.348L101.734,19V16.867a12.745,12.745,0,0,1-1.939,1.342,9.793,9.793,0,0,1-1.945.85,6.075,6.075,0,0,1-1.752.281,3.646,3.646,0,0,1-2.35-.744,2.759,2.759,0,0,1-1.061-1.928q-.012-.164-.018-.205t-.006-.639q-.012-.6-.012-2.074T92.641,10.234Zm20.664,0v-.5a1.662,1.662,0,0,0-.123-.744,1.016,1.016,0,0,0-.521-.4q-.4-.17-1.605-.533V7.27a25.252,25.252,0,0,0,7.008-1.617l.691.293V9.5l1.488-2.426a4.682,4.682,0,0,1,.92-1.119,1.58,1.58,0,0,1,1.025-.346,4.18,4.18,0,0,1,1.418.34l2.227.914-1.723,3.715-2.086-.867a3.569,3.569,0,0,0-1.254-.328,1.538,1.538,0,0,0-1.289.762l-.727.984v4.3a2.194,2.194,0,0,0,.732,1.887,2.818,2.818,0,0,0,1.717.539,3.144,3.144,0,0,0,.738-.07V19q-3.023-.27-5.543-.27-2.414,0-5.32.27V17.781a2.576,2.576,0,0,0,.574.094,1.38,1.38,0,0,0,1.2-.691,3.537,3.537,0,0,0,.457-1.957ZM57.692,45.411l-.3-4.97h1.43a4.02,4.02,0,0,0,1.232,2.407,3.517,3.517,0,0,0,2.591,1.1,2.349,2.349,0,0,0,1.4-.425,1.351,1.351,0,0,0,.595-1.161,1.858,1.858,0,0,0-.658-1.331,21.869,21.869,0,0,0-2.613-1.954A10.775,10.775,0,0,1,58.45,36.4a4.907,4.907,0,0,1-.871-2.8,4.615,4.615,0,0,1,.658-2.379,4.684,4.684,0,0,1,1.982-1.791,7.016,7.016,0,0,1,3.207-.673,19.318,19.318,0,0,1,6.032,1.218l-.028,3.979H68.1a4.519,4.519,0,0,0-.977-2.421,2.753,2.753,0,0,0-2.1-1.2,1.654,1.654,0,0,0-1.154.4,1.308,1.308,0,0,0-.446,1.012,1.7,1.7,0,0,0,.234.878,4.57,4.57,0,0,0,1,1.027A25.908,25.908,0,0,0,66.825,35.2a9.858,9.858,0,0,1,2.648,2.209,4.374,4.374,0,0,1,.92,2.8,4.912,4.912,0,0,1-.708,2.513,5.231,5.231,0,0,1-2.1,1.961,6.818,6.818,0,0,1-3.278.75,14.876,14.876,0,0,1-2.683-.29q-1.551-.29-1.607-.29a.826.826,0,0,0-.906.552ZM84.134,28.872a7.193,7.193,0,0,1,4.7,1.359A6.451,6.451,0,0,1,91,33.3a10.95,10.95,0,0,1,.524,3.207H81.288l.064.658q.064.658.212,1.437a11.648,11.648,0,0,0,.389,1.5,5.424,5.424,0,0,0,.949,1.7,3.971,3.971,0,0,0,3.03,1.4,4.717,4.717,0,0,0,2.676-.835,8.842,8.842,0,0,0,2.223-2.181l.991.963a16.36,16.36,0,0,1-2.23,2.358,8.235,8.235,0,0,1-2.648,1.487,11.211,11.211,0,0,1-3.675.531,10.048,10.048,0,0,1-3.5-.623A8.3,8.3,0,0,1,77,43.216a7.243,7.243,0,0,1-1.756-2.5,7.825,7.825,0,0,1-.6-3.08,9.251,9.251,0,0,1,1.1-4.567,7.569,7.569,0,0,1,3.257-3.094A11.1,11.1,0,0,1,84.134,28.872Zm-2.846,6.386h4.177q-.042-.552-.085-1.1t-.085-1.083Q84.884,30.3,83.27,30.3q-1.331.184-1.77,2.832-.042.269-.106.97T81.288,35.258ZM106.724,45a51.53,51.53,0,0,0-11.569,0V43.527a2.1,2.1,0,0,0,.552.057,1.646,1.646,0,0,0,1.444-.786,4.006,4.006,0,0,0,.524-2.23V27.017a1.475,1.475,0,0,0-.163-.729,1.572,1.572,0,0,0-.651-.552,15.567,15.567,0,0,0-1.706-.715v-.935a34.971,34.971,0,0,0,8.284-1.968l.821.411V40.681a3.664,3.664,0,0,0,.538,2.259,1.63,1.63,0,0,0,1.317.673,1.934,1.934,0,0,0,.609-.085Zm8.288-.326q-3.512.071-6.089.326V43.527a2.359,2.359,0,0,0,2.69-2.648V31h-2.69V30.3l2.719-1.048a9.047,9.047,0,0,1,.828-4.17,5.391,5.391,0,0,1,3.087-2.436,19.085,19.085,0,0,1,6.407-.843,12.781,12.781,0,0,1,3.859.524,9.338,9.338,0,0,1,2.967,1.558l-2.563,3.767a10.107,10.107,0,0,0-.963-1.6,9.2,9.2,0,0,0-1.728-1.876,3.189,3.189,0,0,0-2.039-.814,5.052,5.052,0,0,0-1.168.12,2.015,2.015,0,0,0-1,.68,4.392,4.392,0,0,0-.814,1.805,14.006,14.006,0,0,0-.319,3.342H122.4V31H118.2v9.884a2.358,2.358,0,0,0,.963,2.032,3.507,3.507,0,0,0,2.11.7,2.421,2.421,0,0,0,.666-.085V45Q118.637,44.674,115.012,44.674Z" transform="translate(-32.235 38.25)" fill="#4a4038"/><path d="M7.734,10.125A4.712,4.712,0,0,1,6.9,13.044a2.668,2.668,0,0,1-2.241,1.1,2.763,2.763,0,0,1-2.322-1.062L2.271,14H1.025V2.75H2.38v4.2A2.747,2.747,0,0,1,4.644,5.929,2.684,2.684,0,0,1,6.91,7.02a4.853,4.853,0,0,1,.824,2.988ZM6.379,9.972a3.662,3.662,0,0,0-.535-2.139,1.77,1.77,0,0,0-1.538-.754A1.989,1.989,0,0,0,2.38,8.324v3.428A2.045,2.045,0,0,0,4.321,13a1.76,1.76,0,0,0,1.516-.754A3.894,3.894,0,0,0,6.379,9.972Zm7.7,4.175a3.463,3.463,0,0,1-2.622-1.058,3.928,3.928,0,0,1-1.011-2.831v-.249A4.756,4.756,0,0,1,10.9,7.9a3.514,3.514,0,0,1,1.26-1.45,3.167,3.167,0,0,1,1.754-.524,2.968,2.968,0,0,1,2.4,1.018,4.408,4.408,0,0,1,.857,2.915v.564H11.8a2.817,2.817,0,0,0,.685,1.893,2.153,2.153,0,0,0,1.666.721,2.36,2.36,0,0,0,1.216-.293,3.055,3.055,0,0,0,.872-.776l.828.645A3.328,3.328,0,0,1,14.079,14.146Zm-.168-7.1a1.807,1.807,0,0,0-1.377.6,2.9,2.9,0,0,0-.688,1.674h3.97v-.1a2.581,2.581,0,0,0-.557-1.6A1.7,1.7,0,0,0,13.911,7.042Zm10.918,2.93a4.658,4.658,0,0,1,.857-2.948,2.954,2.954,0,0,1,4.534-.07l.066-.879h1.238V13.81a3.224,3.224,0,0,1-.912,2.424,3.365,3.365,0,0,1-2.45.886,4.076,4.076,0,0,1-1.677-.366,2.887,2.887,0,0,1-1.252-1l.7-.813a2.65,2.65,0,0,0,2.131,1.077,2.076,2.076,0,0,0,1.542-.557,2.128,2.128,0,0,0,.553-1.567v-.681a2.785,2.785,0,0,1-2.219.938,2.707,2.707,0,0,1-2.252-1.121A4.9,4.9,0,0,1,24.829,9.972Zm1.362.154a3.553,3.553,0,0,0,.549,2.106A1.785,1.785,0,0,0,28.279,13a1.985,1.985,0,0,0,1.882-1.165V8.214a2.008,2.008,0,0,0-1.868-1.135,1.8,1.8,0,0,0-1.545.769A3.87,3.87,0,0,0,26.191,10.125Zm8.367-.161a4.681,4.681,0,0,1,.458-2.095A3.415,3.415,0,0,1,36.29,6.434a3.469,3.469,0,0,1,1.864-.505,3.342,3.342,0,0,1,2.618,1.121,4.311,4.311,0,0,1,1,2.981v.1a4.722,4.722,0,0,1-.443,2.076,3.365,3.365,0,0,1-1.267,1.432,3.509,3.509,0,0,1-1.893.513,3.334,3.334,0,0,1-2.611-1.121,4.29,4.29,0,0,1-1-2.966Zm1.362.161a3.39,3.39,0,0,0,.612,2.117,2.072,2.072,0,0,0,3.278-.011,3.707,3.707,0,0,0,.608-2.267A3.384,3.384,0,0,0,39.8,7.851a1.968,1.968,0,0,0-1.644-.809,1.946,1.946,0,0,0-1.619.8A3.68,3.68,0,0,0,35.92,10.125Zm8.542-.161A4.681,4.681,0,0,1,44.92,7.87a3.415,3.415,0,0,1,1.274-1.436,3.469,3.469,0,0,1,1.864-.505,3.342,3.342,0,0,1,2.618,1.121,4.311,4.311,0,0,1,1,2.981v.1a4.722,4.722,0,0,1-.443,2.076,3.365,3.365,0,0,1-1.267,1.432,3.509,3.509,0,0,1-1.893.513,3.334,3.334,0,0,1-2.611-1.121,4.29,4.29,0,0,1-1-2.966Zm1.362.161a3.39,3.39,0,0,0,.612,2.117,2.072,2.072,0,0,0,3.278-.011,3.707,3.707,0,0,0,.608-2.267A3.384,3.384,0,0,0,49.7,7.851a1.968,1.968,0,0,0-1.644-.809,1.946,1.946,0,0,0-1.619.8A3.68,3.68,0,0,0,45.825,10.125ZM54.4,9.972a4.642,4.642,0,0,1,.864-2.933,2.941,2.941,0,0,1,4.468-.157V2.75h1.355V14H59.838l-.066-.85a2.759,2.759,0,0,1-2.263,1,2.707,2.707,0,0,1-2.245-1.128,4.7,4.7,0,0,1-.868-2.944Zm1.355.154a3.515,3.515,0,0,0,.557,2.109A1.8,1.8,0,0,0,57.846,13a1.977,1.977,0,0,0,1.882-1.157V8.2a1.992,1.992,0,0,0-1.868-1.121,1.808,1.808,0,0,0-1.553.769A3.87,3.87,0,0,0,55.751,10.125ZM38.307,26.156v1.919h1.479v1.047H38.307v4.915a1.1,1.1,0,0,0,.2.714.833.833,0,0,0,.674.238,3.281,3.281,0,0,0,.645-.088V36a3.928,3.928,0,0,1-1.04.146,1.687,1.687,0,0,1-1.37-.549,2.36,2.36,0,0,1-.461-1.56V29.123H35.51V28.075h1.443V26.156Zm3.906,5.808a4.681,4.681,0,0,1,.458-2.095,3.415,3.415,0,0,1,1.274-1.436,3.469,3.469,0,0,1,1.864-.505,3.342,3.342,0,0,1,2.618,1.121,4.311,4.311,0,0,1,1,2.981v.1a4.722,4.722,0,0,1-.443,2.076,3.365,3.365,0,0,1-1.267,1.432,3.509,3.509,0,0,1-1.893.513,3.334,3.334,0,0,1-2.611-1.121,4.29,4.29,0,0,1-1-2.966Zm1.362.161a3.39,3.39,0,0,0,.612,2.117,2.072,2.072,0,0,0,3.278-.011,3.707,3.707,0,0,0,.608-2.267,3.384,3.384,0,0,0-.619-2.113,1.968,1.968,0,0,0-1.644-.809,1.946,1.946,0,0,0-1.619.8A3.68,3.68,0,0,0,43.576,32.125Z" transform="translate(-1.025 -2.75)" fill="#4a4038"/></svg>