<svg id="PlusBtnMintYellowBorder" xmlns="http://www.w3.org/2000/svg" width="102.51" height="84.927" viewBox="0 0 102.51 84.927">
  <g id="Pfad_132" data-name="Pfad 132" transform="translate(52.515)" fill="#acd7c1">
    <path d="M 8.024667739868164 84.67670440673828 C 1.179117321968079 84.67670440673828 -5.816382884979248 82.93692016601562 -12.76749897003174 79.50565338134766 C -20.4921817779541 75.69253540039062 -28.1928825378418 69.76616668701172 -35.65568161010742 61.89116668701172 C -43.26988220214844 53.8564338684082 -48.32726669311523 46.34453582763672 -50.68740081787109 39.56411743164062 C -52.78921508789062 33.5257682800293 -52.78486633300781 27.97578430175781 -50.67446517944336 23.06833457946777 C -48.958984375 19.0792179107666 -45.83733367919922 15.46973419189453 -41.39623260498047 12.34015083312988 C -37.49496459960938 9.591001510620117 -32.59248352050781 7.216300964355469 -26.82491683959961 5.28200101852417 C -21.82443237304688 3.604984521865845 -16.34086608886719 2.306017875671387 -10.52653312683105 1.421217799186707 C -5.491432666778564 0.655001163482666 -0.4983160495758057 0.2500011622905731 3.913033962249756 0.2500011622905731 C 10.1005334854126 0.2500011622905731 16.1028003692627 1.454534530639648 21.75311660766602 3.830167770385742 C 27.21070098876953 6.124751091003418 32.11215209960938 9.409701347351074 36.3213005065918 13.59373474121094 C 40.53034973144531 17.77766799926758 43.83489990234375 22.64968490600586 46.14316558837891 28.0744514465332 C 48.53285217285156 33.69058609008789 49.7445182800293 39.65651702880859 49.7445182800293 45.80653381347656 C 49.7445182800293 49.87363433837891 48.68748474121094 54.3701171875 46.68766784667969 58.80991744995117 C 44.6550178527832 63.32265090942383 41.68761825561523 67.67966461181641 38.10630035400391 71.40995025634766 C 29.8927001953125 79.96514892578125 19.20950126647949 84.67670440673828 8.024667739868164 84.67670440673828 Z" stroke="none"/>
    <path d="M 3.913017272949219 0.5 C -0.4859485626220703 0.5 -5.466066360473633 0.9040145874023438 -10.48893356323242 1.668380737304688 C -16.28908157348633 2.551017761230469 -21.75856590270996 3.846565246582031 -26.74543380737305 5.519035339355469 C -32.48999786376953 7.44561767578125 -37.37080001831055 9.809318542480469 -41.25223159790039 12.54451751708984 C -45.65501403808594 15.64708709716797 -48.74783325195312 19.22105407714844 -50.44480133056641 23.16709899902344 C -51.45263290405273 25.51068115234375 -51.98049926757812 28.02460479736328 -52.01373291015625 30.63905334472656 C -52.04916381835938 33.42646789550781 -51.52348327636719 36.40163421630859 -50.45130157470703 39.48193359375 C -48.10289764404297 46.22866821289062 -43.06389999389648 53.71036911010742 -35.47425079345703 61.71920013427734 C -28.03181648254395 69.57268524169922 -20.35494995117188 75.48148345947266 -12.6568489074707 79.28146362304688 C -5.740432739257812 82.69560241699219 1.217815399169922 84.42669677734375 8.024650573730469 84.42669677734375 C 19.14078521728516 84.42669677734375 29.75994873046875 79.742431640625 37.92594909667969 71.23681640625 C 41.48773193359375 67.52690124511719 44.43866729736328 63.19425201416016 46.45973205566406 58.70725250244141 C 48.44509887695312 54.29948425292969 49.49451446533203 49.8385009765625 49.49451446533203 45.80653381347656 C 49.49451446533203 39.69035339355469 48.28956604003906 33.75733184814453 45.91311645507812 28.17233276367188 C 43.6175537109375 22.77740478515625 40.33110046386719 17.93209838867188 36.14505004882812 13.77103424072266 C 31.95880126953125 9.609764099121094 27.08404922485352 6.342704772949219 21.65621566772461 4.060615539550781 C 16.03673553466797 1.697967529296875 10.06706619262695 0.5 3.913017272949219 0.5 M 3.913017272949219 0 C 29.36310195922852 0 49.99451446533203 20.50828552246094 49.99451446533203 45.80653381347656 C 49.99451446533203 62.38379669189453 32.76344299316406 84.92670440673828 8.024658203125 84.92670440673828 C -4.989934921264648 84.92670440673828 -20.08100891113281 78.68954467773438 -35.83716583251953 62.06313323974609 C -81.54348754882812 13.8323974609375 -21.53708267211914 0 3.913017272949219 0 Z" stroke="none" fill="#fffed8"/>
  </g>
  <g id="Gruppe_59" data-name="Gruppe 59" transform="translate(50.275 1.89)">
    <line id="Linie_37" data-name="Linie 37" y2="8.735" transform="translate(4.368)" fill="none" stroke="#fffed8" stroke-linecap="round" stroke-width="0.5"/>
    <line id="Linie_38" data-name="Linie 38" x1="8.735" transform="translate(0 4.368)" fill="none" stroke="#fffed8" stroke-linecap="round" stroke-width="0.5"/>
  </g>
</svg>
