<svg id="sign_in" data-name="sign in" xmlns="http://www.w3.org/2000/svg" width="92.914" height="20.742" viewBox="0 0 92.914 20.742">
  <path id="Pfad_194" data-name="Pfad 194" d="M.781,16.283.576,12.855h.986a2.772,2.772,0,0,0,.85,1.66,2.426,2.426,0,0,0,1.787.762,1.62,1.62,0,0,0,.967-.293.932.932,0,0,0,.41-.8,1.281,1.281,0,0,0-.454-.918,15.082,15.082,0,0,0-1.8-1.348A7.431,7.431,0,0,1,1.3,10.072,3.384,3.384,0,0,1,.7,8.139,3.183,3.183,0,0,1,1.157,6.5,3.23,3.23,0,0,1,2.524,5.263,4.838,4.838,0,0,1,4.736,4.8a13.323,13.323,0,0,1,4.16.84l-.02,2.744H7.959a3.117,3.117,0,0,0-.674-1.67,1.9,1.9,0,0,0-1.445-.83,1.141,1.141,0,0,0-.8.278.9.9,0,0,0-.308.7,1.17,1.17,0,0,0,.161.605,3.152,3.152,0,0,0,.688.708A17.868,17.868,0,0,0,7.08,9.242a6.8,6.8,0,0,1,1.826,1.523A3.017,3.017,0,0,1,9.541,12.7a3.388,3.388,0,0,1-.488,1.733A3.608,3.608,0,0,1,7.6,15.785a4.7,4.7,0,0,1-2.261.518,10.259,10.259,0,0,1-1.851-.2q-1.069-.2-1.108-.2a.57.57,0,0,0-.625.381ZM13.218,2.436A2.047,2.047,0,0,1,13.99.819,3.019,3.019,0,0,1,16.021.16a3.547,3.547,0,0,1,1.226.2A2.529,2.529,0,0,1,18.14.9a2.23,2.23,0,0,1,.527.742,2.111,2.111,0,0,1,.166.825,2,2,0,0,1-.781,1.621,3.057,3.057,0,0,1-1.992.635A3.016,3.016,0,0,1,14,4.052,2.134,2.134,0,0,1,13.218,2.436ZM20.435,16q-2.227-.225-4.082-.225-1.826,0-4.053.225V14.936a1.2,1.2,0,0,0,.4.068,1.331,1.331,0,0,0,1.045-.5,2.288,2.288,0,0,0,.43-1.523L14.156,8.7q0-1.2-.435-1.509A2.519,2.519,0,0,0,12.3,6.879V6.225q1.084-.1,1.973-.264t1.846-.42a18.329,18.329,0,0,0,2.041-.664l.537.244v7.861a2.574,2.574,0,0,0,.342,1.45,1.592,1.592,0,0,0,1.4.5Zm2.379,2.344a1.193,1.193,0,0,1,.342-.781,4.5,4.5,0,0,1,.737-.679,2.177,2.177,0,0,1,.444-.288,2.93,2.93,0,0,1-.581-.674,1.818,1.818,0,0,1-.181-.9,2.408,2.408,0,0,1,.205-1A1.492,1.492,0,0,1,24.5,13.4a7.68,7.68,0,0,1,1.519-.493l1.563-.4a5.251,5.251,0,0,0-1.1-.3,7.136,7.136,0,0,1-1.3-.366,3.5,3.5,0,0,1-1.26-1.318,3.579,3.579,0,0,1-.459-1.758,3.307,3.307,0,0,1,.728-2.1,4.709,4.709,0,0,1,2.1-1.44A9.3,9.3,0,0,1,29.562,4.7a8.774,8.774,0,0,1,4.053,1l4.023-.859V7.885L34.66,6.938a2.784,2.784,0,0,1,.615,1.787,3.229,3.229,0,0,1-.654,1.929,4.589,4.589,0,0,1-1.86,1.455,6.613,6.613,0,0,1-2.778.552h-.1a.356.356,0,0,0-.059,0,.169.169,0,0,1-.068,0h-.42q-1,0-1,.645a.482.482,0,0,0,.205.366.6.6,0,0,0,.313.171l3.857.342q2.471.215,3.218,1.016a2.548,2.548,0,0,1,.747,1.777,2.508,2.508,0,0,1-.552,1.519A4.753,4.753,0,0,1,34.5,19.8a7.889,7.889,0,0,1-2.627.85,18.606,18.606,0,0,1-2.959.254,11.415,11.415,0,0,1-3.379-.42,6.142,6.142,0,0,1-2.026-.991A1.557,1.557,0,0,1,22.814,18.344Zm6.27-12.568q-.537.039-.9.889A4.842,4.842,0,0,0,27.814,8.6a2.33,2.33,0,0,0,.029.439,4.21,4.21,0,0,0,.532,1.895,1.428,1.428,0,0,0,1.284.791q1.475,0,1.475-1.963a6.926,6.926,0,0,0-.078-1.035,6.138,6.138,0,0,0-.63-2.085A1.458,1.458,0,0,0,29.083,5.775ZM26.2,17.162a2.932,2.932,0,0,0,.083.713,1.765,1.765,0,0,0,.322.645,1.994,1.994,0,0,0,.708.547,5.077,5.077,0,0,0,1.26.391,12.555,12.555,0,0,0,2.285.225,5.28,5.28,0,0,0,.82-.059,5.446,5.446,0,0,0,1.44-.352.625.625,0,0,0,.356-.6.633.633,0,0,0-.288-.557,1.793,1.793,0,0,0-.7-.269,9.489,9.489,0,0,0-.962-.112q-.547-.039-1.289-.078-.85-.068-2.158-.21A14.753,14.753,0,0,1,26.2,17.162ZM39.226,16l-.039-1a1.965,1.965,0,0,0,.479.059,1.23,1.23,0,0,0,1-.5,2.678,2.678,0,0,0,.4-1.66V8.7a3.6,3.6,0,0,0-.083-.967.678.678,0,0,0-.4-.386,14.016,14.016,0,0,0-1.4-.464V6.225q1.084-.1,1.973-.264T43,5.541a18.914,18.914,0,0,0,2.021-.664l.557.244v1.4A7.66,7.66,0,0,1,49.7,4.8a3.2,3.2,0,0,1,1.694.479,3.263,3.263,0,0,1,1.235,1.4,4.882,4.882,0,0,1,.449,2.168l-.059,4.121q0,2.08,1.035,2.08a2.013,2.013,0,0,0,.508-.078V16a33.062,33.062,0,0,0-3.662-.225A31.381,31.381,0,0,0,47.321,16V14.965a1.206,1.206,0,0,0,.62-.142,1.021,1.021,0,0,0,.391-.552,4.813,4.813,0,0,0,.22-1.182q.068-.771.068-2.129A15.365,15.365,0,0,0,48.464,8.4a1.979,1.979,0,0,0-.483-1.089,1.282,1.282,0,0,0-.962-.376,2.76,2.76,0,0,0-1.436.479V13a6.691,6.691,0,0,0,.073,1.069,1.391,1.391,0,0,0,.293.7.764.764,0,0,0,.61.254,3.263,3.263,0,0,0,.361-.039V16a33.068,33.068,0,0,0-7.7,0ZM68.846,2.436A2.047,2.047,0,0,1,69.618.819,3.019,3.019,0,0,1,71.649.16a3.547,3.547,0,0,1,1.226.2A2.529,2.529,0,0,1,73.768.9a2.231,2.231,0,0,1,.527.742,2.111,2.111,0,0,1,.166.825,2,2,0,0,1-.781,1.621,3.057,3.057,0,0,1-1.992.635,3.016,3.016,0,0,1-2.056-.669A2.134,2.134,0,0,1,68.846,2.436ZM76.063,16q-2.227-.225-4.082-.225-1.826,0-4.053.225V14.936a1.2,1.2,0,0,0,.4.068,1.331,1.331,0,0,0,1.045-.5,2.288,2.288,0,0,0,.43-1.523L69.784,8.7q0-1.2-.435-1.509a2.519,2.519,0,0,0-1.421-.308V6.225q1.084-.1,1.973-.264t1.846-.42a18.328,18.328,0,0,0,2.041-.664l.537.244v7.861a2.574,2.574,0,0,0,.342,1.45,1.592,1.592,0,0,0,1.4.5Zm2.086,0-.039-1a1.966,1.966,0,0,0,.479.059,1.23,1.23,0,0,0,1-.5,2.678,2.678,0,0,0,.4-1.66V8.7a3.6,3.6,0,0,0-.083-.967.678.678,0,0,0-.4-.386,14.017,14.017,0,0,0-1.4-.464V6.225q1.084-.1,1.973-.264t1.846-.42a18.914,18.914,0,0,0,2.021-.664l.557.244v1.4A7.66,7.66,0,0,1,88.627,4.8a3.2,3.2,0,0,1,1.694.479,3.263,3.263,0,0,1,1.235,1.4,4.882,4.882,0,0,1,.449,2.168l-.059,4.121q0,2.08,1.035,2.08a2.013,2.013,0,0,0,.508-.078V16a33.061,33.061,0,0,0-3.662-.225A31.381,31.381,0,0,0,86.244,16V14.965a1.206,1.206,0,0,0,.62-.142,1.021,1.021,0,0,0,.391-.552,4.812,4.812,0,0,0,.22-1.182q.068-.771.068-2.129A15.365,15.365,0,0,0,87.387,8.4,1.979,1.979,0,0,0,86.9,7.313a1.282,1.282,0,0,0-.962-.376,2.76,2.76,0,0,0-1.436.479V13a6.691,6.691,0,0,0,.073,1.069,1.391,1.391,0,0,0,.293.7.764.764,0,0,0,.61.254,3.263,3.263,0,0,0,.361-.039V16a33.068,33.068,0,0,0-7.7,0Z" transform="translate(-0.576 -0.16)" fill="#ffffd6"/>
</svg>
