<svg xmlns="http://www.w3.org/2000/svg" width="221.035" height="219.357" viewBox="0 0 221.035 219.357"><g transform="translate(21.737 2.513)" fill="none"><path d="M102.544,0C157.87,0,233.831,30.25,163.55,101.875S53.878,266.505,2.366,139.285,47.217,0,102.544,0Z" stroke="none"/><path d="M 102.5437164306641 0.5 C 80.22764587402344 0.5 61.80164337158203 2.530059814453125 46.21278381347656 6.706207275390625 C 36.01521301269531 9.43804931640625 27.03289794921875 13.12908935546875 19.51531982421875 17.67680358886719 C 15.37239074707031 20.18305969238281 11.588134765625 23.00202941894531 8.267684936523438 26.055419921875 C 4.752639770507812 29.28773498535156 1.657577514648438 32.87458801269531 -0.93157958984375 36.71627807617188 C -4.488143920898438 41.99337768554688 -7.206466674804688 47.92391967773438 -9.0111083984375 54.34309387207031 C -10.93281555175781 61.17869567871094 -11.87260437011719 68.76066589355469 -11.80435180664062 76.87841796875 C -11.73207092285156 85.47731018066406 -10.52674865722656 94.91677856445312 -8.221893310546875 104.9346008300781 C -5.792755126953125 115.4927062988281 -2.074600219726562 126.9868469238281 2.829177856445312 139.0977478027344 C 7.375640869140625 150.3262023925781 11.95646667480469 160.1214141845703 16.44435119628906 168.2112426757812 C 20.80514526367188 176.0719146728516 25.23939514160156 182.6125183105469 29.62393188476562 187.6513824462891 C 33.84449768066406 192.5017700195312 38.18025207519531 196.1449890136719 42.5107421875 198.479736328125 C 44.60427856445312 199.6084594726562 46.75106811523438 200.4620208740234 48.89154052734375 201.0167388916016 C 50.97810363769531 201.5574951171875 53.12628173828125 201.8316650390625 55.27639770507812 201.8316650390625 C 57.84017944335938 201.8316650390625 60.50418090820312 201.4409790039062 63.19442749023438 200.6704406738281 C 65.78846740722656 199.927490234375 68.50128173828125 198.8041687011719 71.25749969482422 197.3316650390625 C 76.41553497314453 194.5760498046875 81.88199615478516 190.5523834228516 87.96924591064453 185.0307312011719 C 99.42864227294922 174.6361389160156 111.7166748046875 160.1091613769531 124.7262115478516 144.729248046875 C 136.7912902832031 130.4658508300781 149.2671051025391 115.7168426513672 163.1928863525391 101.5248107910156 C 169.7319641113281 94.86070251464844 175.2121429443359 88.32548522949219 179.4811706542969 82.10063171386719 C 183.5354614257812 76.18891906738281 186.5927124023438 70.418701171875 188.5679931640625 64.95024108886719 C 190.4371490478516 59.77555847167969 191.3796844482422 54.75466918945312 191.3694610595703 50.027099609375 C 191.3597869873047 45.55952453613281 190.4992065429688 41.25584411621094 188.8116455078125 37.23562622070312 C 178.2166442871094 11.99577331542969 136.6658935546875 0.5 102.5437164306641 0.5 M 102.5437164306641 0 C 157.8704681396484 0 233.8310394287109 30.24995422363281 163.5497894287109 101.8749847412109 C 118.5644912719727 147.720458984375 86.22953796386719 202.3316497802734 55.27641296386719 202.3316497802734 C 37.87098693847656 202.3316497802734 20.90621948242188 185.0748901367188 2.365707397460938 139.2853698730469 C -49.14649963378906 12.0655517578125 47.21693420410156 0 102.5437164306641 0 Z" stroke="none" fill="#a6f7e7"/></g><g transform="translate(12.261 16.723) rotate(-5)" fill="none"><path d="M102.544,0C157.87,0,233.831,30.25,163.55,101.875S53.878,266.505,2.366,139.285,47.217,0,102.544,0Z" stroke="none"/><path d="M 102.5437164306641 0.5 C 80.22764587402344 0.5 61.80164337158203 2.530059814453125 46.21278381347656 6.706207275390625 C 36.01521301269531 9.43804931640625 27.03289794921875 13.12908935546875 19.51531982421875 17.67680358886719 C 15.37239074707031 20.18305969238281 11.588134765625 23.00202941894531 8.267684936523438 26.055419921875 C 4.752639770507812 29.28773498535156 1.657577514648438 32.87458801269531 -0.93157958984375 36.71627807617188 C -4.488143920898438 41.99337768554688 -7.206466674804688 47.92391967773438 -9.0111083984375 54.34309387207031 C -10.93281555175781 61.17869567871094 -11.87260437011719 68.76066589355469 -11.80435180664062 76.87841796875 C -11.73207092285156 85.47731018066406 -10.52674865722656 94.91677856445312 -8.221893310546875 104.9346008300781 C -5.792755126953125 115.4927062988281 -2.074600219726562 126.9868469238281 2.829177856445312 139.0977478027344 C 7.375640869140625 150.3262023925781 11.95646667480469 160.1214141845703 16.44435119628906 168.2112426757812 C 20.80514526367188 176.0719146728516 25.23939514160156 182.6125183105469 29.62393188476562 187.6513824462891 C 33.84449768066406 192.5017700195312 38.18025207519531 196.1449890136719 42.5107421875 198.479736328125 C 44.60427856445312 199.6084594726562 46.75106811523438 200.4620208740234 48.89154052734375 201.0167388916016 C 50.97810363769531 201.5574951171875 53.12628173828125 201.8316650390625 55.27639770507812 201.8316650390625 C 57.84017944335938 201.8316650390625 60.50418090820312 201.4409790039062 63.19442749023438 200.6704406738281 C 65.78846740722656 199.927490234375 68.50128173828125 198.8041687011719 71.25749969482422 197.3316650390625 C 76.41553497314453 194.5760498046875 81.88199615478516 190.5523834228516 87.96924591064453 185.0307312011719 C 99.42864227294922 174.6361389160156 111.7166748046875 160.1091613769531 124.7262115478516 144.729248046875 C 136.7912902832031 130.4658508300781 149.2671051025391 115.7168426513672 163.1928863525391 101.5248107910156 C 169.7319641113281 94.86070251464844 175.2121429443359 88.32548522949219 179.4811706542969 82.10063171386719 C 183.5354614257812 76.18891906738281 186.5927124023438 70.418701171875 188.5679931640625 64.95024108886719 C 190.4371490478516 59.77555847167969 191.3796844482422 54.75466918945312 191.3694610595703 50.027099609375 C 191.3597869873047 45.55952453613281 190.4992065429688 41.25584411621094 188.8116455078125 37.23562622070312 C 178.2166442871094 11.99577331542969 136.6658935546875 0.5 102.5437164306641 0.5 M 102.5437164306641 0 C 157.8704681396484 0 233.8310394287109 30.24995422363281 163.5497894287109 101.8749847412109 C 118.5644912719727 147.720458984375 86.22953796386719 202.3316497802734 55.27641296386719 202.3316497802734 C 37.87098693847656 202.3316497802734 20.90621948242188 185.0748901367188 2.365707397460938 139.2853698730469 C -49.14649963378906 12.0655517578125 47.21693420410156 0 102.5437164306641 0 Z" stroke="none" fill="#a6f7e7"/></g></svg>