<svg xmlns="http://www.w3.org/2000/svg" width="204.177" height="142.62" viewBox="0 0 204.177 142.62"><g transform="translate(12.308)" fill="none"><path d="M102.544,0C157.87,0,233.831,21.323,163.55,71.81S53.878,187.855,2.366,98.18,47.217,0,102.544,0Z" stroke="none"/><path d="M 102.5437164306641 0.5 C 77.38838958740234 0.5 57.03553771972656 2.327285766601562 40.32211303710938 6.086212158203125 C 29.24693298339844 8.577102661132812 19.80110168457031 11.94953918457031 12.24699401855469 16.10986328125 C 8.074462890625 18.40782165527344 4.394851684570312 20.99325561523438 1.310394287109375 23.79435729980469 C -1.956069946289062 26.76071166992188 -4.647216796875 30.05278015136719 -6.68829345703125 33.5791015625 C -8.807327270507812 37.24006652832031 -10.28599548339844 41.25804138183594 -11.083251953125 45.52139282226562 C -11.92242431640625 50.0087890625 -12.03085327148438 54.8963623046875 -11.40553283691406 60.04839324951172 C -10.74925231933594 65.4559326171875 -9.266326904296875 71.30632019042969 -6.998001098632812 77.43707275390625 C -4.626434326171875 83.84693145751953 -1.33013916015625 90.74200439453125 2.799285888671875 97.93067932128906 C 7.341323852539062 105.8376770019531 11.91728210449219 112.7349319458008 16.40007019042969 118.4307861328125 C 20.75474548339844 123.9639282226562 25.18289184570312 128.5679016113281 29.56146240234375 132.1148529052734 C 37.87228393554688 138.8472137451172 46.28370666503906 142.1198883056641 55.27642822265625 142.1198883056641 C 60.38510894775391 142.1198883056641 65.63199615478516 141.0792236328125 71.31692504882812 138.9384307861328 C 76.47867584228516 136.9946441650391 81.94750213623047 134.1573944091797 88.03582000732422 130.2645721435547 C 99.49314117431641 122.9389266967773 111.7798233032227 112.7002868652344 124.7878570556641 101.8605041503906 C 136.8538513183594 91.80571746826172 149.3306427001953 81.40864562988281 163.2580718994141 71.40374755859375 C 174.6664276123047 63.20846557617188 182.7097473144531 55.40097045898438 187.1646728515625 48.19815063476562 C 189.2253265380859 44.86642456054688 190.5435333251953 41.61703491210938 191.0827178955078 38.54022216796875 C 191.5932159423828 35.62710571289062 191.4168853759766 32.79840087890625 190.5586395263672 30.13261413574219 C 187.5721740722656 20.85646057128906 176.2472839355469 13.09757995605469 157.8082122802734 7.694747924804688 C 142.2034301757812 3.122390747070312 122.0602874755859 0.5 102.5437164306641 0.5 M 102.5437164306641 0 C 157.8704681396484 0 233.8310394287109 21.32264709472656 163.5497894287109 71.80982208251953 C 118.5644912719727 104.1254577636719 86.22954559326172 142.6198883056641 55.27641296386719 142.6198883056641 C 37.87100219726562 142.6198883056641 20.90621948242188 130.4559020996094 2.365707397460938 98.17971801757812 C -49.14649963378906 8.504791259765625 47.21693420410156 0 102.5437164306641 0 Z" stroke="none" fill="#a6f7e7"/></g></svg>