<svg xmlns="http://www.w3.org/2000/svg" width="409.775" height="271.811" viewBox="0 0 409.775 271.811"><path d="M75.728,55.142C-2.311,80.309,45.68,108.708,45.7,195.825s51.064,65.338,245.779,42.793c142.532-16.5,162.5-139.022,69.138-208.4C342.766,14.965,117.643,42.4,75.728,55.142Z" transform="translate(413.846 298.682) rotate(-175)" fill="#3a6d6e"/><g transform="translate(-22.749 -244.935)"><g transform="translate(411.301 508.236) rotate(-176)" fill="none"><path d="M26.314,22.226c-50.5,15.385-13.4,91.871-13.4,91.871S35,165.079,40.159,178.891c-.361,88.59,57.415,37.643,234.976,33.146C407.569,197.248,409.453,29.159,321.506,1.821,289.357-8.173,65.285,11.03,26.314,22.226Z" stroke="none"/><path d="M 283.4482421875 -0.170654296875 C 265.8411254882812 -0.170654296875 242.599365234375 0.64422607421875 216.2354736328125 2.185882568359375 C 191.7744293212891 3.616226196289062 164.9695892333984 5.642898559570312 138.71875 8.046737670898438 C 84.26229858398438 13.03340148925781 41.28103637695312 18.75990295410156 26.54171752929688 22.99258422851562 C 20.935546875 24.70120239257812 16.1697998046875 27.27262878417969 12.377685546875 30.63522338867188 C 8.917694091796875 33.70333862304688 6.1815185546875 37.50689697265625 4.245208740234375 41.94023132324219 C 1.511962890625 48.19818115234375 0.2962646484375 55.85084533691406 0.631866455078125 64.6856689453125 C 0.90185546875 71.79318237304688 2.170654296875 79.67184448242188 4.403045654296875 88.10295104980469 C 8.21307373046875 102.4927368164062 13.5802001953125 113.6361694335938 13.6339111328125 113.7470703125 L 13.64141845703125 113.762451171875 L 13.648193359375 113.7781219482422 C 13.86920166015625 114.2881164550781 35.80526733398438 164.9383392333984 40.9080810546875 178.6112365722656 L 40.95919799804688 178.7481079101562 L 40.95858764648438 178.8942260742188 C 40.9144287109375 189.7327270507812 41.7440185546875 198.3241729736328 43.49481201171875 205.1593322753906 C 45.23736572265625 211.9625091552734 47.91336059570312 217.1058959960938 51.6756591796875 220.8835601806641 C 54.87298583984375 224.0939483642578 58.89276123046875 226.3634033203125 63.96469116210938 227.8215637207031 C 68.765869140625 229.2018432617188 74.59548950195312 229.8728332519531 81.78671264648438 229.8728332519531 C 96.0225830078125 229.8728332519531 114.3337097167969 227.2789611816406 137.5163116455078 223.9950103759766 C 154.9552001953125 221.5247344970703 174.7208709716797 218.7247924804688 197.5639801025391 216.3304443359375 C 224.0441589355469 213.5549163818359 249.39892578125 211.8890380859375 275.0794372558594 211.2376708984375 C 291.32958984375 209.4195861816406 306.2527770996094 205.1866149902344 319.4370727539062 198.656005859375 C 331.6777954101562 192.5927276611328 342.4499816894531 184.5433959960938 351.4544067382812 174.7315673828125 C 359.8758239746094 165.5550079345703 366.6775207519531 154.9334411621094 371.6707153320312 143.1619567871094 C 376.4175415039062 131.9710693359375 379.4229736328125 120.0203399658203 380.6035766601562 107.6416168212891 C 382.7941589355469 84.67327880859375 378.4704284667969 61.66867065429688 368.4289855957031 42.86544799804688 C 363.2557067871094 33.1783447265625 356.7171936035156 24.84701538085938 348.9949645996094 18.10289001464844 C 340.8560791015625 10.99484252929688 331.5274658203125 5.773788452148438 321.2682495117188 2.584716796875 C 315.38818359375 0.75689697265625 302.6690368652344 -0.17010498046875 283.4640502929688 -0.170654296875 L 283.4551391601562 -0.170654296875 L 283.4482421875 -0.170654296875 M 283.4640502929688 -0.97064208984375 C 301.5935974121094 -0.97015380859375 315.2227478027344 -0.13226318359375 321.5057067871094 1.82080078125 C 409.4532470703125 29.1591796875 407.5693664550781 197.2475128173828 275.1344299316406 212.0364990234375 C 178.5402069091797 214.4833068847656 117.4069519042969 230.6728515625 81.78671264648438 230.6728515625 C 51.92935180664062 230.6728515625 39.99411010742188 219.2873840332031 40.15859985351562 178.8909606933594 C 35.00396728515625 165.0792846679688 12.91415405273438 114.0961761474609 12.91415405273438 114.0961761474609 C 12.91415405273438 114.0961761474609 -24.1895751953125 37.61039733886719 26.31430053710938 22.22557067871094 C 57.66876220703125 13.21809387207031 208.8283386230469 -0.97265625 283.4640502929688 -0.97064208984375 Z" stroke="none" fill="#a9f6e7"/></g><g transform="matrix(-0.995, -0.105, 0.105, -0.995, 408.004, 515.283)" fill="none"><path d="M27.034,26.677c-51.07,15.545-15.017,87.591-15.017,87.591s22.247,51.223,27.436,65.1c-.5,89.067,57.973,37.757,237.449,32.962C410.783,197.258,412.949,28.263,324.1.913,291.621-9.084,66.441,15.361,27.034,26.677Z" stroke="none"/><path d="M 294.3258972167969 -0.63629150390625 C 277.3885498046875 -0.63629150390625 254.7770080566406 0.393096923828125 227.1194000244141 2.423309326171875 C 202.3246765136719 4.243316650390625 174.3912353515625 6.817092895507812 146.3388366699219 9.866378784179688 C 119.3420715332031 12.80093383789062 93.90362548828125 15.98788452148438 72.773681640625 19.082763671875 C 50.88525390625 22.28875732421875 35.14706420898438 25.18000793457031 27.26022338867188 27.44392395019531 C 21.31124877929688 29.25558471679688 16.28134155273438 31.95088195800781 12.30984497070312 35.45509338378906 C 8.707061767578125 38.63392639160156 5.887908935546875 42.55581665039062 3.93060302734375 47.11187744140625 C 1.3515625 53.11549377441406 0.20135498046875 60.34742736816406 0.512054443359375 68.60676574707031 C 0.761993408203125 75.25132751464844 1.952392578125 82.56748962402344 4.05023193359375 90.35209655761719 C 7.63134765625 103.6409301757812 12.68185424804688 113.8087615966797 12.73245239257812 113.9099273681641 L 12.7421875 113.9293212890625 L 12.75079345703125 113.9491577148438 C 12.97332763671875 114.4615936279297 35.06600952148438 165.3502655029297 40.2022705078125 179.0888214111328 L 40.2537841796875 179.2265472412109 L 40.25296020507812 179.3734893798828 C 40.19155883789062 190.2418212890625 41.01205444335938 198.8599853515625 42.76129150390625 205.7204895019531 C 44.5025634765625 212.5496520996094 47.18429565429688 217.7151031494141 50.9598388671875 221.5119934082031 C 54.17379760742188 224.7441558837891 58.21749877929688 227.0293731689453 63.322021484375 228.4982147216797 C 68.15594482421875 229.88916015625 74.02557373046875 230.5653228759766 81.26617431640625 230.5653228759766 C 95.68084716796875 230.5653228759766 114.2615051269531 227.9194946289062 137.785400390625 224.5697021484375 C 155.4153900146484 222.0592651367188 175.3976745605469 219.2138214111328 198.4897308349609 216.7714233398438 C 225.2583923339844 213.9401397705078 250.8885955810547 212.2262115478516 276.8458251953125 211.53173828125 C 293.3268432617188 209.6728210449219 308.4612121582031 205.3727569580078 321.8301086425781 198.7506561279297 C 334.2396240234375 192.6038818359375 345.15673828125 184.4520416259766 354.2781677246094 174.5217132568359 C 362.8078002929688 165.2357635498047 369.6901245117188 154.4955444335938 374.7340698242188 142.5993804931641 C 379.5293884277344 131.2897033691406 382.5530090332031 119.2230987548828 383.720947265625 106.7347106933594 C 385.873779296875 83.71604919433594 381.4861145019531 60.69354248046875 371.3662719726562 41.908203125 C 366.1501770019531 32.22566223144531 359.56201171875 23.90138244628906 351.7848510742188 17.16665649414062 C 343.5885009765625 10.06893920898438 334.1946105957031 4.857711791992188 323.8641662597656 1.677825927734375 C 318.8771362304688 0.1427001953125 308.9430541992188 -0.635894775390625 294.3380126953125 -0.63629150390625 L 294.3301086425781 -0.63629150390625 L 294.3258972167969 -0.63629150390625 M 294.3380126953125 -1.436309814453125 C 308.3062133789062 -1.435882568359375 318.7868957519531 -0.722137451171875 324.0995178222656 0.9132080078125 C 412.9493408203125 28.26298522949219 410.7825012207031 197.2579956054688 276.901611328125 212.3305358886719 C 179.1014556884766 214.9437866210938 117.2426452636719 231.3652954101562 81.26617431640625 231.3652954101562 C 51.22128295898438 231.3652954101562 39.22406005859375 219.9013519287109 39.45294189453125 179.3689880371094 C 34.26449584960938 165.4909973144531 12.01699829101562 114.2678833007812 12.01699829101562 114.2678833007812 C 12.01699829101562 114.2678833007812 -24.03643798828125 42.22193908691406 27.03399658203125 26.67654418945312 C 59.99493408203125 17.21182250976562 222.9124298095703 -1.438385009765625 294.3380126953125 -1.436309814453125 Z" stroke="none" fill="#a9f6e7"/></g></g></svg>