<svg id="TextBgBlob02" xmlns="http://www.w3.org/2000/svg" width="373.381" height="180.883" viewBox="0 0 373.381 180.883">
  <g id="Pfad_38" data-name="Pfad 38" transform="translate(62.07)" fill="rgba(255,255,214,0.17)">
    <path d="M170.05,0a141.26,141.26,0,0,1,141.26,141.26c0,78.016-42.23,20.235-282.52,0S92.035,0,170.05,0Z" stroke="none"/>
    <path d="M 170.0505065917969 0.999969482421875 C 163.2151641845703 0.999969482421875 154.5008239746094 1.935379028320312 144.1495666503906 3.780242919921875 C 134.1073608398438 5.569976806640625 122.7954940795898 8.16571044921875 110.5283660888672 11.49530029296875 C 85.81189727783203 18.20390319824219 58.60716247558594 27.55363464355469 33.92562866210938 37.82203674316406 C 6.894096374511719 49.06809997558594 -16.03790283203125 60.92057800292969 -32.3912353515625 72.097900390625 C -41.34649658203125 78.21876525878906 -48.32156372070312 84.13031005859375 -53.12271118164062 89.66816711425781 C -58.1810302734375 95.50270843505859 -60.85037231445312 100.9503021240234 -61.05670166015625 105.8596420288086 C -61.13803100585938 107.7945022583008 -60.83424377441406 109.6818389892578 -60.15376281738281 111.4691696166992 C -59.44903564453125 113.320442199707 -58.31863403320312 115.1228408813477 -56.79417419433594 116.826301574707 C -53.55177307128906 120.4495086669922 -48.41770935058594 123.7607727050781 -41.53450012207031 126.6681747436523 C -34.22044372558594 129.7576293945312 -24.77790069580078 132.4529113769531 -13.46936798095703 134.6791076660156 C -1.577507019042969 137.0201721191406 12.66896057128906 138.899169921875 28.87422943115234 140.2637634277344 C 69.78089904785156 143.7084350585938 108.3652954101562 148.4957733154297 146.8322906494141 154.8993072509766 C 179.5456237792969 160.3450317382812 206.0648193359375 165.9539794921875 227.3733520507812 170.4607696533203 C 253.2359008789062 175.9307708740234 271.9219665527344 179.8829650878906 284.6517028808594 179.8829650878906 C 289.7948303222656 179.8829650878906 293.8764343261719 179.2413635253906 297.1297607421875 177.9215698242188 C 300.4166259765625 176.5881042480469 302.9482421875 174.52197265625 304.869140625 171.6051025390625 C 306.8077697753906 168.6613006591797 308.1774291992188 164.7828369140625 309.0562744140625 159.7482299804688 C 309.9003601074219 154.9129028320312 310.3106994628906 148.8654479980469 310.3106994628906 141.2602386474609 C 310.3106994628906 131.7431030273438 309.3519592285156 122.2322387695312 307.4610900878906 112.9918365478516 C 305.6183471679688 103.9867706298828 302.8688354492188 95.12917327880859 299.2887573242188 86.66490173339844 C 295.7735595703125 78.35417175292969 291.4227600097656 70.33830261230469 286.3570251464844 62.84010314941406 C 281.3392944335938 55.412841796875 275.5766906738281 48.42857360839844 269.2294311523438 42.08123779296875 C 262.882080078125 35.73397827148438 255.8978271484375 29.97137451171875 248.4705657958984 24.95364379882812 C 240.9723663330078 19.88790893554688 232.9565582275391 15.537109375 224.645751953125 12.02191162109375 C 216.1815643310547 8.44183349609375 207.3238983154297 5.692306518554688 198.3188323974609 3.849578857421875 C 189.0784912109375 1.958709716796875 179.567626953125 0.999969482421875 170.0505065917969 0.999969482421875 M 170.0505065917969 -3.0517578125e-05 C 248.0662994384766 -3.0517578125e-05 311.3106994628906 63.24436950683594 311.3106994628906 141.2602386474609 C 311.3106994628906 170.8161773681641 305.2467041015625 180.8829650878906 284.6516723632812 180.8829650878906 C 250.8840637207031 180.8829650878906 178.0478210449219 153.8289794921875 28.79029846191406 141.2602386474609 C -211.5001678466797 121.0257034301758 92.03462982177734 -3.0517578125e-05 170.0505065917969 -3.0517578125e-05 Z" stroke="none" fill="rgba(255,255,214,0.52)"/>
  </g>
</svg>
