<svg id="TextBgBlob" xmlns="http://www.w3.org/2000/svg" width="572.567" height="386.827" viewBox="0 0 572.567 386.827">
  <g id="Pfad_129" data-name="Pfad 129" transform="translate(427.868 272.026) rotate(-172)" fill="rgba(221,152,125,0.64)">
    <path d="M67.289-80.84C-218.588-46.2-85.758,48.4-79.9,160.822S-19.16,182.509,225,160.409,545.971-179.092,67.289-80.84Z" stroke="none"/>
    <path d="M 230.1227264404297 -98.65814208984375 C 207.1817321777344 -98.65814208984375 182.205322265625 -97.14845275878906 155.8873291015625 -94.17085266113281 C 128.2707214355469 -91.04634094238281 98.52952575683594 -86.23175048828125 67.48992919921875 -79.86074829101562 L 67.44973754882812 -79.85255432128906 L 67.40911865234375 -79.84764099121094 C 40.84701538085938 -76.62944030761719 17.09063720703125 -72.77255249023438 -3.200286865234375 -68.38385009765625 C -13.07586669921875 -66.24784851074219 -22.37478637695312 -63.93414306640625 -30.83856201171875 -61.50694274902344 C -39.12118530273438 -59.13165283203125 -46.85696411132812 -56.57514953613281 -53.8311767578125 -53.908447265625 C -60.6370849609375 -51.30604553222656 -66.9273681640625 -48.51834106445312 -72.52737426757812 -45.62294006347656 C -77.97366333007812 -42.80705261230469 -82.9368896484375 -39.80125427246094 -87.27908325195312 -36.68904113769531 C -91.48538208007812 -33.67424774169922 -95.24267578125 -30.4637451171875 -98.44656372070312 -27.14674377441406 C -101.5372619628906 -23.94674682617188 -104.2141723632812 -20.54254913330078 -106.4029846191406 -17.02854919433594 C -108.441162109375 -13.75624847412109 -110.124267578125 -10.27894592285156 -111.4053649902344 -6.693344116210938 C -112.6330871582031 -3.2574462890625 -113.5349731445312 0.399749755859375 -114.0858764648438 4.176551818847656 C -115.1121826171875 11.21165466308594 -114.9930725097656 18.84615325927734 -113.7218627929688 27.51605224609375 C -111.332763671875 43.81015396118164 -105.2057800292969 61.34855270385742 -98.71908569335938 79.91675567626953 C -94.29238891601562 92.58805084228516 -89.7149658203125 105.6907501220703 -86.05218505859375 119.1820526123047 C -81.899169921875 134.479248046875 -79.55868530273438 148.0828552246094 -78.89718627929688 160.770263671875 C -78.35037231445312 171.2562561035156 -77.38986206054688 179.7103576660156 -75.96096801757812 186.6154479980469 C -74.50497436523438 193.6514587402344 -72.55877685546875 199.1143493652344 -70.01116943359375 203.3164520263672 C -67.5181884765625 207.4283447265625 -64.43597412109375 210.34326171875 -60.58847045898438 212.2278442382812 C -56.85647583007812 214.0557556152344 -52.340087890625 214.9443511962891 -46.78106689453125 214.9443511962891 C -32.51507568359375 214.9443511962891 -12.5606689453125 209.1354522705078 15.05743408203125 201.0957641601562 C 37.91213989257812 194.4425506591797 66.35552978515625 186.1625518798828 100.9685211181641 178.5121459960938 C 119.9782257080078 174.3104553222656 138.5616302490234 170.7853546142578 157.7807312011719 167.7352600097656 C 179.6380310058594 164.2665557861328 202.2230224609375 161.466552734375 224.9083251953125 159.4132537841797 C 239.1766357421875 158.1217498779297 253.2950286865234 155.7658538818359 266.871337890625 152.4109497070312 C 279.9048156738281 149.1901550292969 292.6351318359375 145.0012512207031 304.7086181640625 139.9605560302734 C 316.3501281738281 135.1001586914062 327.5230102539062 129.3896484375 337.9169311523438 122.9877548217773 C 348.0040283203125 116.7748565673828 357.4498291015625 109.8549499511719 365.9920349121094 102.4203491210938 C 374.3537292480469 95.14285278320312 381.9031372070312 87.32665252685547 388.4303283691406 79.18905639648438 C 394.8860168457031 71.14075469970703 400.3706359863281 62.74295043945312 404.7318115234375 54.22895431518555 C 409.0938110351562 45.71325302124023 412.3485107421875 37.04895401000977 414.4052124023438 28.47685241699219 C 416.4856262207031 19.80625152587891 417.3499145507812 11.18785095214844 416.9739379882812 2.860954284667969 C 416.3478393554688 -11.00474548339844 412.33251953125 -23.99254608154297 405.0398254394531 -35.74154663085938 C 397.3175354003906 -48.18244934082031 386.00732421875 -59.06245422363281 371.4234313964844 -68.079345703125 C 355.7921142578125 -77.74394226074219 336.4183349609375 -85.24075317382812 313.8402099609375 -90.36134338378906 C 301.95263671875 -93.05744934082031 289.0137329101562 -95.12364196777344 275.3829345703125 -96.50254821777344 C 261.2464294433594 -97.93254089355469 246.0226287841797 -98.65785217285156 230.134521484375 -98.65814208984375 L 230.1274261474609 -98.65814208984375 L 230.1227264404297 -98.65814208984375 M 230.134521484375 -99.65812683105469 C 522.4832763671875 -99.65182495117188 436.5805969238281 141.2577972412109 224.9984283447266 160.4091491699219 C 70.3280029296875 174.4091491699219 -8.37127685546875 215.9443969726562 -46.78106689453125 215.9443969726562 C -69.00390625 215.9443969726562 -77.7471923828125 202.0264587402344 -79.89578247070312 160.8223571777344 C -85.75787353515625 48.40125274658203 -218.5875854492188 -46.20474243164062 67.288818359375 -80.84034729003906 C 131.156005859375 -93.94938659667969 185.1229553222656 -99.65910339355469 230.134521484375 -99.65812683105469 Z" stroke="none" fill="rgba(255,255,214,0.52)"/>
  </g>
</svg>
