<svg xmlns="http://www.w3.org/2000/svg" width="389.568" height="441.127" viewBox="0 0 389.568 441.127"><g transform="translate(72.718 21.344)" fill="rgba(223,252,221,0.44)"><path d="M 34.1972770690918 419.2829284667969 C 9.466982841491699 419.2829284667969 -11.25731086730957 418.4655151367188 -24.28813552856445 417.7797546386719 C -38.05732727050781 417.05517578125 -46.61821746826172 416.3105163574219 -48.42359924316406 416.0851135253906 C -52.30177307128906 401.1052551269531 -55.74968719482422 384.7875061035156 -58.67301559448242 367.5773315429688 C -61.45807647705078 351.1812133789062 -63.84395980834961 333.5219116210938 -65.76425170898438 315.090087890625 C -67.56931304931641 297.7649230957031 -69.013427734375 279.2721557617188 -70.05666351318359 260.1253967285156 C -71.02919006347656 242.275390625 -71.68090057373047 223.3462829589844 -71.99372100830078 203.8638610839844 C -72.55025482177734 169.2043304443359 -72.08737182617188 132.6687469482422 -70.57866668701172 92.16939544677734 C -69.42407989501953 61.17624664306641 -67.62950134277344 27.66154289245605 -65.09281921386719 -10.28045177459717 C -51.53798294067383 -17.38815116882324 -30.80358505249023 -20.84425354003906 -1.72337007522583 -20.84425354003906 C 26.21533584594727 -20.84425354003906 57.45474624633789 -17.74613571166992 87.66562652587891 -14.75007724761963 C 107.4490432739258 -12.78807735443115 126.1353378295898 -10.93490123748779 142.6045074462891 -10.09301853179932 C 156.5771026611328 -9.378783226013184 169.8666229248047 -7.63137149810791 182.1040344238281 -4.89937162399292 C 193.9132843017578 -2.262900829315186 205.0745086669922 1.364569664001465 215.2778015136719 5.882452011108398 C 225.0996856689453 10.2313928604126 234.3116302490234 15.52839279174805 242.6576232910156 21.62639236450195 C 250.6694488525391 27.48015785217285 258.1116333007812 34.23898315429688 264.7775573730469 41.7150993347168 C 271.8625183105469 49.66115951538086 278.2862854003906 58.66004180908203 283.8703918457031 68.46192169189453 C 289.1567993164062 77.74109649658203 293.8466796875 88.01416015625 297.809814453125 98.99580383300781 C 301.5338745117188 109.3150405883789 304.7294006347656 120.5748672485352 307.3076782226562 132.4626312255859 C 309.705810546875 143.5198059082031 311.6467590332031 155.4769744873047 313.0764465332031 168.0021514892578 C 318.62158203125 216.5791625976562 316.0397033691406 268.6460266113281 313.1843872070312 313.635986328125 C 312.8310546875 319.20361328125 311.8493347167969 324.635498046875 310.2664489746094 329.7805786132812 C 308.7304077148438 334.773681640625 306.5859375 339.634033203125 303.8927001953125 344.2265014648438 C 301.2807922363281 348.6803894042969 298.0812683105469 353.0042724609375 294.3829956054688 357.0781555175781 C 290.8007507324219 361.0242309570312 286.6531066894531 364.8430480957031 282.0553283691406 368.4284973144531 C 273.3163452148438 375.2434387207031 262.6135559082031 381.4810485839844 250.2442169189453 386.9680480957031 C 238.7783355712891 392.0542907714844 225.6060943603516 396.6175842285156 211.0933990478516 400.5310974121094 C 185.6614532470703 407.3892211914062 155.4832763671875 412.4465637207031 121.397216796875 415.5626831054688 C 94.39492034912109 418.0312805175781 65.05663299560547 419.2829284667969 34.1972770690918 419.2829284667969 Z" stroke="none"/><path d="M -1.723373413085938 -20.34426879882812 C -30.54397583007812 -20.34426879882812 -51.12655639648438 -16.94888305664062 -64.6126708984375 -9.96685791015625 C -67.13916015625 27.85574340820312 -68.92742919921875 61.27566528320312 -70.07901000976562 92.18798828125 C -71.58737182617188 132.6783447265625 -72.05014038085938 169.2052154541016 -71.4937744140625 203.8558654785156 C -71.18106079101562 223.3318634033203 -70.52960205078125 242.2545166015625 -69.55743408203125 260.0982055664062 C -68.51467895507812 279.2367553710938 -67.07113647460938 297.7212219238281 -65.2669677734375 315.0382080078125 C -63.3477783203125 333.4594421386719 -60.96337890625 351.1079711914062 -58.18014526367188 367.4936218261719 C -55.28070068359375 384.56298828125 -51.864990234375 400.7532348632812 -48.02523803710938 415.6286010742188 C -45.68087768554688 415.88671875 -37.14865112304688 416.602294921875 -24.261962890625 417.2804565429688 C -11.2371826171875 417.9658508300781 9.477630615234375 418.7829284667969 34.19709777832031 418.7829284667969 C 65.04133605957031 418.7829284667969 94.36433410644531 417.531982421875 121.3515701293945 415.0647583007812 C 155.4091033935547 411.9512023925781 185.5588073730469 406.8989868164062 210.9631652832031 400.04833984375 C 225.4511566162109 396.1414489746094 238.5989837646484 391.5867919921875 250.0414581298828 386.510986328125 C 262.3734436035156 381.0404968261719 273.0410461425781 374.8240356445312 281.7478637695312 368.0342102050781 C 286.3231506347656 364.4662780761719 290.4496459960938 360.6670532226562 294.0127563476562 356.7420349121094 C 297.6879272460938 352.6936950683594 300.8668823242188 348.3977355957031 303.4613952636719 343.9735717773438 C 306.1350402832031 339.4143981933594 308.2638549804688 334.5897521972656 309.78857421875 329.6335144042969 C 311.3599243164062 324.5259399414062 312.3345031738281 319.1328735351562 312.6853942871094 313.6042785644531 C 315.5393371582031 268.6358032226562 318.1201782226562 216.5951538085938 312.5796813964844 168.0588073730469 C 311.1517944335938 155.5501708984375 309.2136840820312 143.6094970703125 306.8190307617188 132.5685729980469 C 304.2454528808594 120.702392578125 301.0560302734375 109.4639892578125 297.3395080566406 99.16549682617188 C 293.3861083984375 88.210693359375 288.7082214355469 77.9637451171875 283.4359741210938 68.70938110351562 C 277.8691711425781 58.93798828125 271.4659729003906 49.96768188476562 264.4043273925781 42.04779052734375 C 257.7619323730469 34.59799194335938 250.3459777832031 27.86309814453125 242.3626251220703 22.03009033203125 C 234.0453948974609 15.95315551757812 224.8646240234375 10.67410278320312 215.0753936767578 6.339569091796875 C 204.902099609375 1.835052490234375 193.7722778320312 -1.782073974609375 181.9951019287109 -4.411376953125 C 169.7850341796875 -7.137298583984375 156.5235748291016 -8.880828857421875 142.5789794921875 -9.593658447265625 C 126.0979232788086 -10.43618774414062 107.4059753417969 -12.28988647460938 87.61651611328125 -14.25250244140625 C 57.41769409179688 -17.24737548828125 26.19068908691406 -20.34426879882812 -1.723373413085938 -20.34426879882812 M -1.723342895507812 -21.34423828125 C 44.64604187011719 -21.34423828125 101.1699371337891 -12.71176147460938 142.6300354003906 -10.59237670898438 C 327.3279724121094 -1.151031494140625 322.0779418945312 181.3975067138672 313.6834106445312 313.6676330566406 C 307.8804016113281 405.1038208007812 139.4221496582031 419.7828979492188 34.19706726074219 419.7828979492188 C -12.794677734375 419.7828979492188 -47.16830444335938 416.8564147949219 -48.82443237304688 416.5315551757812 C -81.12518310546875 292.1228637695312 -74.05877685546875 116.2224426269531 -65.57308959960938 -10.59237670898438 C -50.41439819335938 -18.64254760742188 -27.65277099609375 -21.34423828125 -1.723342895507812 -21.34423828125 Z" stroke="none" fill="#a9f6e7"/></g></svg>