<svg id="unchecked_box" data-name="unchecked box" xmlns="http://www.w3.org/2000/svg" width="13.151" height="10.961" viewBox="0 0 13.151 10.961">
  <g id="Pfad_135" data-name="Pfad 135" transform="translate(52.515)" fill="none">
    <path d="M-45.276,0a5.912,5.912,0,0,1,5.912,5.912c0,3.265-5.148,8.323-11.011,2.1S-48.541,0-45.276,0Z" stroke="none"/>
    <path d="M -45.27619171142578 0.5 C -47.52828979492188 0.5 -51.05546188354492 1.323390007019043 -51.84592056274414 3.153949737548828 C -52.35007858276367 4.321479797363281 -51.73299026489258 5.839909553527832 -50.01181030273438 7.667059421539307 C -48.29019165039062 9.494659423828125 -46.47024154663086 10.46068000793457 -44.74871063232422 10.46068000793457 C -41.81245040893555 10.46068000793457 -39.8643798828125 7.72275972366333 -39.8643798828125 5.911809921264648 C -39.8643798828125 2.927729606628418 -42.29211044311523 0.5 -45.27619171142578 0.5 M -45.27619171142578 0 C -42.01118850708008 0 -39.3643798828125 2.646809577941895 -39.3643798828125 5.911809921264648 C -39.3643798828125 8.051283836364746 -41.57495880126953 10.9606819152832 -44.74870681762695 10.9606819152832 C -46.41835403442383 10.9606819152832 -48.35439300537109 10.15571212768555 -50.37575912475586 8.009899139404297 C -56.23944091796875 1.785219192504883 -48.54119110107422 0 -45.27619171142578 0 Z" stroke="none" fill="#5861f3"/>
  </g>
</svg>
