<svg xmlns="http://www.w3.org/2000/svg" width="33.006" height="32.613" viewBox="0 0 33.006 32.613"><g transform="translate(-16.44 -12.477)"><g transform="translate(16.44 12.477)"><g transform="translate(0 0)"><g transform="translate(16.093 2.715)" fill="none"><path d="M3.547,0c7.638,0,18.124,4.135,8.422,13.924s-15.14,22.5-22.251,5.113S-4.091,0,3.547,0Z" stroke="none"/><path d="M 3.547245979309082 0.4999961853027344 C 0.492556095123291 0.4999961853027344 -2.023143768310547 0.7749176025390625 -4.143604278564453 1.340476989746094 C -7.057614326477051 2.11767578125 -9.165313720703125 3.450294494628906 -10.40814399719238 5.301296234130859 C -12.45003318786621 8.342386245727539 -12.251953125 12.90030479431152 -9.819403648376465 18.84846496582031 C -8.588483810424805 21.85837554931641 -7.40317440032959 23.9893856048584 -6.195743560791016 25.36325454711914 C -5.136154174804688 26.56890487670898 -4.083603858947754 27.15498542785645 -2.977943897247314 27.15498542785645 C -0.2569141387939453 27.15498542785645 2.77332592010498 23.60811614990234 6.282046318054199 19.50117492675781 C 7.952715873718262 17.5456657409668 9.680255889892578 15.52358627319336 11.61392593383789 13.57246589660645 C 13.3268461227417 11.84407615661621 14.47015571594238 10.22005653381348 15.01208591461182 8.745494842529297 C 15.47889614105225 7.475326538085938 15.49814605712891 6.309665679931641 15.06930637359619 5.280885696411133 C 14.29176616668701 3.415607452392578 12.20068550109863 2.301624298095703 10.58339595794678 1.695564270019531 C 8.555846214294434 0.9357643127441406 5.991266250610352 0.4999961853027344 3.547245979309082 0.4999961853027344 M 3.547245979309082 -3.814697265625e-06 C 11.18504619598389 -3.814697265625e-06 21.67130661010742 4.134605407714844 11.96906661987305 13.92442512512207 C 5.758898258209229 20.19064521789551 1.295096874237061 27.65498161315918 -2.977945804595947 27.65498161315918 C -5.380743026733398 27.65498161315918 -7.722709655761719 25.29630279541016 -10.28220367431641 19.0377254486084 C -17.39339447021484 1.649135589599609 -4.090543746948242 -3.814697265625e-06 3.547245979309082 -3.814697265625e-06 Z" stroke="none" fill="#fffed8"/></g><g transform="translate(0 2.658) rotate(-5)" fill="none"><path d="M17.153,0c8.266,0,19.616,4.5,9.121,15.146S9.9,39.607,2.2,20.7,8.888,0,17.153,0Z" stroke="none"/><path d="M 17.12729263305664 0.5 C 13.82937240600586 0.5 11.11177253723145 0.7983322143554688 8.819211959838867 1.412033081054688 C 5.668191909790039 2.255531311035156 3.38536262512207 3.702121734619141 2.034122467041016 5.711620330810547 C -0.19793701171875 9.031061172485352 0.01246261596679688 14.00883102416992 2.659473419189453 20.50666236877441 C 3.995182037353516 23.7855224609375 5.281772613525391 26.10779190063477 6.5927734375 27.60616302490234 C 7.748653411865234 28.9272518157959 8.898172378540039 29.56944274902344 10.10702323913574 29.56944274902344 C 13.06940269470215 29.56944274902344 16.35190200805664 25.70810317993164 20.1527214050293 21.23704147338867 C 21.95926284790039 19.11194229125977 23.82731246948242 16.91448211669922 25.91795349121094 14.79473114013672 C 27.7778434753418 12.9089527130127 29.01847267150879 11.13591194152832 29.60537338256836 9.524890899658203 C 30.11300277709961 8.131452560424805 30.13077354431152 6.851673126220703 29.6581916809082 5.721092224121094 C 28.80564308166504 3.681541442871094 26.53210258483887 2.464962005615234 24.77496337890625 1.803531646728516 C 22.57741165161133 0.9763221740722656 19.79926300048828 0.5012016296386719 17.15309143066406 0.5000114440917969 L 17.1399040222168 0.5 L 17.12729263305664 0.5 M 17.12729072570801 7.62939453125e-06 C 17.13638687133789 7.62939453125e-06 17.14401245117188 7.62939453125e-06 17.15309143066406 1.1444091796875e-05 C 25.41862297058105 0.00373077392578125 36.76876068115234 4.504913330078125 26.2739429473877 15.14583206176758 C 19.55710411071777 21.9561824798584 14.73085594177246 30.06944465637207 10.10702705383301 30.06944465637207 C 7.506288528442383 30.06944465637207 4.969829559326172 27.50340270996094 2.196422576904297 20.69529151916504 C -5.49934196472168 1.803871154785156 8.857421875 7.62939453125e-06 17.12729072570801 7.62939453125e-06 Z" stroke="none" fill="#fffed8"/></g></g></g><g transform="translate(22.802 18.808)" opacity="0.792"><path d="M7.574,0c4.183,0,7.574,1.7,7.574,3.787S0,5.878,0,3.787,3.391,0,7.574,0Z" transform="translate(0 9.256)" fill="#ffffd6"/><ellipse cx="4" cy="4.5" rx="4" ry="4.5" transform="translate(4.198 0.192)" fill="#ffffd6"/></g></g></svg>