<svg xmlns="http://www.w3.org/2000/svg" width="38.115" height="38.115" viewBox="0 0 38.115 38.115"><g transform="translate(17.326 0) rotate(45)"><g transform="translate(52.515 0)" fill="#fffed8"><path d="M -35.15239715576172 24.00336265563965 C -37.04897689819336 24.00336265563965 -38.99115753173828 23.51643371582031 -40.92498779296875 22.55611228942871 C -43.09486770629883 21.47857284545898 -45.26263809204102 19.7989330291748 -47.36811065673828 17.5638427734375 C -51.40073013305664 13.2829532623291 -52.81978988647461 9.663473129272461 -51.58586883544922 6.805953025817871 C -50.47406768798828 4.231223106384277 -47.38991928100586 2.730732917785645 -44.99841690063477 1.925362944602966 C -41.87777709960938 0.8744428753852844 -38.47528839111328 0.500002920627594 -36.33161926269531 0.500002920627594 C -32.93498992919922 0.500002920627594 -29.74165916442871 1.822722911834717 -27.33986854553223 4.224513053894043 C -24.93807792663574 6.626292705535889 -23.61535835266113 9.819622993469238 -23.61535835266113 13.21626281738281 C -23.61535835266113 15.50983333587646 -24.84901809692383 18.22730255126953 -26.83491897583008 20.30821228027344 C -29.10897827148438 22.69106292724609 -32.06284713745117 24.00336265563965 -35.15239715576172 24.00336265563965 Z" stroke="none"/><path d="M -36.33161926269531 1.000003814697266 C -38.4356803894043 1.000003814697266 -41.77545928955078 1.367572784423828 -44.83884048461914 2.399213790893555 C -47.13402938842773 3.172142028808594 -50.08803939819336 4.598482131958008 -51.12683868408203 7.00416374206543 C -51.64424896240234 8.202383041381836 -51.64127731323242 9.580343246459961 -51.11801910400391 11.09975242614746 C -50.48618698120117 12.93442344665527 -49.10208892822266 14.9939136505127 -47.00415802001953 17.22100257873535 C -44.93941879272461 19.4128532409668 -42.81927871704102 21.05717277526855 -40.70261001586914 22.10829162597656 C -38.83849716186523 23.03399276733398 -36.97113800048828 23.50336265563965 -35.15240859985352 23.50336265563965 C -32.20083999633789 23.50336265563965 -29.37542724609375 22.24604415893555 -27.19664001464844 19.9630126953125 C -25.29603958129883 17.97148323059082 -24.11536026000977 15.38628196716309 -24.11536026000977 13.21626281738281 C -24.11536026000977 9.953182220458984 -25.38607025146484 6.885412216186523 -27.69342041015625 4.578062057495117 C -30.00077056884766 2.270713806152344 -33.06853866577148 1.000003814697266 -36.33161926269531 1.000003814697266 M -36.33161926269531 3.814697265625e-06 C -29.03248977661133 3.814697265625e-06 -23.11536026000977 5.917123794555664 -23.11536026000977 13.21626281738281 C -23.11536026000977 17.99919509887695 -28.05727005004883 24.50335884094238 -35.15240478515625 24.50335884094238 C -38.88501358032227 24.50335884094238 -43.21316146850586 22.70379447937012 -47.73205947875977 17.90668296813965 C -60.84072113037109 3.990972518920898 -43.63076782226562 3.814697265625e-06 -36.33161926269531 3.814697265625e-06 Z" stroke="none" fill="#ffffd6"/></g><g transform="translate(6.885 3.583)"><line y2="16.559" transform="translate(8.279)" fill="none" stroke="#5966ef" stroke-linecap="round" stroke-width="1"/><line x1="16.559" transform="translate(0 8.279)" fill="none" stroke="#5966ef" stroke-linecap="round" stroke-width="1"/></g></g></svg>