<svg id="yellowOutlineBlob" xmlns="http://www.w3.org/2000/svg" width="445.695" height="208.703" viewBox="0 0 445.695 208.703">
  <g id="Pfad_131" data-name="Pfad 131" transform="translate(385.221 217.918) rotate(177)" fill="none">
    <path d="M94.693,28.853C3.136,28.853-62.07,75.16-62.07,167.876s49.56,24.047,331.558,0S186.25,28.853,94.693,28.853Z" stroke="none"/>
    <path d="M 94.69296264648438 29.85305786132812 C 71.80642700195312 29.85305786132812 50.66796875 32.76019287109375 31.86471557617188 38.49382019042969 C 12.77548217773438 44.31459045410156 -3.7933349609375 53.01850891113281 -17.38150024414062 64.36373901367188 C -31.38519287109375 76.05596923828125 -42.20263671875 90.54804992675781 -49.5335693359375 107.4372711181641 C -53.30419921875 116.1243591308594 -56.18890380859375 125.5568237304688 -58.107421875 135.4725799560547 C -60.0731201171875 145.6322021484375 -61.06982421875 156.5341186523438 -61.06982421875 167.8755798339844 C -61.06982421875 176.9254302978516 -60.5872802734375 184.1235961914062 -59.5947265625 189.8815002441406 C -58.55859375 195.8918151855469 -56.94183349609375 200.5252075195312 -54.6519775390625 204.0462799072266 C -52.37689208984375 207.5445861816406 -49.37957763671875 210.0222015380859 -45.48858642578125 211.6207427978516 C -41.650634765625 213.1973571777344 -36.840576171875 213.9638061523438 -30.78350830078125 213.9638061523438 C -15.82736206054688 213.9638061523438 6.109100341796875 209.2655029296875 36.47027587890625 202.7628173828125 C 61.47589111328125 197.4071350097656 92.59619140625 190.7418212890625 130.9841918945312 184.2706604003906 C 151.7900390625 180.7633514404297 173.0652770996094 177.6056518554688 194.2189636230469 174.8851928710938 C 218.6411743164062 171.7444305419922 243.9368743896484 169.0508117675781 269.4035034179688 166.8792114257812 C 288.0901184082031 165.2857360839844 304.5237426757812 163.2308959960938 318.2479553222656 160.7716674804688 C 331.3226318359375 158.4288940429688 342.2485656738281 155.6640472412109 350.7223510742188 152.5540466308594 C 358.7193603515625 149.6190490722656 364.6938781738281 146.3204345703125 368.4799499511719 142.7498168945312 C 370.2554931640625 141.0754241943359 371.5744018554688 139.3149719238281 372.4000244140625 137.5173492431641 C 373.1903381347656 135.7966613769531 373.55126953125 133.9885864257812 373.4727172851562 132.1433563232422 C 373.2669677734375 127.3069000244141 370.0724182128906 121.9471282958984 363.9778747558594 116.2129669189453 C 358.178955078125 110.7568969726562 349.7333984375 104.9477386474609 338.8757934570312 98.94682312011719 C 319.1266479492188 88.03166198730469 291.3543395996094 76.47189331054688 258.561279296875 65.51719665527344 C 228.8138122558594 55.57997131347656 195.954345703125 46.51666259765625 166.0359497070312 39.99703979492188 C 151.2754211425781 36.78042602539062 137.6769714355469 34.2713623046875 125.6182556152344 32.53936767578125 C 113.2077941894531 30.75680541992188 102.8030395507812 29.85305786132812 94.69296264648438 29.85305786132812 M 94.69296264648438 28.85305786132812 C 186.2503356933594 28.85305786132812 551.48681640625 143.8285827636719 269.4884948730469 167.8755798339844 C 94.32388305664062 182.8125 8.84527587890625 214.9638061523438 -30.783447265625 214.9638061523438 C -54.9532470703125 214.9638061523438 -62.06982421875 203.0002746582031 -62.06982421875 167.8755798339844 C -62.06982421875 75.16050720214844 3.135711669921875 28.85305786132812 94.69296264648438 28.85305786132812 Z" stroke="none" fill="#fffed8"/>
  </g>
</svg>
